<svg xmlns="http://www.w3.org/2000/svg" width="24" height="24" viewBox="0 0 24 24">
  <path fill="#2684FF" d="M4.72356414e-05,0.696111648 C4.72356414e-05,0.735269995 0.0044401503,0.77877402 0.00883306495,0.817979603 L2.96417821,18.7550059 C3.03814922,19.2076178 3.42992163,19.5428964 3.89127214,19.547261 L18.0675384,19.547261 C18.4114611,19.5515405 18.7073924,19.3034589 18.7640279,18.9639291 L21.7194203,0.822325282 C21.7803543,0.44368438 21.5235813,0.0867718733 21.1448932,0.0258378959 C21.1057348,0.0215394525 21.0665765,0.0171465378 21.0231197,0.0171465378 L0.705180891,0.00831707564 C0.32219431,0.00406226516 0.0044401503,0.308732152 4.72356414e-05,0.696111648 Z M13.1492217,12.9704348 L8.62258293,12.9704348 L7.399416,6.57208374 L14.245986,6.57208374 L13.1492217,12.9704348 L13.1492217,12.9704348 Z" transform="translate(1 2)"/>
</svg>
