<svg width="24" height="24" viewBox="0 0 24 24" fill="none" xmlns="http://www.w3.org/2000/svg">
<path d="M22.9649 12.9278L21.7918 9.15155C21.7924 9.15325 21.7925 9.15502 21.7931 9.15672C21.7925 9.15475 21.7922 9.15278 21.7916 9.15081C21.7916 9.15067 21.7916 9.1506 21.7916 9.15047C21.7916 9.1504 21.7916 9.15033 21.7916 9.15033L19.4629 1.65652C19.3355 1.26175 18.985 0.996807 18.5832 1.00007C18.1802 1.00224 17.8393 1.26209 17.7146 1.66229L15.5043 8.77533H8.52982L6.31529 1.66181C6.19076 1.26195 5.84982 1.00217 5.44687 1C5.44524 1 5.44368 1 5.44199 1C5.04522 1 4.694 1.26331 4.56525 1.66249L2.24297 9.14958L2.24265 9.15054C2.24265 9.1506 2.24265 9.15067 2.24265 9.15074C2.24206 9.15264 2.2418 9.15454 2.24122 9.15645C2.24173 9.15475 2.24193 9.15298 2.24245 9.15128L1.06512 12.9278C0.888022 13.4979 1.0802 14.1175 1.54346 14.4697L11.7092 22.1903C11.7107 22.1914 11.7124 22.1921 11.7139 22.1933C11.7182 22.1965 11.7225 22.1999 11.7269 22.2029C11.7227 22.2 11.7188 22.1968 11.7147 22.1938C11.7147 22.1938 11.7147 22.1938 11.7147 22.1938C11.7153 22.1943 11.7161 22.1946 11.7168 22.1951C11.7174 22.1955 11.718 22.1958 11.7186 22.1962C11.7186 22.1963 11.7187 22.1963 11.7188 22.1964C11.7346 22.2078 11.7509 22.2183 11.7678 22.2279C11.7701 22.2292 11.7722 22.2309 11.7745 22.2322C11.7746 22.2322 11.7746 22.2323 11.7747 22.2323C11.7761 22.233 11.7774 22.234 11.7788 22.2347C11.7799 22.2353 11.7811 22.2356 11.7821 22.2361C11.7829 22.2366 11.7838 22.2368 11.7845 22.2372C11.7864 22.2381 11.7885 22.2387 11.7904 22.2397C11.7992 22.2442 11.8085 22.2478 11.8176 22.2516C11.8261 22.2553 11.8344 22.2596 11.8431 22.2628C11.8435 22.2629 11.8438 22.2631 11.8442 22.2633C11.8456 22.2638 11.8469 22.2645 11.8484 22.2651C11.8502 22.2658 11.852 22.2665 11.8538 22.2671C11.8545 22.2673 11.8552 22.2675 11.856 22.2677C11.8582 22.2684 11.8607 22.2688 11.863 22.2694C11.8638 22.2697 11.8648 22.2698 11.8657 22.2701C11.8779 22.274 11.8906 22.2768 11.9032 22.2797C11.9082 22.2808 11.9129 22.2825 11.9179 22.2834C11.9186 22.2836 11.9193 22.2838 11.92 22.284C11.9217 22.2843 11.9232 22.2849 11.9249 22.2852C11.9275 22.2857 11.9301 22.2866 11.9328 22.287C11.935 22.2873 11.9372 22.2872 11.9393 22.2875C11.9397 22.2876 11.9401 22.2875 11.9405 22.2876C11.9406 22.2876 11.9406 22.2876 11.9408 22.2876C11.9648 22.2912 11.9891 22.2937 12.0138 22.2937C12.014 22.2937 12.0141 22.2937 12.0143 22.2937C12.0143 22.2937 12.0144 22.2937 12.0144 22.2937H12.0145C12.0145 22.2937 12.0146 22.2937 12.0147 22.2937C12.0395 22.2937 12.0638 22.2912 12.0879 22.2876C12.0879 22.2876 12.088 22.2876 12.0881 22.2876C12.0885 22.2875 12.0889 22.2876 12.0893 22.2875C12.0914 22.2872 12.0937 22.2873 12.0958 22.287C12.0986 22.2865 12.1012 22.2857 12.1039 22.2852C12.1055 22.2849 12.107 22.2843 12.1087 22.284C12.1094 22.2838 12.11 22.2836 12.1107 22.2834C12.1158 22.2824 12.1207 22.2808 12.1257 22.2796C12.1382 22.2768 12.1506 22.274 12.1628 22.2702C12.1636 22.2699 12.1645 22.2698 12.1653 22.2696C12.1677 22.2688 12.1702 22.2685 12.1726 22.2677C12.1733 22.2675 12.1741 22.2674 12.1748 22.2672C12.1767 22.2666 12.1785 22.2658 12.1803 22.2651C12.1818 22.2645 12.1831 22.2638 12.1845 22.2633C12.1849 22.2631 12.1852 22.2629 12.1856 22.2628C12.1948 22.2594 12.2035 22.2549 12.2126 22.251C12.221 22.2474 12.2295 22.2441 12.2377 22.24C12.2397 22.239 12.2419 22.2384 12.2438 22.2374C12.2446 22.237 12.2455 22.2367 12.2463 22.2363C12.2474 22.2357 12.2486 22.2354 12.2497 22.2348C12.2512 22.234 12.2526 22.233 12.254 22.2323C12.254 22.2323 12.2541 22.2323 12.2541 22.2322C12.2565 22.2309 12.2587 22.2291 12.2611 22.2277C12.2778 22.2182 12.2941 22.2078 12.3097 22.1965C12.311 22.1956 12.3124 22.1949 12.3137 22.194C12.314 22.1937 12.3144 22.1936 12.3147 22.1933C12.3162 22.1921 12.318 22.1914 12.3195 22.1902L22.4868 14.4695C22.9498 14.1175 23.142 13.4979 22.9649 12.9278ZM18.5896 2.35855L20.5836 8.77533H16.5957L18.5896 2.35855ZM20.2344 9.86038L19.4207 10.9501L13.4198 18.9872L16.2584 9.86038H20.2344ZM11.5207 21.919C11.5213 21.9207 11.5221 21.9222 11.5226 21.9239C11.5221 21.9222 11.5213 21.9207 11.5207 21.919ZM10.6103 18.9877L3.79946 9.86038H7.77565L10.6103 18.9877ZM5.44056 2.35848L7.43822 8.77533H3.45032L5.44056 2.35848ZM2.15387 13.5921C2.05534 13.5171 2.01452 13.3849 2.05228 13.2634L2.92746 10.456L9.3402 19.0498L2.15387 13.5921ZM11.6913 22.176C11.6893 22.1743 11.6874 22.1724 11.6854 22.1707C11.685 22.1703 11.6846 22.1698 11.6842 22.1695C11.6803 22.1661 11.6765 22.1626 11.6727 22.1591C11.6653 22.1524 11.658 22.1455 11.651 22.1383C11.6516 22.1389 11.6523 22.1393 11.6529 22.1399C11.6536 22.1406 11.6545 22.1412 11.6553 22.142C11.6702 22.1569 11.6858 22.1709 11.7022 22.1838C11.7024 22.1839 11.7025 22.1841 11.7027 22.1842C11.7035 22.1849 11.7041 22.1856 11.7049 22.1863C11.7004 22.1829 11.6958 22.1796 11.6913 22.176ZM12.0147 19.9955L10.3467 14.6247L8.86706 9.86038H15.1669L12.0147 19.9955ZM12.3561 22.1591C12.3522 22.1626 12.3484 22.1662 12.3444 22.1696C12.344 22.17 12.3435 22.1705 12.3431 22.1709C12.3411 22.1726 12.3392 22.1744 12.3372 22.1761C12.3329 22.1797 12.3283 22.183 12.3238 22.1864C12.3246 22.1858 12.3252 22.185 12.326 22.1844C12.3262 22.1843 12.3263 22.1842 12.3264 22.184C12.3428 22.1711 12.3584 22.1573 12.3732 22.1424C12.3738 22.1418 12.3745 22.1413 12.3751 22.1408C12.3758 22.14 12.3767 22.1394 12.3774 22.1387C12.3705 22.1457 12.3633 22.1525 12.3561 22.1591ZM21.8764 13.5919L14.6911 19.0481L21.106 10.4567L21.9776 13.2629C22.0155 13.3849 21.9747 13.5171 21.8764 13.5919Z" fill="#231F20"/>
</svg>
