<svg xmlns="http://www.w3.org/2000/svg" width="24" height="24" viewBox="0 0 24 24">
  <path fill="#250088" d="M17.8291,2.12378 C17.682125,1.99512 17.47168,1.96387 17.293455,2.04468 C17.114745,2.12573 17,2.30371 17,2.5 L17,5 L10.41406,5 L5.706845,0.292785 C5.51938,0.10532 5.26512,0 5,0 L0.5,0 C0.22386,0 0,0.223855 0,0.5 L0,1.5 C0,1.776145 0.22386,2 0.5,2 L4.58594,2 L8.58594,6 L4.58594,10 L0.5,10 C0.22386,10 0,10.22386 0,10.5 L0,11.5 C0,11.77614 0.22386,12 0.5,12 L5,12 C5.26512,12 5.51938,11.89468 5.70685,11.707215 L10.41406,7 L17,7 L17,9.5 C17,9.69629 17.114745,9.87427 17.293455,9.95532 C17.359375,9.98535 17.430175,10 17.5,10 C17.61865,10 17.73633,9.95752 17.8291,9.87622 L21.8291,6.37622 C21.93799,6.28125 22,6.144285 22,6 C22,5.855715 21.93799,5.71875 21.8291,5.62378 L17.8291,2.12378 Z" transform="translate(1 6)"/>
</svg>
