<svg xmlns="http://www.w3.org/2000/svg" width="24" height="24" viewBox="0 0 24 24">
  <path fill="#080808" fill-rule="evenodd" d="M11,0.275 C4.95,0.275 0,5.225 0,11.275 C0,16.15625 3.1625,20.28125 7.49375,21.725 C8.04375,21.79375 8.25,21.51875 8.25,21.175 C8.25,20.9 8.25,20.2125 8.25,19.31875 C5.15625,20.00625 4.5375,17.875 4.5375,17.875 C4.05625,16.6375 3.3,16.29375 3.3,16.29375 C2.26875,15.60625 3.36875,15.60625 3.36875,15.60625 C4.46875,15.675 5.0875,16.70625 5.0875,16.70625 C6.05,18.35625 7.63125,17.875 8.31875,17.6 C8.3875,16.9125 8.73125,16.43125 9.00625,16.15625 C6.53125,15.88125 3.9875,14.91875 3.9875,10.725 C3.9875,9.55625 4.4,8.525 5.0875,7.76875 C4.95,7.49375 4.60625,6.39375 5.225,4.88125 C5.225,4.88125 6.11875,4.60625 8.25,5.98125 C9.14375,5.70625 10.0375,5.6375 11,5.6375 C11.9625,5.6375 12.85625,5.775 13.75,5.98125 C15.88125,4.5375 16.775,4.8125 16.775,4.8125 C17.39375,6.325 16.98125,7.425 16.9125,7.7 C17.6,8.45625 18.0125,9.41875 18.0125,10.65625 C18.0125,14.85 15.46875,15.8125 12.99375,16.0875 C13.40625,16.43125 13.75,17.11875 13.75,18.15 C13.75,19.59375 13.75,20.83125 13.75,21.175 C13.75,21.45 13.95625,21.79375 14.50625,21.725 C18.8375,20.28125 22,16.15625 22,11.275 C22,5.225 17.05,0.275 11,0.275 Z" transform="translate(1 1)"/>
</svg>
