<svg xmlns="http://www.w3.org/2000/svg" width="24" height="24" viewBox="0 0 24 24">
  <g transform="translate(1 1)">
    <path d="M1.55752846 10.9570732C1.55752846 14.6777561 3.71978862 17.8931545 6.85523577 19.416878L2.37134959 7.13157724C1.84978862 8.30061789 1.55752846 9.5943252 1.55752846 10.9570732zM17.3030894 10.4827317C17.3030894 9.32102439 16.8858049 8.51650407 16.5279024 7.89030894 16.0514146 7.11601626 15.6047967 6.46030894 15.6047967 5.68601626 15.6047967 4.82193496 16.2601463 4.0175935 17.183252 4.0175935 17.2249268 4.0175935 17.2644553 4.02278049 17.3050569 4.02510569 15.6326992 2.49297561 13.4046179 1.55752846 10.9574309 1.55752846 7.67352846 1.55752846 4.78437398 3.2424065 3.10360976 5.7944065 3.32414634 5.80102439 3.53198374 5.8056748 3.70852033 5.8056748 4.69172358 5.8056748 6.21365854 5.68637398 6.21365854 5.68637398 6.72037398 5.65650407 6.78011382 6.40074797 6.27393496 6.46066667 6.27393496 6.46066667 5.76471545 6.52058537 5.1980813 6.55027642L8.62113821 16.7319837 10.6782276 10.5625041 9.21370732 6.5499187C8.70752846 6.52022764 8.228 6.46030894 8.228 6.46030894 7.72146341 6.43061789 7.78084553 5.65614634 8.28738211 5.68601626 8.28738211 5.68601626 9.83972358 5.80531707 10.7633659 5.80531707 11.7463902 5.80531707 13.2685041 5.68601626 13.2685041 5.68601626 13.7755772 5.65614634 13.8351382 6.40039024 13.3287805 6.46030894 13.3287805 6.46030894 12.8184878 6.52022764 12.2529268 6.5499187L15.6498699 16.6545366 16.5874634 13.5214146C16.9938374 12.2212683 17.3030894 11.2874309 17.3030894 10.4827317z"/>
    <path d="M11.1223415 11.7793008L8.30204878 19.9745691C9.14413008 20.2221138 10.0346829 20.3575122 10.9574309 20.3575122 12.052065 20.3575122 13.1018049 20.1682764 14.0789268 19.8246829 14.0537073 19.784439 14.030813 19.7416911 14.0120325 19.695187L11.1223415 11.7793008zM19.2054634 6.44725203C19.2458862 6.74666667 19.2687805 7.0680813 19.2687805 7.41382114 19.2687805 8.36769106 19.0906341 9.43996748 18.5540488 10.7807154L15.6827805 19.0822276C18.4773171 17.4526179 20.3569757 14.4250244 20.3569757 10.957252 20.3571545 9.32299187 19.9396911 7.78621138 19.2054634 6.44725203z"/>
    <path d="M10.9574309,0 C4.91565854,0 0,4.91530081 0,10.9570732 C0,16.999561 4.91565854,21.9146829 10.9574309,21.9146829 C16.9990244,21.9146829 21.9153984,16.999561 21.9153984,10.9570732 C21.9153984,4.91530081 16.9990244,0 10.9574309,0 Z M10.9574309,21.412439 C5.19271545,21.412439 0.502422764,16.7221463 0.502422764,10.9570732 C0.502422764,5.19235772 5.19253659,0.502422764 10.9574309,0.502422764 C16.7219675,0.502422764 21.4119024,5.19235772 21.4119024,10.9570732 C21.4119024,16.7221463 16.7219675,21.412439 10.9574309,21.412439 Z"/>
  </g>
</svg>
