<svg xmlns="http://www.w3.org/2000/svg" width="24" height="24" viewBox="0 0 24 24">
  <path fill="#111" fill-rule="evenodd" d="M7.51278623,16.4872138 C7.77905279,16.7534803 7.80325884,17.170144 7.58540438,17.4637555 L7.51278623,17.5478739 L1.72331254,23.3373476 C1.43041932,23.6302408 0.955545589,23.6302408 0.66265237,23.3373476 C0.396385808,23.0710811 0.372179757,22.6544174 0.590034217,22.3608059 L0.66265237,22.2766875 L6.45212605,16.4872138 C6.74501927,16.1943206 7.21989301,16.1943206 7.51278623,16.4872138 Z M15.533931,0.590034217 L15.6180494,0.66265237 L23.3373476,8.38195062 C23.6302408,8.67484383 23.6302408,9.14971757 23.3373476,9.44261079 C23.0710811,9.70887735 22.6544174,9.7330834 22.3608059,9.51522894 L22.2766875,9.44261079 L21.3989825,8.56498246 L14.4949825,19.6099825 L16.3899792,21.5047576 C16.6828724,21.7976509 16.6828724,22.2725246 16.3899792,22.5654178 C16.1237126,22.8316844 15.707049,22.8558904 15.4134375,22.638036 L15.329319,22.5654178 L1.43458219,8.67068096 C1.14168898,8.37778774 1.14168898,7.90291401 1.43458219,7.61002079 C1.70084876,7.34375423 2.11751244,7.31954818 2.41112393,7.53740264 L2.49524237,7.61002079 L4.38898246,9.50398246 L15.4339825,2.59998246 L14.5573892,1.72331254 C14.264496,1.43041932 14.264496,0.955545589 14.5573892,0.66265237 C14.8236558,0.396385808 15.2403195,0.372179757 15.533931,0.590034217 Z"/>
</svg>
