<svg xmlns="http://www.w3.org/2000/svg" width="24" height="24" viewBox="0 0 24 24">
  <path fill="#111" d="M7.33415618,6.48902015 L0.615023835,7.46557129 L0.514914488,7.48708565 C0.00123495613,7.63507735 -0.183315712,8.29861743 0.217443318,8.68923726 L5.07867792,13.4285854 L3.93187018,20.1213737 L3.92160419,20.2176578 C3.89941498,20.7548324 4.47567937,21.1389566 4.9727436,20.8776571 L10.9832866,17.7166723 L16.9938296,20.8776571 L17.0822311,20.9171691 C17.5862681,21.1042401 18.1296434,20.6748505 18.034703,20.1213737 L16.8869388,13.4285854 L21.7491299,8.68923726 L21.8174757,8.61299025 C22.1460717,8.19133535 21.9053693,7.54603948 21.3515494,7.46557129 L14.6314605,6.48902015 L11.6266069,0.399917926 C11.3634651,-0.133305975 10.6031081,-0.133305975 10.3399664,0.399917926 L7.33415618,6.48902015 Z" transform="translate(1 1)"/>
</svg>
