<svg xmlns="http://www.w3.org/2000/svg" width="24" height="24" viewBox="0 0 24 24">
  <g fill="#111" transform="translate(1 1)">
    <path d="M10.428 5.984C10.56 6.248 10.868 6.38 11.176 6.292 11.572 6.204 11.968 6.16 12.32 6.16 14.476 6.16 16.368 7.612 16.984 9.636 17.072 9.9 17.336 10.12 17.6 10.12L20.328 10.12C20.504 10.12 20.724 10.032 20.856 9.9 20.988 9.768 21.032 9.548 20.988 9.372 20.724 7.92 20.064 6.556 19.14 5.412 18.964 5.236 18.7 5.148 18.48 5.192 18.172 5.236 17.864 5.28 17.6 5.28 16.06 5.28 14.696 4.268 14.212 2.772 14.124 2.508 13.948 2.332 13.684 2.332 13.2 2.244 12.76 2.2 12.32 2.2 11.352 2.2 10.384 2.376 9.46 2.684 9.24 2.772 9.108 2.904 9.02 3.08 8.932 3.256 8.976 3.476 9.064 3.652L10.428 5.984zM20.328 11.88L17.6 11.88C17.292 11.88 17.028 12.056 16.984 12.364 16.368 14.388 14.476 15.84 12.32 15.84 11.968 15.84 11.572 15.796 11.176 15.708 10.912 15.62 10.604 15.752 10.428 16.016L9.064 18.348C8.976 18.524 8.932 18.744 9.02 18.92 9.108 19.096 9.24 19.228 9.416 19.316 10.34 19.624 11.308 19.8 12.276 19.8 12.716 19.8 13.156 19.756 13.64 19.668 13.904 19.624 14.08 19.448 14.168 19.228 14.608 17.776 16.016 16.72 17.556 16.72 17.82 16.72 18.128 16.764 18.392 16.808 18.656 16.852 18.876 16.764 19.052 16.588 19.976 15.444 20.636 14.08 20.9 12.628 20.944 12.452 20.9 12.232 20.768 12.1 20.636 11.968 20.504 11.88 20.328 11.88zM8.844 14.344C7.964 13.42 7.48 12.232 7.48 11 7.48 9.768 7.964 8.58 8.844 7.656 9.064 7.436 9.064 7.128 8.932 6.864L7.568 4.532C7.48 4.356 7.304 4.224 7.084 4.224 6.908 4.18 6.688 4.268 6.556 4.356 5.456 5.28 4.62 6.512 4.092 7.832 4.004 8.096 4.048 8.36 4.224 8.536 4.884 9.196 5.236 10.076 5.236 11 5.236 11.924 4.884 12.804 4.224 13.464 4.048 13.64 4.004 13.904 4.092 14.168 4.62 15.488 5.456 16.676 6.556 17.644 6.688 17.732 6.82 17.82 6.996 17.82 7.04 17.82 7.084 17.82 7.084 17.82 7.26 17.776 7.436 17.688 7.568 17.512L8.932 15.18C9.064 14.872 9.02 14.564 8.844 14.344z"/>
    <circle cx="1.76" cy="11" r="1.76"/>
    <circle cx="17.6" cy="20.24" r="1.76"/>
    <circle cx="17.6" cy="1.76" r="1.76"/>
  </g>
</svg>
