<svg xmlns="http://www.w3.org/2000/svg" width="24" height="24" viewBox="0 0 24 24">
  <path fill="#111" d="M11,0 C4.93441667,0 0,4.93441667 0,11 C0,17.0655833 4.93441667,22 11,22 C17.0655833,22 22,17.0655833 22,11 C22,4.93441667 17.0655833,0 11,0 Z M12.5079167,4.58333333 L11.9166667,12.8333333 L10.0833333,12.8333333 L9.526,4.58333333 L12.5079167,4.58333333 Z M11,18.3333333 C9.98708333,18.3333333 9.16666667,17.5129167 9.16666667,16.5 C9.16666667,15.4870833 9.98708333,14.6666667 11,14.6666667 C12.0129167,14.6666667 12.8333333,15.4870833 12.8333333,16.5 C12.8333333,17.5129167 12.0129167,18.3333333 11,18.3333333 Z" transform="translate(1 1)"/>
</svg>
