<svg width="19" height="22" viewBox="0 0 24 24" xmlns="http://www.w3.org/2000/svg">
    <path
        d="M17.2174 22H0.956522C0.428044 22 0 21.572 0 21.0435V0.956522C0 0.428043 0.428044 0 0.956522 0H17.2174C17.7459 0 18.1739 0.428043 18.1739 0.956522V21.0435C18.1739 21.572 17.7459 22 17.2174 22Z"
        fill="#111" />
    <path d="M11.4783 0H6.69565V10.5217H11.4783V0Z" fill="#fff" />
    <path d="M10.5217 0H9.08694V0.956522H10.5217V0Z" fill="#fff" />
    <path d="M9.08694 0.956528H7.65216V1.91305H9.08694V0.956528Z" fill="#fff" />
    <path d="M10.5217 1.91304H9.08694V2.86956H10.5217V1.91304Z" fill="#fff" />
    <path d="M9.08694 2.86957H7.65216V3.82609H9.08694V2.86957Z" fill="#fff" />
    <path d="M10.5217 3.82608H9.08694V4.7826H10.5217V3.82608Z" fill="#fff" />
    <path d="M9.08694 4.78261H7.65216V5.73913H9.08694V4.78261Z" fill="#fff" />
    <path d="M10.5217 5.73914H9.08694V6.69566H10.5217V5.73914Z" fill="#fff" />
    <path d="M9.08694 6.69565H7.65216V7.65217H9.08694V6.69565Z" fill="#fff" />
    <path d="M10.5217 7.65218H9.08694V8.6087H10.5217V7.65218Z" fill="#fff" />
    <path d="M9.08694 8.6087H7.65216V9.56523H9.08694V8.6087Z" fill="#fff" />
    <path
        d="M7.65216 10.5217V12.913C7.65216 13.7055 8.29447 14.3478 9.08694 14.3478C9.87942 14.3478 10.5217 13.7055 10.5217 12.913V10.5217H7.65216ZM9.5652 12.913H8.60868V11.9565H9.5652V12.913Z"
        fill="#fff" />
</svg>