<svg xmlns="http://www.w3.org/2000/svg" width="24" height="24" viewBox="0 0 24 24">
  <path fill="#111" d="M17.421527,2.9580203e-14 C19.9308208,2.9580203e-14 21.9650053,2.03418451 21.9650053,4.54347826 L21.9650053,4.54347826 L21.9650053,17.421527 C21.9650053,19.9308208 19.9308208,21.9650053 17.421527,21.9650053 L17.421527,21.9650053 L4.54347826,21.9650053 C2.03418451,21.9650053 2.9580203e-14,19.9308208 2.9580203e-14,17.421527 L2.9580203e-14,17.421527 L2.9580203e-14,4.54347826 C2.9580203e-14,2.03418451 2.03418451,2.9580203e-14 4.54347826,2.9580203e-14 L4.54347826,2.9580203e-14 Z M1.43478261,17.421527 C1.43478261,19.1384122 2.82659306,20.5302227 4.54347826,20.5302227 L4.54347826,20.5302227 L17.421527,20.5302227 C19.1384122,20.5302227 20.5302227,19.1384122 20.5302227,17.421527 L20.5302227,17.421527 L20.53,13.752 L15.8052853,13.7525896 L15.8059385,16.1150583 C15.8059385,16.4782456 15.5360522,16.7783975 15.1858929,16.8259007 L15.0885472,16.8324496 L6.87645811,16.8324496 C6.51327086,16.8324496 6.21311893,16.5625633 6.16561575,16.2124041 L6.15906681,16.1150583 L6.15876352,13.7525896 L1.434,13.752 Z M17.421527,1.43478261 L4.54347826,1.43478261 C2.82659306,1.43478261 1.43478261,2.82659306 1.43478261,4.54347826 L1.43478261,4.54347826 L1.434,12.318 L6.87645811,12.3181336 C7.23964537,12.3181336 7.53979729,12.5880199 7.58730048,12.9381792 L7.59384942,13.0355249 L7.59354613,15.3968505 L14.3705027,15.3968505 L14.3711559,13.0355249 C14.3711559,12.6723377 14.6410422,12.3721857 14.9912014,12.3246826 L15.0885472,12.3181336 L20.53,12.318 L20.5302227,4.54347826 C20.5302227,2.885796 19.2327442,1.53115607 17.5979325,1.43970371 L17.421527,1.43478261 Z M17.1415695,8.21208908 C17.5377737,8.21208908 17.8589608,8.5332761 17.8589608,8.92948038 C17.8589608,9.29266764 17.5890744,9.59281956 17.2389152,9.64032275 L17.1415695,9.64687169 L4.82343584,9.64687169 C4.42723157,9.64687169 4.10604454,9.32568466 4.10604454,8.92948038 C4.10604454,8.56629313 4.37593086,8.2661412 4.72609009,8.21863801 L4.82343584,8.21208908 L17.1415695,8.21208908 Z M17.1415695,4.10604454 C17.5377737,4.10604454 17.8589608,4.42723157 17.8589608,4.82343584 C17.8589608,5.1866231 17.5890744,5.48677502 17.2389152,5.53427821 L17.1415695,5.54082715 L4.82343584,5.54082715 C4.42723157,5.54082715 4.10604454,5.21964012 4.10604454,4.82343584 C4.10604454,4.46024859 4.37593086,4.16009666 4.72609009,4.11259348 L4.82343584,4.10604454 L17.1415695,4.10604454 Z" transform="translate(1 1)"/>
</svg>
