<svg xmlns="http://www.w3.org/2000/svg" width="24" height="24" viewBox="0 0 24 24">
  <path fill="#111" d="M17.4166667,0 C19.9479718,0 22,2.05202823 22,4.58333333 L22,17.4166667 C22,19.9479718 19.9479718,22 17.4166667,22 L4.58333333,22 C2.05202823,22 0,19.9479718 0,17.4166667 L0,4.58333333 C0,2.05202823 2.05202823,0 4.58333333,0 L17.4166667,0 Z M17.4166667,1.375 L4.58333333,1.375 C2.87048355,1.375 1.47113409,2.71725447 1.37974729,4.40730106 L1.375,4.58333333 L1.375,17.4166667 C1.375,19.1295165 2.71725447,20.5288659 4.40730106,20.6202527 L4.58333333,20.625 L17.4166667,20.625 C19.1295165,20.625 20.5288659,19.2827455 20.6202527,17.5926989 L20.625,17.4166667 L20.625,4.58333333 C20.625,2.87048355 19.2827455,1.47113409 17.5926989,1.37974729 L17.4166667,1.375 Z M7.390625,11.515625 C9.09925594,11.515625 10.484375,12.9007441 10.484375,14.609375 C10.484375,16.3180059 9.09925594,17.703125 7.390625,17.703125 C5.68199406,17.703125 4.296875,16.3180059 4.296875,14.609375 C4.296875,12.9007441 5.68199406,11.515625 7.390625,11.515625 Z M14.609375,11.515625 C16.3180059,11.515625 17.703125,12.9007441 17.703125,14.609375 C17.703125,16.3180059 16.3180059,17.703125 14.609375,17.703125 C12.9007441,17.703125 11.515625,16.3180059 11.515625,14.609375 C11.515625,12.9007441 12.9007441,11.515625 14.609375,11.515625 Z M7.390625,12.890625 C6.44138559,12.890625 5.671875,13.6601356 5.671875,14.609375 C5.671875,15.5586144 6.44138559,16.328125 7.390625,16.328125 C8.33986441,16.328125 9.109375,15.5586144 9.109375,14.609375 C9.109375,13.6601356 8.33986441,12.890625 7.390625,12.890625 Z M14.609375,12.890625 C13.6601356,12.890625 12.890625,13.6601356 12.890625,14.609375 C12.890625,15.5586144 13.6601356,16.328125 14.609375,16.328125 C15.5586144,16.328125 16.328125,15.5586144 16.328125,14.609375 C16.328125,13.6601356 15.5586144,12.890625 14.609375,12.890625 Z M7.390625,4.296875 C9.09925594,4.296875 10.484375,5.68199406 10.484375,7.390625 C10.484375,9.09925594 9.09925594,10.484375 7.390625,10.484375 C5.68199406,10.484375 4.296875,9.09925594 4.296875,7.390625 C4.296875,5.68199406 5.68199406,4.296875 7.390625,4.296875 Z M14.609375,4.296875 C16.3180059,4.296875 17.703125,5.68199406 17.703125,7.390625 C17.703125,9.09925594 16.3180059,10.484375 14.609375,10.484375 C12.9007441,10.484375 11.515625,9.09925594 11.515625,7.390625 C11.515625,5.68199406 12.9007441,4.296875 14.609375,4.296875 Z M7.390625,5.671875 C6.44138559,5.671875 5.671875,6.44138559 5.671875,7.390625 C5.671875,8.33986441 6.44138559,9.109375 7.390625,9.109375 C8.33986441,9.109375 9.109375,8.33986441 9.109375,7.390625 C9.109375,6.44138559 8.33986441,5.671875 7.390625,5.671875 Z M14.609375,5.671875 C13.6601356,5.671875 12.890625,6.44138559 12.890625,7.390625 C12.890625,8.33986441 13.6601356,9.109375 14.609375,9.109375 C15.5586144,9.109375 16.328125,8.33986441 16.328125,7.390625 C16.328125,6.44138559 15.5586144,5.671875 14.609375,5.671875 Z" transform="translate(1 1)"/>
</svg>
