<svg xmlns="http://www.w3.org/2000/svg" width="24" height="24" viewBox="0 0 24 24">
  <path fill="#111" d="M13.9810322,0.999045149 C18.3210531,2.29235264 21.3221485,6.23162754 21.4350318,10.7393247 L21.4383289,11 L21.4383289,12.4005305 C21.4383289,14.2980022 19.9001242,15.8362069 18.0026525,15.8362069 C16.6296681,15.8362069 15.4447876,15.0308382 14.8946554,13.866745 C14.0154483,15.0609099 12.5982643,15.8362069 11,15.8362069 C8.32903668,15.8362069 6.1637931,13.6709633 6.1637931,11 C6.1637931,8.32903668 8.32903668,6.1637931 11,6.1637931 C12.4125474,6.1637931 13.6836523,6.76938073 14.56785,7.7350914 L14.5669761,6.79840849 C14.5669761,6.44792009 14.8511031,6.1637931 15.2015915,6.1637931 C15.5228725,6.1637931 15.7883916,6.4025387 15.8304136,6.71229494 L15.8362069,6.79840849 L15.8362069,12.4005305 C15.8362069,13.5970254 16.8061576,14.5669761 18.0026525,14.5669761 C19.1512876,14.5669761 20.0911396,13.6730695 20.16449,12.5429749 L20.1690981,12.4005305 L20.1690982,11.0001717 C20.1680012,6.94569963 17.5041757,3.37331379 13.6185587,2.21541669 C9.73294173,1.0575196 5.54817029,2.5890531 3.32790324,5.98156828 C1.1076362,9.37408346 1.3790744,13.82203 3.9953894,16.9193903 C6.6117044,20.0167506 10.951654,21.0280586 14.6676393,19.4062699 C14.9888672,19.2660745 15.3629247,19.4128304 15.50312,19.7340584 C15.6433154,20.0552863 15.4965595,20.4293438 15.1753315,20.5695391 C10.9449617,22.4158237 6.00425532,21.2645255 3.02577738,17.7384136 C0.0472994441,14.2123018 -0.261712541,9.14864909 2.26589457,5.2865256 C4.79350169,1.42440211 9.55754936,-0.319133644 13.9810322,0.999045149 Z M11,7.43302387 C9.03001348,7.43302387 7.43302387,9.03001348 7.43302387,11 C7.43302387,12.9699865 9.03001348,14.5669761 11,14.5669761 C12.9699865,14.5669761 14.5669761,12.9699865 14.5669761,11 C14.5669761,9.03001348 12.9699865,7.43302387 11,7.43302387 Z" transform="translate(1 1)"/>
</svg>
