<svg xmlns="http://www.w3.org/2000/svg" width="24" height="24" viewBox="0 0 24 24">
  <path fill="#111" d="M14.029545,0.147051761 L14.1136634,0.219669914 L21.4469968,7.55300325 C21.4730533,7.57905983 21.4972016,7.60702478 21.5192138,7.63667045 L21.4469968,7.55300325 C21.4823266,7.58833311 21.5133949,7.62631081 21.5402015,7.66629756 C21.5541833,7.68721698 21.5676624,7.70972001 21.5799573,7.73294636 C21.5863029,7.74486135 21.5920702,7.75652121 21.5975159,7.7682932 C21.6071329,7.78906483 21.6160045,7.81077663 21.6238611,7.83296833 C21.6281609,7.84522757 21.6321794,7.85762842 21.6358668,7.8701063 C21.6434434,7.89557248 21.6495636,7.92114186 21.654339,7.9471815 C21.6561337,7.95727758 21.6578233,7.96768396 21.6592931,7.97811536 C21.6641899,8.01276289 21.6666667,8.04775887 21.6666667,8.08333333 C21.6666667,8.12176552 21.663776,8.15952254 21.6582001,8.19639884 C21.6563497,8.20826901 21.6542106,8.22039377 21.6517722,8.2324701 C21.6467771,8.25746923 21.6406236,8.28153146 21.6333398,8.30509729 C21.6298682,8.31620496 21.6260473,8.32762795 21.6219441,8.33897179 C21.6137435,8.36165509 21.6045139,8.38369927 21.5942928,8.40518063 C21.5881662,8.41815781 21.5815197,8.43116616 21.5744688,8.44401172 C21.5614877,8.46749711 21.5475245,8.48996278 21.5324504,8.51159669 C21.5285292,8.51733842 21.5241239,8.52346806 21.5196149,8.52954499 C21.5138117,8.53719019 21.5121093,8.53941802 21.5103947,8.54163598 L21.4469968,8.61366342 L14.1136634,15.9469968 C13.8207702,16.23989 13.3458965,16.23989 13.0530032,15.9469968 C12.7867367,15.6807302 12.7625306,15.2640665 12.9803851,14.970455 L13.0530032,14.8863366 L19.106,8.833 L0.75,8.83333333 C0.335786438,8.83333333 7.81597009e-14,8.4975469 7.81597009e-14,8.08333333 C7.81597009e-14,7.70363757 0.282153882,7.38984237 0.648229443,7.34017995 L0.75,7.33333333 L19.106,7.333 L13.0530032,1.28033009 C12.7867367,1.01406352 12.7625306,0.597399841 12.9803851,0.303788347 L13.0530032,0.219669914 C13.3192698,-0.0465966484 13.7359335,-0.0708026996 14.029545,0.147051761 Z" transform="matrix(-1 0 0 1 23 4)"/>
</svg>
