<svg xmlns="http://www.w3.org/2000/svg" width="24" height="24" viewBox="0 0 24 24">
  <path fill="#111" d="M12.2573633,2.71528752 C12.6535675,2.71528752 12.9747546,3.03647454 12.9747546,3.43267882 C12.9747546,3.79586608 12.7048682,4.096018 12.354709,4.14352119 L12.2573633,4.15007013 L1.43398036,4.14954558 L1.433,15.612 L17.648,15.612 L17.6493689,9.54207574 C17.6493689,9.17888848 17.9192552,8.87873656 18.2694144,8.83123337 L18.3667602,8.82468443 C18.7299474,8.82468443 19.0300993,9.09457075 19.0776025,9.44472999 L19.0841515,9.54207574 L19.0841515,21.0820477 C19.0841515,21.4452349 18.8142652,21.7453869 18.4641059,21.7928901 L18.3667602,21.799439 L0.717391304,21.799439 C0.35420405,21.799439 0.0540521243,21.5295527 0.00654893704,21.1793934 L5.94693377e-15,21.0820477 L5.94693377e-15,3.43267882 C5.94693377e-15,3.06949157 0.269886322,2.76933964 0.620045554,2.72183645 L0.717391304,2.71528752 L12.2573633,2.71528752 Z M17.648,17.047 L1.433,17.047 L1.43398036,20.3645021 L17.6489369,20.3645021 L17.648,17.047 Z M18.3667602,5.5318069e-14 C18.7299474,5.5318069e-14 19.0300993,0.269886322 19.0776025,0.620045554 L19.0841515,0.717391304 L19.084,2.715 L21.0820477,2.71528752 C21.478252,2.71528752 21.799439,3.03647454 21.799439,3.43267882 C21.799439,3.79586608 21.5295527,4.096018 21.1793934,4.14352119 L21.0820477,4.15007013 L19.084,4.15 L19.0841515,6.14796634 C19.0841515,6.54417062 18.7629644,6.86535764 18.3667602,6.86535764 C18.0035729,6.86535764 17.703421,6.59547132 17.6559178,6.24531209 L17.6493689,6.14796634 L17.649,4.15 L15.6514727,4.15007013 C15.2552684,4.15007013 14.9340813,3.8288831 14.9340813,3.43267882 C14.9340813,3.06949157 15.2039677,2.76933964 15.5541269,2.72183645 L15.6514727,2.71528752 L17.649,2.715 L17.6493689,0.717391304 C17.6493689,0.321187027 17.9705559,5.5318069e-14 18.3667602,5.5318069e-14 Z" transform="translate(1 1)"/>
</svg>
