<svg xmlns="http://www.w3.org/2000/svg" width="24" height="24" viewBox="0 0 24 24">
  <path fill="#111" d="M20.6449275,6.17481884 C21.0246233,6.17481884 21.3324275,6.48262308 21.3324275,6.86231884 L21.3324275,6.86231884 L21.3324275,20.8913043 C21.3324275,21.2710001 21.0246233,21.5788043 20.6449275,21.5788043 L20.6449275,21.5788043 L1.35507246,21.5788043 C0.975376698,21.5788043 0.667572464,21.2710001 0.667572464,20.8913043 L0.667572464,20.8913043 L0.667572464,6.86231884 C0.667572464,6.48262308 0.975376698,6.17481884 1.35507246,6.17481884 L1.35507246,6.17481884 Z M19.95675,7.5495 L2.04233333,7.5495 L2.04233333,20.2031667 L19.95675,20.2031667 L19.95675,7.5495 Z M11,10.5588768 C12.8324448,10.5588768 14.3179348,12.0443668 14.3179348,13.8768116 C14.3179348,15.7092564 12.8324448,17.1947464 11,17.1947464 C9.16755522,17.1947464 7.68206522,15.7092564 7.68206522,13.8768116 C7.68206522,12.0443668 9.16755522,10.5588768 11,10.5588768 Z M11,11.9338768 C9.92694675,11.9338768 9.05706522,12.8037583 9.05706522,13.8768116 C9.05706522,14.9498648 9.92694675,15.8197464 11,15.8197464 C12.0730533,15.8197464 12.9429348,14.9498648 12.9429348,13.8768116 C12.9429348,12.8037583 12.0730533,11.9338768 11,11.9338768 Z M18.8913043,0.667572464 C19.2710001,0.667572464 19.5788043,0.975376698 19.5788043,1.35507246 C19.5788043,1.70312692 19.3201633,1.99077251 18.984594,2.0362964 L18.8913043,2.04257246 L3.10869565,2.04257246 C2.72899989,2.04257246 2.42119565,1.73476823 2.42119565,1.35507246 C2.42119565,1.00701801 2.67983671,0.719372416 3.01540597,0.673848528 L3.10869565,0.667572464 L18.8913043,0.667572464 Z" transform="translate(1 1)"/>
</svg>
