<svg xmlns="http://www.w3.org/2000/svg" width="24" height="24" viewBox="0 0 24 24">
  <path fill="#111" d="M19.9375,0 C21.0761958,0 22,0.923804234 22,2.0625 L22,2.0625 L22,19.9375 C22,21.0761958 21.0761958,22 19.9375,22 L19.9375,22 L2.0625,22 C0.923804234,22 0,21.0761958 0,19.9375 L0,19.9375 L0,2.0625 C0,0.923804234 0.923804234,0 2.0625,0 L2.0625,0 Z M19.9375,1.375 L2.0625,1.375 C1.68319577,1.375 1.375,1.68319577 1.375,2.0625 L1.375,2.0625 L1.375,19.9375 C1.375,20.3168042 1.68319577,20.625 2.0625,20.625 L2.0625,20.625 L19.9375,20.625 C20.3168042,20.625 20.625,20.3168042 20.625,19.9375 L20.625,19.9375 L20.625,2.0625 C20.625,1.68319577 20.3168042,1.375 19.9375,1.375 L19.9375,1.375 Z M17.4951958,4.19749107 L17.5244657,4.21310212 C17.5414283,4.22265854 17.5579445,4.23291417 17.5739751,4.24382991 C17.5880153,4.25331928 17.6018785,4.26353497 17.6154282,4.27433662 C17.6302457,4.28618643 17.6444689,4.29849932 17.6581646,4.31136727 C17.6634691,4.31635153 17.6685821,4.32131024 17.6736359,4.32636409 L17.6898534,4.343138 C17.7051408,4.35949303 17.7196388,4.37659519 17.7332868,4.39438377 L17.6736359,4.32636409 C17.7039292,4.35665742 17.7308046,4.38907443 17.7542619,4.42313588 C17.7668884,4.44156297 17.7788462,4.46088816 17.7898437,4.48081745 C17.7969591,4.49363005 17.8034862,4.50642724 17.8095867,4.51937554 C17.8172535,4.53566774 17.8243765,4.55244163 17.8308373,4.56954062 C17.8361656,4.58373809 17.8409543,4.59784057 17.8452726,4.61205536 C17.8508063,4.63005558 17.8556271,4.64861984 17.8596751,4.66747106 C17.8631633,4.68405837 17.866023,4.70023644 17.8683014,4.71648037 C17.8684429,4.71715654 17.8685846,4.71818307 17.8687239,4.71921032 L17.875,4.8125 L17.875,11.6875 C17.875,12.0671958 17.5671958,12.375 17.1875,12.375 C16.8394455,12.375 16.5518,12.1163589 16.5062761,11.7807897 L16.5,11.6875 L16.5,6.471 L9.42363591,13.5486359 C9.15515046,13.8171214 8.71984954,13.8171214 8.45136409,13.5486359 C8.20728641,13.3045582 8.18509753,12.9226165 8.38479745,12.6534727 L8.45136409,12.5763641 L15.527,5.5 L10.3125,5.5 C9.96444555,5.5 9.67679995,5.24135894 9.63127606,4.90578968 L9.625,4.8125 C9.625,4.46444555 9.88364106,4.17679995 10.2192103,4.13127606 L10.3125,4.125 L17.1875,4.125 C17.2919163,4.125 17.3908959,4.1482777 17.4795324,4.18992684 L17.4951958,4.19749107 L17.4951958,4.19749107 Z" transform="translate(1 1)"/>
</svg>
