<svg xmlns="http://www.w3.org/2000/svg" width="24" height="24" viewBox="0 0 24 24">
  <path fill="#111" d="M13.700694,0.822297447 L13.7778026,0.888864088 L17.4444692,4.55553075 L17.4572695,4.5686751 C17.4727578,4.58500754 17.4874527,4.60209985 17.5012924,4.6198903 L17.4444692,4.55553075 C17.4750511,4.58611259 17.5021495,4.61885875 17.5257645,4.65327618 C17.5394829,4.67340502 17.5520326,4.69394286 17.5634999,4.71515177 C17.5683534,4.72404288 17.5728761,4.73288102 17.5771949,4.74179309 C17.5875477,4.76316333 17.596965,4.78544195 17.605207,4.80828236 C17.6090785,4.81912961 17.6125658,4.82963114 17.615793,4.84019507 C17.6325874,4.89485638 17.6427162,4.95262934 17.6452205,5.01237317 C17.6477606,5.07337575 17.6423235,5.1342205 17.6289195,5.19363064 C17.6245142,5.21343423 17.6191828,5.23294336 17.613035,5.25208669 C17.6103961,5.26017429 17.6077521,5.26793113 17.6049655,5.27564808 C17.5957671,5.30115598 17.5849996,5.32611526 17.5728509,5.35026018 C17.5684104,5.35917933 17.5637646,5.36794523 17.5589159,5.37662832 C17.5473318,5.39724428 17.5347794,5.41720209 17.5212663,5.43643594 C17.5180477,5.44111445 17.5145767,5.44592196 17.5110359,5.45069402 L17.4963688,5.46969746 C17.4828971,5.48660892 17.4686449,5.50287094 17.4536666,5.518429 L17.4444692,5.52780258 L13.7778026,9.19446925 C13.5093171,9.4629547 13.0740162,9.4629547 12.8055308,9.19446925 C12.5614531,8.95039156 12.5392642,8.56844985 12.7389641,8.29930598 L12.8055308,8.22219742 L15.2985,5.7285 L9.625,5.72916667 C8.03638783,5.72916667 6.73819123,6.97258353 6.65054939,8.53927809 L6.64583333,8.70833333 L6.6455,13.5205 L18.9645,13.5205 L16.4721974,11.0278026 C16.2281197,10.7837249 16.2059309,10.4017832 16.4056308,10.1326393 L16.4721974,10.0555308 C16.7162751,9.81145307 17.0982168,9.78926419 17.3673607,9.98896411 L17.4444692,10.0555308 L21.1111359,13.7221974 L21.1229639,13.7343186 C21.1398427,13.7520448 21.1557848,13.7706711 21.1707108,13.7901181 L21.1111359,13.7221974 C21.1411104,13.7521719 21.1677384,13.7842255 21.19102,13.8178941 C21.2053432,13.8386752 21.218928,13.8608587 21.2312462,13.8838232 C21.235791,13.8922195 21.2399115,13.9003087 21.2438616,13.9084598 C21.2548359,13.9311087 21.2647405,13.9547432 21.2733221,13.9790031 C21.2766507,13.9885366 21.2796597,13.9976943 21.2824712,14.0068994 C21.3019864,14.0704418 21.3125,14.1381598 21.3125,14.2083333 C21.3125,14.2809708 21.3012352,14.3509772 21.2803572,14.4167009 C21.2767564,14.4279568 21.2726765,14.439742 21.2682669,14.4514313 C21.2599997,14.4732654 21.2510034,14.4938296 21.2410607,14.5138406 C21.235191,14.5257897 21.2285003,14.5383256 21.2213938,14.5506878 C21.2113628,14.5679727 21.2010523,14.584228 21.1900983,14.6000026 C21.1861892,14.6057324 21.1819972,14.6115726 21.1777026,14.6173607 L21.1582999,14.6422426 C21.1483051,14.6545119 21.1378954,14.6664297 21.1270921,14.6779747 L21.1111359,14.6944692 L17.4444692,18.3611359 C17.1759838,18.6296214 16.7406829,18.6296214 16.4721974,18.3611359 C16.2281197,18.1170582 16.2059309,17.7351165 16.4056308,17.4659727 L16.4721974,17.3888641 L18.9635,14.8955 L1.375,14.8958333 C0.995304234,14.8958333 0.6875,14.5880291 0.6875,14.2083333 C0.6875,13.8602789 0.946141058,13.5726333 1.28171032,13.5271094 L1.375,13.5208333 L5.2705,13.5205 L5.27083333,8.70833333 C5.27083333,6.37039181 7.11346285,4.46281948 9.425691,4.3586472 L9.625,4.35416667 L15.2975,4.3535 L12.8055308,1.86113591 C12.5614531,1.61705823 12.5392642,1.23511652 12.7389641,0.965972652 L12.8055308,0.888864088 C13.0496084,0.644786406 13.4315501,0.622597525 13.700694,0.822297447 Z" transform="translate(1 2)"/>
</svg>
