<svg xmlns="http://www.w3.org/2000/svg" width="24" height="24" viewBox="0 0 24 24">
  <path fill="#111" d="M18.7269231,-4.89181345e-14 C20.0970141,-4.89181345e-14 21.2076923,1.11067822 21.2076923,2.48076923 L21.2076923,2.48076923 L21.2076923,18.7269231 C21.2076923,20.0970141 20.0970141,21.2076923 18.7269231,21.2076923 L18.7269231,21.2076923 L2.48076923,21.2076923 C1.11067822,21.2076923 4.71417777e-14,20.0970141 4.71417777e-14,18.7269231 L4.71417777e-14,18.7269231 L4.71417777e-14,2.48076923 C4.71417777e-14,1.11067822 1.11067822,-4.89181345e-14 2.48076923,-4.89181345e-14 L2.48076923,-4.89181345e-14 Z M14.9302308,13.8226154 L14.9307692,16.1423077 C14.9307692,16.4635887 14.6920236,16.7291077 14.3822674,16.7711298 L14.2961538,16.7769231 L6.91153846,16.7769231 C6.59025743,16.7769231 6.32473842,16.5381775 6.28271637,16.2284212 L6.27692308,16.1423077 L6.27661538,13.8226154 L1.269,13.823 L1.26923077,18.7269231 C1.26923077,19.3542177 1.74597083,19.8701636 2.35689646,19.9322065 L2.48076923,19.9384615 L18.7269231,19.9384615 C19.3960373,19.9384615 19.9384615,19.3960373 19.9384615,18.7269231 L19.9384615,18.7269231 L19.938,13.823 L14.9302308,13.8226154 Z M18.7269231,1.26923077 L2.48076923,1.26923077 C1.81165501,1.26923077 1.26923077,1.81165501 1.26923077,2.48076923 L1.26923077,2.48076923 L1.269,12.553 L6.91153846,12.5538462 C7.23281949,12.5538462 7.49833851,12.7925917 7.54036056,13.102348 L7.54615385,13.1884615 L7.54584615,15.5073077 L13.661,15.5073077 L13.6615385,13.1884615 C13.6615385,12.8671805 13.9002841,12.6016615 14.2100403,12.5596394 L14.2961538,12.5538462 L19.938,12.553 L19.9384615,2.48076923 C19.9384615,1.85347465 19.4617215,1.33752868 18.8507958,1.27548581 L18.7269231,1.26923077 Z M10.8346154,3.2 C10.8836549,3.2 10.9313953,3.20556234 10.97724,3.21609053 C11.0281954,3.2278247 11.0782405,3.24598503 11.1258267,3.27056823 C11.1677681,3.29278153 11.2023085,3.31568246 11.2342758,3.34163012 L11.2833562,3.38587454 L13.8218178,5.92433608 C14.0696505,6.1721688 14.0696505,6.57398504 13.8218178,6.82181776 C13.5965153,7.04712024 13.2439537,7.06760228 12.9955132,6.88326389 L12.9243361,6.82181776 L11.469,5.367 L11.4692308,9.75769231 C11.4692308,10.1081807 11.1851038,10.3923077 10.8346154,10.3923077 C10.5133344,10.3923077 10.2478153,10.1535621 10.2057933,9.84380586 L10.2,9.75769231 L10.2,5.366 L8.74489469,6.82181776 C8.51959221,7.04712024 8.16703063,7.06760228 7.91859014,6.88326389 L7.847413,6.82181776 C7.62211053,6.59651529 7.60162848,6.24395371 7.78596687,5.99551322 L7.847413,5.92433608 L10.3858745,3.38587454 L10.4025758,3.3697694 C10.4156453,3.35761669 10.4292282,3.34600849 10.4432881,3.33498093 L10.3858745,3.38587454 C10.4146488,3.35710028 10.4454988,3.33166681 10.4779424,3.30957414 C10.4973938,3.29637913 10.5179966,3.28397329 10.5393162,3.27274531 C10.5450796,3.2696766 10.5501769,3.26709207 10.5553011,3.26458078 C10.5813958,3.25176503 10.6092095,3.24042184 10.6379226,3.23107062 C10.6409295,3.23013105 10.6439635,3.22917009 10.6470031,3.22823248 C10.70643,3.20984522 10.769373,3.2 10.8346154,3.2 Z" transform="translate(1 1)"/>
</svg>
