<svg xmlns="http://www.w3.org/2000/svg" width="24" height="24" viewBox="0 0 24 24">
  <path fill="#111" d="M16.8125,0.9375 C17.0729455,0.9375 17.3147449,1.07261633 17.4512437,1.29442693 L17.4512437,1.29442693 L22.9512437,10.2319269 C23.0995854,10.4729822 23.0995854,10.7770178 22.9512437,11.0180731 L22.9512437,11.0180731 L17.4512437,19.9555731 C17.3147449,20.1773837 17.0729455,20.3125 16.8125,20.3125 L16.8125,20.3125 L7.1875,20.3125 C6.92705447,20.3125 6.6852551,20.1773837 6.54875626,19.9555731 L6.54875626,19.9555731 L1.04875626,11.0180731 C0.900414579,10.7770178 0.900414579,10.4729822 1.04875626,10.2319269 L1.04875626,10.2319269 L6.54875626,1.29442693 C6.6852551,1.07261633 6.92705447,0.9375 7.1875,0.9375 L7.1875,0.9375 Z M16.393,2.437 L7.606,2.437 L2.568,10.625 L7.606,18.812 L16.393,18.812 L21.431,10.625 L16.393,2.437 Z M12,6.4375 C14.3126924,6.4375 16.1875,8.31230761 16.1875,10.625 C16.1875,12.9376924 14.3126924,14.8125 12,14.8125 C9.68730761,14.8125 7.8125,12.9376924 7.8125,10.625 C7.8125,8.31230761 9.68730761,6.4375 12,6.4375 Z M12,7.9375 C10.5157347,7.9375 9.3125,9.14073473 9.3125,10.625 C9.3125,12.1092653 10.5157347,13.3125 12,13.3125 C13.4842653,13.3125 14.6875,12.1092653 14.6875,10.625 C14.6875,9.14073473 13.4842653,7.9375 12,7.9375 Z" transform="translate(0 1)"/>
</svg>
