<svg xmlns="http://www.w3.org/2000/svg" width="24" height="24" viewBox="0 0 24 24">
  <path fill="#111" d="M20.7502281,4 C21.2198316,4 21.5739247,4.42665619 21.4873822,4.8882164 L21.4873822,4.8882164 L18.4873822,20.8882164 C18.4208704,21.2429461 18.1111394,21.5 17.7502281,21.5 L17.7502281,21.5 L3.75022806,21.5 C3.38931676,21.5 3.07958574,21.2429461 3.01307392,20.8882164 L3.01307392,20.8882164 L0.0130739227,4.8882164 C-0.0734686166,4.42665619 0.280624573,4 0.750228063,4 L0.750228063,4 Z M19.8452281,5.5 L1.65422806,5.5 L4.37222806,20 L17.1272281,20 L19.8452281,5.5 Z M17.7502281,0 C18.1644416,0 18.5002281,0.335786438 18.5002281,0.75 C18.5002281,1.12969577 18.2180742,1.44349096 17.8519986,1.49315338 L17.7502281,1.5 L3.75022806,1.5 C3.3360145,1.5 3.00022806,1.16421356 3.00022806,0.75 C3.00022806,0.370304234 3.28238194,0.0565090391 3.64845751,0.006846616 L3.75022806,0 L17.7502281,0 Z" transform="translate(1 1)"/>
</svg>
