<svg xmlns="http://www.w3.org/2000/svg" width="24" height="24" viewBox="0 0 24 24">
  <path fill="#080808" d="M8.88721805,0.326266991 C13.6646888,0.326266991 17.537594,4.23659159 17.537594,9.06022144 L17.537594,9.06022144 L17.537594,17.0767846 C17.537594,17.4729889 17.2194805,17.7941759 16.8270677,17.7941759 L16.8270677,17.7941759 L13.4633861,17.7936621 C13.1738576,20.1187487 11.2085409,21.9172504 8.82718137,21.9172504 C6.44598381,21.9172504 4.48077249,20.1189934 4.19103572,17.7941365 L0.947368421,17.7941759 C0.554955572,17.7941759 0.236842105,17.4729889 0.236842105,17.0767846 L0.236842105,17.0767846 L0.236842105,9.06022144 C0.236842105,4.23659159 4.10974733,0.326266991 8.88721805,0.326266991 Z M12.0257801,17.7943346 L5.62852799,17.7940329 C5.90574022,19.3233694 7.23239515,20.4824678 8.82718137,20.4824678 C10.4218627,20.4824678 11.7484481,19.3235218 12.0257801,17.7943346 Z M8.88721805,1.7610496 C4.89457303,1.7610496 1.65789474,5.02900015 1.65789474,9.06022144 L1.65789474,9.06022144 L1.65789474,16.3593913 L16.1156842,16.3593913 L16.1165414,9.06022144 C16.1165414,5.1080437 13.0055472,1.88949798 9.12118888,1.76479998 L9.12118888,1.76479998 Z" transform="translate(3 1)"/>
</svg>
