<svg xmlns="http://www.w3.org/2000/svg" width="24" height="24" viewBox="0 0 24 24">
  <path fill="#111" d="M17.7171296,9.17784367e-14 C19.5217052,9.17784367e-14 20.9956246,1.4157073 21.0888384,3.19707241 L21.0935185,3.37638889 L21.0935185,15.924537 C21.0935185,17.7291126 19.6778112,19.203032 17.8964461,19.2962458 L17.7171296,19.3009259 L0.6875,19.3009259 C0.339445548,19.3009259 0.0517999525,19.0422849 0.00627606466,18.7067156 L6.80936788e-15,18.6134259 L6.80936788e-15,3.37638889 C6.80936788e-15,3.02833444 0.258641058,2.74068884 0.594210322,2.69516495 L0.6875,2.68888889 L14.5800926,2.68888889 C14.9597884,2.68888889 15.2675926,2.99669312 15.2675926,3.37638889 C15.2675926,3.72444334 15.0089515,4.01208894 14.6733823,4.05761282 L14.5800926,4.06388889 L1.37459259,4.06317593 L1.37459259,17.9259259 L17.7171296,17.9259259 C18.7744081,17.9259259 19.6402053,17.1060973 19.7134934,16.0674681 L19.7185185,15.924537 C19.7185185,14.8672586 18.8986899,14.0014614 17.8600607,13.9281733 L17.7171296,13.9231481 L16.8208333,13.9231481 C16.4727789,13.9231481 16.1851333,13.6645071 16.1396094,13.3289378 L16.1333333,13.2356481 L16.1333333,0.6875 C16.1333333,0.339445548 16.3919744,0.0517999525 16.7275437,0.00627606466 L16.8208333,9.17784367e-14 L17.7171296,9.17784367e-14 Z M14.1319444,5.37777778 C14.4799989,5.37777778 14.7676445,5.63641884 14.8131684,5.9719881 L14.8194444,6.06527778 L14.8194444,15.924537 C14.8194444,16.2725915 14.5608034,16.5602371 14.2252341,16.605761 L14.1319444,16.612037 L6.96157407,16.612037 C6.61351962,16.612037 6.32587403,16.353396 6.28035014,16.0178267 L6.27407407,15.924537 L6.27407407,14.1319444 C6.27407407,13.7522487 6.58187831,13.4444444 6.96157407,13.4444444 C7.30962853,13.4444444 7.59727412,13.7030855 7.64279801,14.0386548 L7.64907407,14.1319444 L7.64825926,15.2364259 L13.4443426,15.2364259 L13.4443426,6.75267593 L9.889,6.752 L9.88981481,10.5467593 C9.88981481,10.8948137 9.63117376,11.1824593 9.29560449,11.2279832 L9.20231481,11.2342593 L6.96157407,11.2342593 C6.58187831,11.2342593 6.27407407,10.926455 6.27407407,10.5467593 C6.27407407,10.1987048 6.53271513,9.91105921 6.8682844,9.86553532 L6.96157407,9.85925926 L8.51450926,9.85925926 L8.514,6.752 L4.06317593,6.75267593 L4.06388889,15.924537 C4.06388889,16.2725915 3.80524783,16.5602371 3.46967857,16.605761 L3.37638889,16.612037 C3.02833444,16.612037 2.74068884,16.353396 2.69516495,16.0178267 L2.68888889,15.924537 L2.68888889,6.06527778 C2.68888889,5.71722333 2.94752995,5.42957773 3.28309921,5.38405384 L3.37638889,5.37777778 L14.1319444,5.37777778 Z M17.5079259,1.37459259 L17.5079259,12.5478426 L17.7171296,12.5481481 C18.4389599,12.5481481 19.1078851,12.7746613 19.6567022,13.1604845 L19.7180093,13.2060093 L19.7185185,3.37638889 C19.7185185,2.31911044 18.8986899,1.45331322 17.8600607,1.38002514 L17.7171296,1.375 L17.5079259,1.37459259 Z" transform="translate(1 2)"/>
</svg>
