<svg xmlns="http://www.w3.org/2000/svg" width="24" height="24" viewBox="0 0 24 24">
  <path fill="#111" d="M17.421527,2.9580203e-14 C19.9308208,2.9580203e-14 21.9650053,2.03418451 21.9650053,4.54347826 L21.9650053,4.54347826 L21.9650053,17.421527 C21.9650053,19.9308208 19.9308208,21.9650053 17.421527,21.9650053 L17.421527,21.9650053 L4.54347826,21.9650053 C2.03418451,21.9650053 2.9580203e-14,19.9308208 2.9580203e-14,17.421527 L2.9580203e-14,17.421527 L2.9580203e-14,4.54347826 C2.9580203e-14,2.03418451 2.03418451,2.9580203e-14 4.54347826,2.9580203e-14 L4.54347826,2.9580203e-14 Z M17.421527,1.43478261 L4.54347826,1.43478261 C2.82659306,1.43478261 1.43478261,2.82659306 1.43478261,4.54347826 L1.43478261,4.54347826 L1.43478261,17.421527 C1.43478261,19.1384122 2.82659306,20.5302227 4.54347826,20.5302227 L4.54347826,20.5302227 L17.421527,20.5302227 C19.1384122,20.5302227 20.5302227,19.1384122 20.5302227,17.421527 L20.5302227,17.421527 L20.5302227,4.54347826 C20.5302227,2.82659306 19.1384122,1.43478261 17.421527,1.43478261 L17.421527,1.43478261 Z M7.69883351,6.87645811 C7.69883351,6.30348099 8.33741613,5.96172194 8.81416191,6.27955247 L8.81416191,6.27955247 L14.9732287,10.385597 C15.3991677,10.6695563 15.3991677,11.295449 14.9732287,11.5794083 L14.9732287,11.5794083 L8.81416191,15.6854528 C8.33741613,16.0032834 7.69883351,15.6615243 7.69883351,15.0885472 L7.69883351,15.0885472 Z M9.13354613,8.21624178 L9.13354613,13.747807 L13.2810244,10.9825027 L9.13354613,8.21624178 Z" transform="translate(1 1)"/>
</svg>
