<svg xmlns="http://www.w3.org/2000/svg" width="24" height="24" viewBox="0 0 24 24">
  <path fill="#111" d="M11,0 C14.0299532,0 16.7737799,1.22505316 18.7631933,3.20687274 C18.7678143,3.211902 18.7729368,3.21690771 18.7780145,3.22198545 L18.7921313,3.23580705 C20.7745364,5.22530095 22,7.96953929 22,11 C22,17.0751322 17.0751322,22 11,22 C7.97004682,22 5.22622014,20.7749468 3.23680669,18.7931273 C3.23218568,18.788098 3.22706319,18.7830923 3.22198545,18.7780145 L3.2078687,18.764193 C1.2254636,16.7746991 0,14.0304607 0,11 C0,4.92486775 4.92486775,0 11,0 Z M18.0979645,5.19898593 L5.19898593,18.0979645 C6.77915283,19.3909377 8.7989858,20.1666667 11,20.1666667 C16.0626102,20.1666667 20.1666667,16.0626102 20.1666667,11 C20.1666667,8.7989858 19.3909377,6.77915283 18.0979645,5.19898593 Z M11,1.83333333 C5.93738979,1.83333333 1.83333333,5.93738979 1.83333333,11 C1.83333333,13.2010142 2.60906234,15.2208472 3.9020355,16.8010141 L16.8010141,3.9020355 C15.2208472,2.60906234 13.2010142,1.83333333 11,1.83333333 Z" transform="translate(1 1)"/>
</svg>
