<svg xmlns="http://www.w3.org/2000/svg" width="24" height="24" viewBox="0 0 24 24">
  <path fill="#111" d="M18.8162202,19.7185185 C19.1808487,19.7185185 19.4764385,20.0409801 19.4764385,20.4387566 C19.4764385,20.8033851 19.228061,21.1047281 18.9058079,21.1524198 L18.8162202,21.1589947 L0.660218254,21.1589947 C0.295589781,21.1589947 8.17124146e-14,20.8365331 8.17124146e-14,20.4387566 C8.17124146e-14,20.0741281 0.248377524,19.7727851 0.570630548,19.7250934 L0.660218254,19.7185185 L18.8162202,19.7185185 Z M10.3434193,-1.43884904e-13 C10.7080478,-1.43884904e-13 11.0036376,0.322461579 11.0036376,0.720238095 L11.0036376,0.720238095 L11.003,1.533 L14.2225478,0.127500992 C14.5386681,-0.0105919903 14.9103557,0.141172185 15.0834175,0.462616129 L15.1255006,0.554399305 L20.6293377,14.8928869 C20.767355,15.2524466 20.6212399,15.6469231 20.2976884,15.7882623 L20.2976884,15.7882623 L16.937513,17.2561104 C16.5926545,17.4067572 16.1816664,17.2124502 16.0345602,16.829212 L16.0345602,16.829212 L11.003,3.722 L11.0036376,16.2133598 C11.0036376,16.5779883 10.75526,16.8793313 10.433007,16.927023 L10.3434193,16.9335979 L6.71221892,16.9335979 C6.34759044,16.9335979 6.05200066,16.6111363 6.05200066,16.2133598 L6.05200066,16.2133598 L6.05200066,0.720238095 C6.05200066,0.322461579 6.34759044,-1.43884904e-13 6.71221892,-1.43884904e-13 L6.71221892,-1.43884904e-13 Z M4.29141865,-1.43884904e-13 C4.65604712,-1.43884904e-13 4.9516369,0.322461579 4.9516369,0.720238095 L4.9516369,0.720238095 L4.9516369,16.2133598 C4.9516369,16.6111363 4.65604712,16.9335979 4.29141865,16.9335979 L4.29141865,16.9335979 L0.660218254,16.9335979 C0.295589781,16.9335979 8.17124146e-14,16.6111363 8.17124146e-14,16.2133598 L8.17124146e-14,16.2133598 L8.17124146e-14,0.720238095 C8.17124146e-14,0.322461579 0.295589781,-1.43884904e-13 0.660218254,-1.43884904e-13 L0.660218254,-1.43884904e-13 Z M14.160579,1.72618261 L12.0115518,2.66450949 L16.9980558,15.6573779 L19.1478983,14.718719 L14.160579,1.72618261 Z M3.63076025,1.44015608 L1.31999636,1.44015608 L1.31999636,15.4924815 L3.63076025,15.4924815 L3.63076025,1.44015608 Z M9.68276091,1.44015608 L7.37199702,1.44015608 L7.37199702,15.4924815 L9.68276091,15.4924815 L9.68276091,1.44015608 Z" transform="translate(2 1)"/>
</svg>
