<svg xmlns="http://www.w3.org/2000/svg" width="24" height="24" viewBox="0 0 24 24">
  <path fill="#111" d="M10.9429724,-2.33464042e-14 C16.9866091,-2.33464042e-14 21.8859447,4.8993356 21.8859447,10.9429724 C21.8859447,16.9866091 16.9866091,21.8859447 10.9429724,21.8859447 C4.8993356,21.8859447 -9.13554946e-15,16.9866091 -9.13554946e-15,10.9429724 C-9.13554946e-15,4.8993356 4.8993356,-2.33464042e-14 10.9429724,-2.33464042e-14 Z M10.9429724,1.44047619 C5.69488864,1.44047619 1.44047619,5.69488864 1.44047619,10.9429724 C1.44047619,16.1910561 5.69488864,20.4454685 10.9429724,20.4454685 C16.1910561,20.4454685 20.4454685,16.1910561 20.4454685,10.9429724 C20.4454685,5.69488864 16.1910561,1.44047619 10.9429724,1.44047619 Z M10.9429724,16.3563748 C11.3076008,16.3563748 11.6089438,16.6273321 11.6566355,16.9788809 L11.6632104,17.0766129 L11.6632104,18.4396441 C11.6632104,18.8374207 11.3407489,19.1598822 10.9429724,19.1598822 C10.5783439,19.1598822 10.2770009,18.8889249 10.2293092,18.5373762 L10.2227343,18.4396441 L10.2227343,17.0766129 C10.2227343,16.6788364 10.5451958,16.3563748 10.9429724,16.3563748 Z M10.2971007,5.57897612 C10.5612877,5.04364015 11.324657,5.04364015 11.588844,5.57897612 L11.588844,5.57897612 L12.8952977,8.22623425 L15.8171713,8.65115099 C16.3731935,8.73196216 16.614821,9.37984323 16.2848895,9.80315559 L16.2848895,9.80315559 L16.2162666,9.87970172 L14.1024168,11.9397819 L14.6010902,14.8503903 C14.6963602,15.4060935 14.150748,15.8371396 13.6447224,15.6492406 L13.6447224,15.6492406 L13.5559732,15.6095563 L10.9429724,14.2349406 L8.32997153,15.6095563 C7.8309577,15.8719827 7.25232974,15.4863883 7.2745564,14.947061 L7.2745564,14.947061 L7.2848545,14.8503903 L7.78256759,11.9397819 L5.66967806,9.87970172 C5.26729715,9.48755279 5.45254798,8.82135773 5.96826633,8.67275516 L5.96826633,8.67275516 L6.0687734,8.65115099 L8.98968664,8.22623425 Z M16.9043323,12.1293326 L16.9993127,12.1532804 L18.2955554,12.5744571 C18.6738632,12.6973773 18.8808958,13.1037028 18.7579756,13.4820106 C18.6452987,13.8287928 18.2944827,14.0316561 17.9454025,13.9683786 L17.850422,13.9444308 L16.5541793,13.5232541 C16.1758715,13.4003339 15.968839,12.9940084 16.0917592,12.6157006 C16.204436,12.2689184 16.5552521,12.0660551 16.9043323,12.1293326 Z M5.79418551,12.6157006 C5.90686236,12.9624827 5.74228725,13.3328076 5.42268226,13.4868 L5.33176537,13.5232541 L4.03552267,13.9444308 C3.65721488,14.067351 3.25088932,13.8603184 3.12796912,13.4820106 C3.01529227,13.1352285 3.17986739,12.7649036 3.49947238,12.6109112 L3.59038926,12.5744571 L4.88663197,12.1532804 C5.26493975,12.0303602 5.67126532,12.2373928 5.79418551,12.6157006 Z M10.9429724,7.52520251 L10.1147257,9.2035313 C10.0098202,9.41610683 9.80703076,9.56345045 9.5724437,9.59754486 L9.5724437,9.59754486 L7.71918664,9.86549616 L9.06035266,11.1727494 C9.20587036,11.3145668 9.28358471,11.5099771 9.27759361,11.7100527 L9.27759361,11.7100527 L9.26754898,11.8102528 L8.95127394,13.6539485 L10.6077366,12.784181 C10.7876209,12.6895816 10.9975369,12.6760674 11.1860016,12.7436384 L11.1860016,12.7436384 L11.2782081,12.784181 L12.9337104,13.6539485 L12.6183957,11.8102528 C12.5840611,11.6099812 12.6360822,11.4062202 12.7585571,11.2478976 L12.7585571,11.2478976 L12.825592,11.1727494 L14.1657977,9.86549616 L12.313501,9.59754486 C12.1124264,9.56832108 11.9347133,9.45589379 11.8219787,9.29050132 L11.8219787,9.29050132 L11.771219,9.2035313 L10.9429724,7.52520251 Z M7.05000781,4.37321042 L7.11889945,4.45471251 L7.92036182,5.55740478 C8.1542281,5.87916978 8.08297211,6.32959794 7.7612071,6.56346422 C7.46869346,6.77606993 7.06984664,6.73650848 6.8240393,6.4858116 L6.75514766,6.40430951 L5.95368529,5.30161724 C5.71981901,4.97985223 5.791075,4.52942408 6.11284001,4.2955578 C6.40535365,4.08295208 6.80420047,4.12251354 7.05000781,4.37321042 Z M15.7731047,4.2955578 C16.0656183,4.50816351 16.1510997,4.89974597 15.9885171,5.21093252 L15.9322594,5.30161724 L15.130797,6.40430951 C14.8969308,6.72607451 14.4465026,6.79733051 14.1247376,6.56346422 C13.832224,6.35085851 13.7467426,5.95927604 13.9093252,5.64808949 L13.9655829,5.55740478 L14.7670453,4.45471251 C15.0009115,4.13294751 15.4513397,4.06169151 15.7731047,4.2955578 Z" transform="translate(1 1)"/>
</svg>
