<svg xmlns="http://www.w3.org/2000/svg" width="24" height="24" viewBox="0 0 24 24">
  <path fill="#111" d="M7.2173913,0.760869565 C7.58057856,0.760869565 7.88073048,1.03075589 7.92823367,1.38091512 L7.93478261,1.47826087 L7.93496077,5.58290339 C11.1631003,5.93984659 13.673913,8.67670743 13.673913,12 C13.673913,15.3232926 11.1631003,18.0601534 7.93496077,18.4170966 L7.93478261,22.5217391 C7.93478261,22.9179434 7.61359558,23.2391304 7.2173913,23.2391304 C6.85420405,23.2391304 6.55405212,22.9692441 6.50654894,22.6190849 L6.5,22.5217391 L6.49982184,18.4170966 C3.27168229,18.0601534 0.760869565,15.3232926 0.760869565,12 C0.760869565,8.67670743 3.27168229,5.93984659 6.49982184,5.58290339 L6.5,1.47826087 C6.5,1.08205659 6.82118703,0.760869565 7.2173913,0.760869565 Z M7.2173913,6.97826087 C4.44396137,6.97826087 2.19565217,9.22657006 2.19565217,12 C2.19565217,14.7734299 4.44396137,17.0217391 7.2173913,17.0217391 C9.99082124,17.0217391 12.2391304,14.7734299 12.2391304,12 C12.2391304,9.22657006 9.99082124,6.97826087 7.2173913,6.97826087 Z" transform="translate(5)"/>
</svg>
