<svg xmlns="http://www.w3.org/2000/svg" width="24" height="24" viewBox="0 0 24 24">
  <path fill="#111" d="M8.23915631,14.2391046 C8.49384607,14.4937943 8.51699968,14.8923422 8.30861716,15.173188 L8.23915631,15.2536491 C7.98446656,15.5083388 7.58591869,15.5314924 7.30507291,15.3231099 L7.2246118,15.2536491 L0.208241037,8.23727137 C0.184229108,8.21308177 0.161929159,8.18719045 0.141538067,8.15979426 L0.210119048,8.23915631 C0.175245704,8.20428297 0.144713291,8.16671251 0.118521812,8.12711641 C0.10600593,8.10810696 0.0940704226,8.08803797 0.0831155883,8.06736947 C0.077416739,8.05670128 0.0720894674,8.0459855 0.0670466608,8.03516988 C0.0572709302,8.0141703 0.0485295367,7.99282598 0.0408146676,7.97099677 C0.0366473094,7.95908203 0.0328265398,7.94725959 0.0293202478,7.93536417 C0.0223542105,7.91201266 0.0165035182,7.88765943 0.0119283606,7.86285923 C0.000358640259,7.79973861 -0.00279444483,7.7357081 0.00246815597,7.6722443 L-2.78038462e-14,7.73188406 C-2.78038462e-14,7.65432845 0.012306828,7.57964725 0.0350741216,7.50968683 C0.0373953063,7.50262992 0.0401810458,7.49450702 0.0431166927,7.4864263 C0.0522058056,7.4615191 0.0621381837,7.43831572 0.0732184581,7.41577856 C0.0802848549,7.40126773 0.0882465069,7.38636341 0.0967713967,7.37169658 C0.107137367,7.35401143 0.117983563,7.33707175 0.129501367,7.3206372 C0.133097673,7.31540691 0.136839053,7.31022014 0.140658206,7.30507291 L0.157582268,7.28321799 C0.169709163,7.26810653 0.182435289,7.25349656 0.195724599,7.23942412 L0.210119048,7.2246118 L7.2246118,0.210119048 C7.50477053,-0.0700396828 7.95899758,-0.0700396828 8.23915631,0.210119048 C8.49384607,0.464808804 8.51699968,0.863356674 8.30861716,1.14420245 L8.23915631,1.22466356 L2.447,7.014 L14.7463768,7.01449275 C18.1672179,7.01449275 20.9544766,9.72896761 21.0715347,13.1212991 L21.0753623,13.3434783 L21.0753623,18.9550725 C21.0753623,19.3512767 20.7541753,19.6724638 20.357971,19.6724638 C19.9947838,19.6724638 19.6946318,19.4025774 19.6471286,19.0524182 L19.6405797,18.9550725 L19.6405797,13.3434783 C19.6405797,10.7099822 17.5601144,8.56199129 14.9532474,8.45356934 L14.7463768,8.44927536 L2.448,8.449 L8.23915631,14.2391046 Z" transform="translate(1 2)"/>
</svg>
