<svg xmlns="http://www.w3.org/2000/svg" width="24" height="24" viewBox="0 0 24 24">
  <path fill="#111" d="M15.7135817,-8.8817842e-14 C16.1113582,-8.8817842e-14 16.4338198,0.322461579 16.4338198,0.720238095 L16.4338198,0.720238095 L16.433,5.452 L21.1657066,5.45212494 C21.5303351,5.45212494 21.8316781,5.72308224 21.8793698,6.07463099 L21.8859447,6.17236303 L21.8859447,21.1657066 C21.8859447,21.5303351 21.6149874,21.8316781 21.2634386,21.8793698 L21.1657066,21.8859447 L6.17236303,21.8859447 C5.80773456,21.8859447 5.50639155,21.6149874 5.45869986,21.2634386 L5.45212494,21.1657066 L5.452,16.433 L0.720238095,16.4338198 C0.355609622,16.4338198 0.0542666169,16.1628625 0.00657492489,15.8113137 L-2.00474558e-14,15.7135817 L-2.00474558e-14,0.720238095 C-2.00474558e-14,0.322461579 0.322461579,-8.8817842e-14 0.720238095,-8.8817842e-14 L0.720238095,-8.8817842e-14 Z M16.4338198,15.7135817 C16.4338198,16.1113582 16.1113582,16.4338198 15.7135817,16.4338198 L15.7135817,16.4338198 L6.892,16.433 L6.8923533,20.4453136 L20.4453136,20.4453136 L20.4453136,6.8923533 L16.433,6.892 Z M14.9926311,1.43967076 L1.43967076,1.43967076 L1.43967076,14.9926311 L14.9926311,14.9926311 L14.9926311,1.43967076 Z" transform="translate(1 1)"/>
</svg>
