<svg xmlns="http://www.w3.org/2000/svg" width="24" height="24" viewBox="0 0 24 24">
  <path fill="#111" d="M10.7816635,-5.38313355e-14 C16.7362119,-5.38313355e-14 21.563327,4.82711518 21.563327,10.7816635 C21.563327,16.7362119 16.7362119,21.563327 10.7816635,21.563327 C4.82711518,21.563327 0,16.7362119 0,10.7816635 C0,4.82711518 4.82711518,-5.38313355e-14 10.7816635,-5.38313355e-14 Z M19.6558942,7.83894683 L14.1366723,7.8392576 C14.8428067,8.6165018 15.2731569,9.64882582 15.2731569,10.7816635 C15.2731569,11.5787386 15.0601051,12.3260528 14.687842,12.9697656 L14.6866341,12.9702374 L10.555,20.125 L10.7816635,20.1285444 C15.8532394,20.1285444 19.9814106,16.0893483 20.1246977,11.0524353 L20.1285444,10.7816635 C20.1285444,9.75354105 19.962548,8.76418914 19.6558942,7.83894683 Z M2.92067635,5.72298846 C1.98041579,7.1811035 1.43478261,8.91766378 1.43478261,10.7816635 C1.43478261,15.3330238 4.68783837,19.1245922 8.99568664,19.9581055 L11.8248641,15.0600414 C11.5255035,15.1247266 11.2147449,15.1587902 10.8960302,15.1587902 C9.2546568,15.1587902 7.82429413,14.2553457 7.07508899,12.9186034 Z M10.8960302,7.83931947 C9.2710185,7.83931947 7.9536862,9.15665177 7.9536862,10.7816635 C7.9536862,12.4066753 9.2710185,13.7240076 10.8960302,13.7240076 C12.521042,13.7240076 13.8383743,12.4066753 13.8383743,10.7816635 C13.8383743,9.15665177 12.521042,7.83931947 10.8960302,7.83931947 Z M10.7816635,1.43478261 C8.04162515,1.43478261 5.57696242,2.61380584 3.86732702,4.49220061 L6.72630795,9.44638669 C7.29086039,7.68198259 8.9442636,6.40453686 10.8960302,6.40453686 L10.8960302,6.40453686 L19.0422628,6.40427698 C17.4724569,3.44803426 14.3621702,1.43478261 10.7816635,1.43478261 Z" transform="translate(1 1)"/>
</svg>
