<svg width="10" height="10" viewBox="0 0 10 10" fill="none" xmlns="http://www.w3.org/2000/svg">
<path d="M7.14643 5.85354C7.34169 6.0488 7.65828 6.0488 7.85354 5.85354L8.85354 4.85353C9.87723 3.82984 9.87723 2.17012 8.85354 1.14643C7.82985 0.12274 6.17012 0.122739 5.14643 1.14643L4.14643 2.14643C3.95117 2.34169 3.95117 2.65827 4.14643 2.85354C4.34169 3.0488 4.65828 3.0488 4.85354 2.85354L5.85354 1.85354C6.4867 1.22037 7.51327 1.22037 8.14643 1.85354C8.7796 2.4867 8.7796 3.51326 8.14643 4.14643L7.14643 5.14643C6.95117 5.34169 6.95117 5.65827 7.14643 5.85354Z" fill="#1654D1"/>
<path d="M1.14643 8.85355C2.17012 9.87724 3.82984 9.87724 4.85353 8.85355L5.85354 7.85355C6.0488 7.65829 6.0488 7.34171 5.85354 7.14645C5.65827 6.95118 5.34169 6.95118 5.14643 7.14645L4.14643 8.14645C3.51326 8.77961 2.4867 8.77961 1.85354 8.14645C1.22037 7.51328 1.22037 6.48672 1.85354 5.85355L2.85354 4.85355C3.0488 4.65829 3.0488 4.34171 2.85354 4.14645C2.65827 3.95118 2.34169 3.95118 2.14643 4.14645L1.14643 5.14645C0.122739 6.17014 0.12274 7.82986 1.14643 8.85355Z" fill="#1654D1"/>
<path d="M3.85354 6.85354C3.65828 7.0488 3.34169 7.0488 3.14643 6.85354C2.95117 6.65827 2.95117 6.34169 3.14643 6.14643L6.14643 3.14643C6.34169 2.95117 6.65828 2.95117 6.85354 3.14643C7.0488 3.34169 7.0488 3.65827 6.85354 3.85354L3.85354 6.85354Z" fill="#1654D1"/>
</svg>
