<svg xmlns="http://www.w3.org/2000/svg" width="24" height="24" viewBox="0 0 24 24">
  <path fill="#111" d="M15.9111111,0.494444444 C16.2908069,0.494444444 16.6046021,0.776598326 16.6542645,1.14267389 L16.6611111,1.24444444 L16.6604444,2.44944444 L16.8,2.45 C19.3504817,2.45 21.4314697,4.46014129 21.5451121,6.982572 L21.55,7.2 L21.5494444,7.33844444 L22.7555556,7.33888889 C23.1697691,7.33888889 23.5055556,7.67467533 23.5055556,8.08888889 C23.5055556,8.46858465 23.2234017,8.78237985 22.8573261,8.83204227 L22.7555556,8.83888889 L21.5494444,8.83844444 L21.5494444,15.1604444 L22.7555556,15.1611111 C23.1697691,15.1611111 23.5055556,15.4968975 23.5055556,15.9111111 C23.5055556,16.2908069 23.2234017,16.6046021 22.8573261,16.6542645 L22.7555556,16.6611111 L21.5494444,16.6604444 L21.55,16.8 C21.55,19.3504817 19.5398587,21.4314697 17.017428,21.5451121 L16.8,21.55 L16.6604444,21.5494444 L16.6611111,22.7555556 C16.6611111,23.1697691 16.3253247,23.5055556 15.9111111,23.5055556 C15.5314153,23.5055556 15.2176202,23.2234017 15.1679577,22.8573261 L15.1611111,22.7555556 L15.1604444,21.5494444 L8.83844444,21.5494444 L8.83888889,22.7555556 C8.83888889,23.1697691 8.50310245,23.5055556 8.08888889,23.5055556 C7.70919312,23.5055556 7.39539793,23.2234017 7.3457355,22.8573261 L7.33888889,22.7555556 L7.33844444,21.5494444 L7.2,21.55 C4.64951834,21.55 2.56853034,19.5398587 2.45488786,17.017428 L2.45,16.8 L2.44944444,16.6604444 L1.24444444,16.6611111 C0.830230882,16.6611111 0.494444444,16.3253247 0.494444444,15.9111111 C0.494444444,15.5314153 0.776598326,15.2176202 1.14267389,15.1679577 L1.24444444,15.1611111 L2.44944444,15.1604444 L2.44944444,8.83844444 L1.24444444,8.83888889 C0.830230882,8.83888889 0.494444444,8.50310245 0.494444444,8.08888889 C0.494444444,7.70919312 0.776598326,7.39539793 1.14267389,7.3457355 L1.24444444,7.33888889 L2.44944444,7.33844444 L2.45,7.2 C2.45,4.64951834 4.46014129,2.56853034 6.982572,2.45488786 L7.2,2.45 L7.33844444,2.44944444 L7.33888889,1.24444444 C7.33888889,0.830230882 7.67467533,0.494444444 8.08888889,0.494444444 C8.46858465,0.494444444 8.78237985,0.776598326 8.83204227,1.14267389 L8.83888889,1.24444444 L8.83844444,2.44944444 L15.1604444,2.44944444 L15.1611111,1.24444444 C15.1611111,0.830230882 15.4968975,0.494444444 15.9111111,0.494444444 Z M16.8,3.95 L7.2,3.95 C5.40507456,3.95 3.95,5.40507456 3.95,7.2 L3.95,7.2 L3.95,16.8 C3.95,18.5949254 5.40507456,20.05 7.2,20.05 L7.2,20.05 L16.8,20.05 C18.5949254,20.05 20.05,18.5949254 20.05,16.8 L20.05,16.8 L20.05,7.2 C20.05,5.40507456 18.5949254,3.95 16.8,3.95 L16.8,3.95 Z M15.9111111,13.6944444 C17.1353423,13.6944444 18.1277778,14.6868799 18.1277778,15.9111111 C18.1277778,17.1353423 17.1353423,18.1277778 15.9111111,18.1277778 C14.6868799,18.1277778 13.6944444,17.1353423 13.6944444,15.9111111 C13.6944444,14.6868799 14.6868799,13.6944444 15.9111111,13.6944444 Z M15.9111111,15.1944444 C15.515307,15.1944444 15.1944444,15.515307 15.1944444,15.9111111 C15.1944444,16.3069152 15.515307,16.6277778 15.9111111,16.6277778 C16.3069152,16.6277778 16.6277778,16.3069152 16.6277778,15.9111111 C16.6277778,15.515307 16.3069152,15.1944444 15.9111111,15.1944444 Z"/>
</svg>
