<svg xmlns="http://www.w3.org/2000/svg" width="24" height="24" viewBox="0 0 24 24">
  <path fill="#111" d="M20.9282051,12.1705128 C21.2786935,12.1705128 21.5628205,12.4546398 21.5628205,12.8051282 C21.5628205,13.1264092 21.3240749,13.3919282 21.0143187,13.4339503 L20.9282051,13.4397436 L4.40846154,13.4394615 L9.64361264,18.6743361 C9.86891511,18.8996386 9.88939716,19.2522001 9.70505877,19.5006406 L9.64361264,19.5718178 C9.41831016,19.7971202 9.06574858,19.8176023 8.81730809,19.6332639 L8.74613095,19.5718178 L2.42818224,13.253869 C2.04943818,12.875125 2.28362826,12.2416815 2.79005613,12.1760524 L2.87692308,12.1705128 L20.9282051,12.1705128 Z M13.1826919,0.5616079 L13.253869,0.62305403 L19.5718178,6.94100275 C19.9505618,7.3197468 19.7163717,7.95319026 19.2099439,8.01881936 L19.1230769,8.02435897 L1.07179487,8.02435897 C0.721306473,8.02435897 0.437179487,7.74023199 0.437179487,7.38974359 C0.437179487,7.06846256 0.675925079,6.80294355 0.985681323,6.7609215 L1.07179487,6.75512821 L17.5906923,6.75484615 L12.3563874,1.52053571 C12.1310849,1.29523324 12.1106028,0.94267166 12.2949412,0.694231166 L12.3563874,0.62305403 C12.5816898,0.397751554 12.9342514,0.377269511 13.1826919,0.5616079 Z" transform="translate(1 2)"/>
</svg>
