<svg xmlns="http://www.w3.org/2000/svg" width="24" height="24" viewBox="0 0 24 24">
  <path fill="#111" d="M15.3563327,0 C15.71952,0 16.0196719,0.269886322 16.0671751,0.620045554 L16.073724,0.717391304 L16.073,2.869 L20.8459357,2.86956522 C21.209123,2.86956522 21.5092749,3.13945154 21.5567781,3.48961077 L21.563327,3.58695652 L21.563327,20.8043478 C21.563327,21.2005521 21.24214,21.5217391 20.8459357,21.5217391 L20.8459357,21.5217391 L0.717391304,21.5217391 C0.321187027,21.5217391 0,21.2005521 0,20.8043478 L0,20.8043478 L0,3.58695652 C0,3.19075224 0.321187027,2.86956522 0.717391304,2.86956522 L0.717391304,2.86956522 L5.489,2.869 L5.48960302,0.717391304 C5.48960302,0.321187027 5.81079005,0 6.20699433,0 C6.57018158,0 6.87033351,0.269886322 6.9178367,0.620045554 L6.92438563,0.717391304 L6.924,2.869 L14.638,2.869 L14.6389414,0.717391304 C14.6389414,0.321187027 14.9601284,0 15.3563327,0 Z M20.127,8.13 L1.434,8.13 L1.43453308,20.0869565 L20.1278374,20.0869565 L20.127,8.13 Z M20.1278374,4.30434783 L1.43453308,4.30434783 L1.434,6.695 L20.127,6.695 L20.1278374,4.30434783 Z" transform="translate(1 1)"/>
</svg>
