<svg xmlns="http://www.w3.org/2000/svg" width="24" height="24" viewBox="0 0 24 24">
  <path fill="#111" d="M14.1511936,0.561671088 C18.1759738,0.561671088 21.4383289,3.82402619 21.4383289,7.84880637 C21.4383289,11.8004087 18.2935264,15.0170585 14.3699559,15.1327213 L14.1511936,15.1359416 L2.72867109,15.1356711 L7.24714933,19.6547074 C7.47245181,19.8800099 7.49293385,20.2325715 7.30859546,20.481012 L7.24714933,20.5521891 C7.02184685,20.7774916 6.66928528,20.7979736 6.42084478,20.6136352 L6.34966765,20.5521891 L0.74754563,14.9500671 L0.734323567,14.936446 C0.71855367,14.9197095 0.703683179,14.902116 0.689789338,14.883743 L0.74754563,14.9500671 C0.720210081,14.9227316 0.695889598,14.8935227 0.674584183,14.8628537 C0.641831742,14.8155199 0.615452905,14.7639626 0.596421507,14.7089753 C0.564943484,14.6174419 0.554896753,14.5208206 0.566102284,14.426238 L0.561671088,14.5013263 C0.561671088,14.4522867 0.567233431,14.4045464 0.577761621,14.3587016 C0.596860475,14.2756088 0.632974201,14.1953617 0.6860995,14.1237626 C0.692934557,14.1147127 0.697549006,14.1087866 0.702264926,14.1029459 L0.74754563,14.0525854 L6.34966765,8.4504634 C6.59750037,8.20263068 6.99931661,8.20263068 7.24714933,8.4504634 C7.47245181,8.67576588 7.49293385,9.02832746 7.30859546,9.27676795 L7.24714933,9.34794509 L2.72567109,13.8666711 L14.1511936,13.8667109 C17.474997,13.8667109 20.1690981,11.1726097 20.1690981,7.84880637 C20.1690981,4.59283571 17.5838382,1.94112743 14.3538875,1.83425053 L14.1511936,1.83090186 L7.49867374,1.83090186 C7.14818534,1.83090186 6.86405836,1.54677487 6.86405836,1.19628647 C6.86405836,0.87500544 7.10280395,0.609486428 7.41256019,0.567464378 L7.49867374,0.561671088 L14.1511936,0.561671088 Z" transform="translate(1 1)"/>
</svg>
