<?xml version="1.0" encoding="UTF-8"?>
<svg width="24px" height="24px" viewBox="0 0 24 24" version="1.1" xmlns="http://www.w3.org/2000/svg" xmlns:xlink="http://www.w3.org/1999/xlink">
    <title>uranus-icon/ln-clock</title>
    <g id="uranus-icon/ln-clock" stroke="none" stroke-width="1" fill="none" fill-rule="evenodd">
        <g id="Combined-Shape-2" transform="translate(1.000000, 1.000000)" fill="#111111" fill-rule="nonzero">
            <path d="M10.5467593,5.77315973e-14 C16.3715736,5.77315973e-14 21.0935185,4.72194496 21.0935185,10.5467593 C21.0935185,16.3715736 16.3715736,21.0935185 10.5467593,21.0935185 C4.72194496,21.0935185 6.80936788e-15,16.3715736 6.80936788e-15,10.5467593 C6.80936788e-15,4.72194496 4.72194496,5.77315973e-14 10.5467593,5.77315973e-14 Z M10.5467593,1.375 C5.48133649,1.375 1.375,5.48133649 1.375,10.5467593 C1.375,15.612182 5.48133649,19.7185185 10.5467593,19.7185185 C15.612182,19.7185185 19.7185185,15.612182 19.7185185,10.5467593 C19.7185185,5.48133649 15.612182,1.375 10.5467593,1.375 Z M10.5467593,3.58518519 C10.8948137,3.58518519 11.1824593,3.84382624 11.2279832,4.17939551 L11.2342593,4.27268519 L11.2342593,9.85925926 L16.8208333,9.85925926 C17.1688878,9.85925926 17.4565334,10.1179003 17.5020573,10.4534696 L17.5083333,10.5467593 C17.5083333,10.8948137 17.2496923,11.1824593 16.914123,11.2279832 L16.8208333,11.2342593 L10.5467593,11.2342593 C10.1987048,11.2342593 9.91105921,10.9756182 9.86553532,10.6400489 L9.85925926,10.5467593 L9.85925926,4.27268519 C9.85925926,3.89298942 10.1670635,3.58518519 10.5467593,3.58518519 Z" id="Combined-Shape"></path>
        </g>
    </g>
</svg>