<svg xmlns="http://www.w3.org/2000/svg" width="24" height="24" viewBox="0 0 24 24">
  <path fill="#111" d="M13.8249334,0.134797447 L13.9057138,0.201364088 L20.9480419,6.92358631 C20.9727405,6.9471623 20.9956537,6.97244261 21.0165711,6.99922659 L20.9480419,6.92358631 C20.9837069,6.95763024 21.0148497,6.99435627 21.0414701,7.03308421 C21.0520031,7.04850701 21.0620996,7.06457206 21.0715107,7.08104523 C21.08015,7.09609708 21.0879769,7.11113418 21.0951919,7.12637088 C21.1025179,7.14181175 21.10952,7.15817646 21.1158661,7.17484175 C21.1207046,7.18765622 21.1251019,7.20040251 21.1290985,7.21323827 C21.1364161,7.23656543 21.1423646,7.26013404 21.1470065,7.28413975 C21.1488719,7.29410835 21.1505316,7.3038702 21.1519703,7.31365595 C21.1566036,7.34486326 21.1589947,7.3770262 21.1589947,7.40972222 C21.1589947,7.48387295 21.1466966,7.55528188 21.1239412,7.62219191 C21.1210589,7.63059148 21.1177526,7.63971053 21.1142394,7.64877307 C21.1054686,7.67131872 21.0958716,7.69253475 21.0852225,7.71316706 C21.0792635,7.72483895 21.0725313,7.73700129 21.0653906,7.74900223 C21.0530105,7.76962572 21.0400846,7.78894659 21.0262102,7.807579 C21.0237294,7.811009 21.0207778,7.81489088 21.0177783,7.81874957 L21.0015906,7.83873644 C20.9900549,7.85250785 20.977976,7.8658466 20.9653849,7.87872313 L20.9480419,7.89585813 L13.9057138,14.6180804 C13.6244433,14.8865658 13.1684138,14.8865658 12.8871433,14.6180804 C12.6314429,14.3740027 12.6081974,13.992061 12.8174068,13.7229171 L12.8871433,13.6458085 L18.699,8.097 L6.35410053,8.09722222 C3.71015406,8.09722222 1.5536394,10.0910015 1.4447872,12.589249 L1.44047619,12.7875 L1.44047619,18.1652778 C1.44047619,18.5449735 1.11801461,18.8527778 0.720238095,18.8527778 C0.355609622,18.8527778 0.0542666169,18.5941367 0.00657492489,18.2585675 L-2.90984168e-14,18.1652778 L-2.90984168e-14,12.7875 C-2.90984168e-14,9.50919398 2.72524658,6.83807105 6.13103973,6.72589032 L6.35410053,6.72222222 L18.7,6.722 L12.8871433,1.17363591 C12.6314429,0.92955823 12.6081974,0.547616521 12.8174068,0.278472652 L12.8871433,0.201364088 C13.1428438,-0.0427135944 13.5429732,-0.0649024746 13.8249334,0.134797447 Z" transform="translate(1 3)"/>
</svg>
