<svg xmlns="http://www.w3.org/2000/svg" width="24" height="24" viewBox="0 0 24 24">
  <path fill="#111" d="M21.5586809,0.194725711 C21.794712,0.430756877 21.8161694,0.800107101 21.623053,1.0603781 L21.5586809,1.13494462 L11.816,10.876 L21.5586809,20.618462 C21.8183152,20.8780963 21.8183152,21.2990466 21.5586809,21.5586809 C21.3226497,21.794712 20.9532995,21.8161694 20.6930285,21.623053 L20.618462,21.5586809 L10.876,11.816 L1.13494462,21.5586809 C0.875310336,21.8183152 0.454359993,21.8183152 0.194725711,21.5586809 C-0.0413054539,21.3226497 -0.0627628326,20.9532995 0.130353575,20.6930285 L0.194725711,20.618462 L9.936,10.876 L0.194725711,1.13494462 C-0.0649085705,0.875310336 -0.0649085705,0.454359993 0.194725711,0.194725711 C0.430756877,-0.0413054539 0.800107101,-0.0627628326 1.0603781,0.130353575 L1.13494462,0.194725711 L10.876,9.936 L20.618462,0.194725711 C20.8780963,-0.0649085705 21.2990466,-0.0649085705 21.5586809,0.194725711 Z" transform="translate(1 1)"/>
</svg>
