<svg xmlns="http://www.w3.org/2000/svg" width="24" height="24" viewBox="0 0 24 24">
  <path fill="#111" d="M9.69596569,0.00036967297 L9.84929392,0.00147711823 L10.4566096,0.0132374128 C10.5569871,0.0161696182 10.6569267,0.0195858036 10.7564032,0.0234828216 L10.7564032,0.0234828216 L11.3475022,0.0526097433 C11.445025,0.0584175028 11.5420339,0.0646998004 11.6385037,0.0714534888 L11.6385037,0.0714534888 L12.210651,0.11760713 L12.7686442,0.174923079 L13.3112679,0.243250267 L13.8373063,0.322437624 L14.345544,0.412334078 L14.8347653,0.51278856 C17.391074,1.07643197 19.0841515,2.08410558 19.0841515,3.43267882 L19.0841515,3.43267882 L19.0841515,18.3667602 C19.0841515,19.7153334 17.391074,20.723007 14.8347653,21.2866504 L14.345544,21.3871049 C14.1792333,21.4188385 14.0097532,21.4488123 13.8373063,21.4770014 L13.3112679,21.5561887 L12.7686442,21.6245159 L12.210651,21.6818319 L11.6385037,21.7279855 C11.5420339,21.7347392 11.445025,21.7410215 11.3475022,21.7468292 L10.7564032,21.7759562 C10.6569267,21.7798532 10.5569871,21.7832694 10.4566096,21.7862016 L9.84929392,21.7979619 C9.74726657,21.7989456 9.64485206,21.799439 9.54207574,21.799439 L9.23485755,21.7979619 L8.62754186,21.7862016 C8.52716441,21.7832694 8.42722477,21.7798532 8.32774825,21.7759562 L7.73664923,21.7468292 C7.63912651,21.7410215 7.54211757,21.7347392 7.44564772,21.7279855 L6.87350047,21.6818319 L6.31550723,21.6245159 L5.77288358,21.5561887 C5.5947057,21.5315946 5.41929202,21.5051904 5.24684513,21.4770014 L4.73860748,21.3871049 L4.2493862,21.2866504 C1.77296215,20.7406209 0.106660343,19.7778794 0.0049348631,18.492187 L0,18.3667602 L0,3.43267882 L0.00600549004,3.29439152 C0.1177904,2.01513882 1.78122608,1.05699599 4.2493862,0.51278856 L4.2493862,0.51278856 L4.73860748,0.412334078 L5.24684513,0.322437624 C5.41929202,0.294248596 5.5947057,0.267844418 5.77288358,0.243250267 L5.77288358,0.243250267 L6.31550723,0.174923079 L6.87350047,0.11760713 L7.44564772,0.0714534888 C7.54211757,0.0646998004 7.63912651,0.0584175028 7.73664923,0.0526097433 L7.73664923,0.0526097433 L8.32774825,0.0234828216 C8.42722477,0.0195858036 8.52716441,0.0161696182 8.62754186,0.0132374128 L8.62754186,0.0132374128 L9.23485755,0.00147711823 L9.54207574,5.70171929e-14 C9.64485206,5.70171929e-14 9.74726657,0.000493421843 9.84929392,0.00147711823 Z M14.0937262,13.9663417 L13.5764362,14.0509025 C13.4010732,14.0773003 13.2228447,14.1019008 13.0419532,14.1246786 L12.4914928,14.1875191 L11.9262706,14.2392727 C11.8309043,14.2469661 11.7349736,14.2541911 11.6385037,14.2609448 L11.0534181,14.2957851 C10.9548931,14.3006406 10.8558797,14.3050185 10.7564032,14.3089155 L10.1541892,14.3265024 C10.0529615,14.3284635 9.95132127,14.3299375 9.84929392,14.3309212 L9.54207574,14.3323983 C9.33652308,14.3323983 9.13241773,14.3304246 8.92996228,14.3265024 L8.32774825,14.3089155 C8.22827172,14.3050185 8.12925833,14.3006406 8.03073338,14.2957851 L7.44564772,14.2609448 C7.34917788,14.2541911 7.25324714,14.2469661 7.15788082,14.2392727 L6.59265863,14.1875191 L6.04219823,14.1246786 C5.8613068,14.1019008 5.68307827,14.0773003 5.50771523,14.0509025 L4.99042523,13.9663417 C3.53604874,13.709101 2.30774343,13.3212722 1.43365429,12.8187807 L1.43478261,18.3667602 C1.43478261,18.6792423 2.17154769,19.2025996 3.57843198,19.6224551 C5.15410572,20.0926823 7.30161283,20.3646564 9.54207574,20.3646564 C11.7825386,20.3646564 13.9300458,20.0926823 15.5057195,19.6224551 C16.8344435,19.2259249 17.5654378,18.7370737 17.6425584,18.4207392 L17.6493689,18.3667602 L17.6504972,12.8187807 C16.776408,13.3212722 15.5481027,13.709101 14.0937262,13.9663417 Z M1.43384752,5.35185115 L1.43478261,10.8997195 L1.43478261,10.8997195 C1.43478261,11.2122016 2.17154769,11.7355589 3.57843198,12.1554144 C5.15410572,12.6256417 7.30161283,12.8976157 9.54207574,12.8976157 C11.7825386,12.8976157 13.9300458,12.6256417 15.5057195,12.1554144 C16.9126038,11.7355589 17.6493689,11.2122016 17.6493689,10.8997195 L17.6494862,5.35232113 C16.6736011,5.91305856 15.2565293,6.33095271 13.5764362,6.58386178 L13.5764362,6.58386178 L13.0419532,6.65763793 C12.9515075,6.66902685 12.8603961,6.67996011 12.7686442,6.69043456 L12.7686442,6.69043456 L12.210651,6.74775051 L11.6385037,6.79390415 C11.5420339,6.80065784 11.445025,6.80694014 11.3475022,6.8127479 L11.3475022,6.8127479 L10.7564032,6.84187482 C10.5574502,6.84966886 10.3566446,6.85553956 10.1541892,6.85946176 L10.1541892,6.85946176 L9.54207574,6.86535764 L8.92996228,6.85946176 C8.72750683,6.85553956 8.52670129,6.84966886 8.32774825,6.84187482 L8.32774825,6.84187482 L7.73664923,6.8127479 C7.63912651,6.80694014 7.54211757,6.80065784 7.44564772,6.79390415 L7.44564772,6.79390415 L6.87350047,6.74775051 L6.31550723,6.69043456 C6.22375539,6.67996011 6.13264395,6.66902685 6.04219823,6.65763793 L6.04219823,6.65763793 L5.50771523,6.58386178 C5.42003372,6.57066284 5.33306858,6.55701453 5.24684513,6.54292002 L5.24684513,6.54292002 L4.73860748,6.45302357 C3.39426275,6.19651071 2.25700734,5.82502045 1.43384752,5.35185115 Z M9.54207574,1.43478261 C7.30161283,1.43478261 5.15410572,1.70675666 3.57843198,2.1769839 C2.17154769,2.59683942 1.43478261,3.12019669 1.43478261,3.43267882 C1.43478261,3.74516096 2.17154769,4.26851822 3.57843198,4.68837374 C5.15410572,5.15860098 7.30161283,5.43057504 9.54207574,5.43057504 C11.7825386,5.43057504 13.9300458,5.15860098 15.5057195,4.68837374 C16.9126038,4.26851822 17.6493689,3.74516096 17.6493689,3.43267882 C17.6493689,3.12019669 16.9126038,2.59683942 15.5057195,2.1769839 C13.9300458,1.70675666 11.7825386,1.43478261 9.54207574,1.43478261 Z" transform="translate(2 1)"/>
</svg>
