<svg xmlns="http://www.w3.org/2000/svg" width="24" height="24" viewBox="0 0 24 24">
  <path fill="#111" d="M16.6173333,-5.16564569e-14 C16.8448948,-5.16564569e-14 17.0564049,0.117229 17.1770122,0.3102007 L17.1770122,0.3102007 L21.8703455,7.81953403 C21.8745429,7.82624986 21.8786141,7.83303256 21.882558,7.83987849 C21.9075364,7.88292006 21.9276956,7.92911475 21.9424087,7.97767646 C21.9609363,8.0391415 21.9706667,8.10388898 21.9706667,8.16933333 L21.9706667,8.16933333 L21.9706667,15.6786667 C21.9706667,16.0431746 21.6751746,16.3386667 21.3106667,16.3386667 L21.3106667,16.3386667 L0.66,16.3386667 C0.295492065,16.3386667 2.494005e-14,16.0431746 2.494005e-14,15.6786667 L2.494005e-14,15.6786667 L2.494005e-14,8.16933333 C2.494005e-14,8.10424857 0.00962371917,8.03985304 0.028293679,7.97816029 C0.0310944677,7.96828653 0.0343089658,7.9584921 0.037743409,7.94880173 C0.053918988,7.90372967 0.0747834906,7.86039424 0.100321119,7.81953403 L0.0609887039,7.89185425 C0.0664835917,7.88001205 0.0723193149,7.86836014 0.0784832765,7.85691112 L0.100321119,7.81953403 L4.79365445,0.3102007 C4.91426177,0.117229 5.12577191,-5.16564569e-14 5.35333333,-5.16564569e-14 L5.35333333,-5.16564569e-14 Z M20.65,8.829 L1.319,8.829 L1.31941333,15.0183733 L20.6503733,15.0183733 L20.65,8.829 Z M17.556,11.264 C17.9205079,11.264 18.216,11.5594921 18.216,11.924 C18.216,12.2581323 17.9677046,12.534272 17.6455581,12.577975 L17.556,12.584 L4.41466667,12.584 C4.05015873,12.584 3.75466667,12.2885079 3.75466667,11.924 C3.75466667,11.5898677 4.00296208,11.313728 4.32510858,11.270025 L4.41466667,11.264 L17.556,11.264 Z M16.2512533,1.31941333 L5.71853333,1.31941333 L1.85,7.509 L20.119,7.509 L16.2512533,1.31941333 Z" transform="translate(1 4)"/>
</svg>
