<svg xmlns="http://www.w3.org/2000/svg" width="24" height="24" viewBox="0 0 24 24">
  <path fill="#111" d="M11,-0.0625 C17.10965,-0.0625 22.0625,4.89034996 22.0625,11 C22.0625,17.10965 17.10965,22.0625 11,22.0625 C4.89034996,22.0625 -0.0625,17.10965 -0.0625,11 C-0.0625,4.89034996 4.89034996,-0.0625 11,-0.0625 Z M11,1.4375 C5.71877708,1.4375 1.4375,5.71877708 1.4375,11 C1.4375,16.2812229 5.71877708,20.5625 11,20.5625 C16.2812229,20.5625 20.5625,16.2812229 20.5625,11 C20.5625,5.71877708 16.2812229,1.4375 11,1.4375 Z M11,6.8125 C13.3126924,6.8125 15.1875,8.68730761 15.1875,11 C15.1875,13.3126924 13.3126924,15.1875 11,15.1875 C8.68730761,15.1875 6.8125,13.3126924 6.8125,11 C6.8125,8.68730761 8.68730761,6.8125 11,6.8125 Z M11,8.3125 C9.51573473,8.3125 8.3125,9.51573473 8.3125,11 C8.3125,12.4842653 9.51573473,13.6875 11,13.6875 C12.4842653,13.6875 13.6875,12.4842653 13.6875,11 C13.6875,9.51573473 12.4842653,8.3125 11,8.3125 Z" transform="translate(1 1)"/>
</svg>
