<?xml version="1.0" encoding="UTF-8"?>
<svg width="24px" height="24px" viewBox="0 0 24 24" version="1.1" xmlns="http://www.w3.org/2000/svg" xmlns:xlink="http://www.w3.org/1999/xlink">
    <title>uranus-icon/ln-dns 03@1x</title>
    <g id="uranus-icon/ln-dns-03" stroke="none" stroke-width="1" fill="none" fill-rule="evenodd">
        <path d="M12.2872058,22.9504747 L12,22.9541667 L11.7127942,22.9504747 C7.78835708,22.8494698 4.37734805,20.6844692 2.52502418,17.5007301 L4.15684146,17.5009853 C5.3564702,19.2082299 7.09938532,20.5060296 9.13438322,21.1431807 C8.48278134,20.2106739 7.9496716,18.9619592 7.56913346,17.5014298 L8.99931903,17.5008758 C9.67902179,19.8925958 10.7632394,21.4719092 11.884631,21.5739116 L12,21.5791667 L12.1133673,21.5740921 C13.2355364,21.4737823 14.3207017,19.8938326 15.0008012,17.5004528 L16.4309448,17.5014141 C16.0504864,18.9619275 15.5175377,20.21061 14.866261,21.1430517 C16.9009027,20.5059719 18.6436586,19.2082041 19.8432161,17.5009738 L21.4748819,17.5008916 C19.6225366,20.6845424 16.2115766,22.8494715 12.2872058,22.9504747 Z M12,1.04583333 C16.0451138,1.04583333 19.5781202,3.23842587 21.47539,6.49998174 L19.8438641,6.50001897 C18.6442133,4.79227903 16.9010137,3.49409534 14.8656168,2.85681928 C15.5173354,3.78941898 16.0505392,5.03845784 16.4311023,6.49943145 L15.0008765,6.49981225 C14.297903,4.02576415 13.1621054,2.42083333 12,2.42083333 L11.8866327,2.42590794 C10.7643852,2.52622475 9.67914668,4.10638819 8.99905626,6.50004892 L7.56883761,6.4994212 C7.94933939,5.03843714 8.48241943,3.78937717 9.13388812,2.85673486 L9.12044191,2.86119603 C7.09094105,3.50005422 5.35290037,4.79628857 4.15598455,6.50023437 L2.52461005,6.49998174 C4.4218798,3.23842587 7.95488619,1.04583333 12,1.04583333 Z" id="Combined-Shape" fill="#111111" fill-rule="nonzero"></path>
        <path d="M3.41624101,15.4035629 C4.10849739,15.4035629 4.70368256,15.2672209 5.20179652,14.9945368 C5.69991049,14.7218527 6.08264839,14.3305622 6.35001022,13.8206651 C6.61737206,13.310768 6.75105298,12.7011085 6.75105298,11.9916865 C6.75105298,11.2844814 6.61737206,10.6770388 6.35001022,10.1693587 C6.08264839,9.66167854 5.70157456,9.27205067 5.20678876,9.00047506 C4.71200295,8.72889945 4.12181001,8.59311164 3.43620994,8.59311164 L3.43620994,8.59311164 L1,8.59311164 L1,15.4035629 L3.41624101,15.4035629 Z M3.35633421,14.1698337 L2.4410914,14.1698337 L2.4410914,9.82684086 L3.35966236,9.82684086 C3.78566629,9.82684086 4.14399771,9.90221694 4.43465664,10.0529691 C4.72531557,10.2037213 4.94441915,10.4387173 5.09196738,10.7579572 C5.23951562,11.0771971 5.31328974,11.4884402 5.31328974,11.9916865 C5.31328974,12.4993666 5.23951562,12.9133808 5.09196738,13.2337292 C4.94441915,13.5540776 4.72476088,13.7901821 4.43299256,13.9420428 C4.14122425,14.0939034 3.78233813,14.1698337 3.35633421,14.1698337 L3.35633421,14.1698337 Z M10.8191653,15.4035629 L10.8191653,11.1171021 L10.8690877,11.1171021 L13.8344744,15.4035629 L15.0792046,15.4035629 L15.0792046,8.59311164 L13.6447695,8.59311164 L13.6447695,12.876247 L13.5848627,12.876247 L10.6427731,8.59311164 L9.37807393,8.59311164 L9.37807393,15.4035629 L10.8191653,15.4035629 Z M20.3541162,15.5 C20.9088089,15.5 21.383071,15.4163104 21.7769028,15.2489311 C22.1707345,15.0815519 22.4724873,14.8454473 22.6821611,14.5406176 C22.8918349,14.2357878 22.9977812,13.8749802 23,13.4581948 C22.9977812,13.174426 22.9461948,12.9228029 22.8452408,12.7033254 C22.7442867,12.483848 22.6028401,12.2931908 22.4209009,12.1313539 C22.2389617,11.969517 22.023741,11.833175 21.7752387,11.7223278 C21.5267364,11.6114806 21.2538277,11.5228029 20.9565124,11.4562945 L20.9565124,11.4562945 L20.3441318,11.3099762 C20.1954742,11.2767221 20.0556916,11.2362629 19.9247842,11.1885986 C19.7938767,11.1409343 19.6785007,11.0844022 19.578656,11.0190024 C19.4788113,10.9536025 19.4005997,10.8754553 19.344021,10.7845606 C19.2874424,10.6936659 19.2613718,10.5872526 19.2658093,10.4653207 C19.2658093,10.3190024 19.3085207,10.1882027 19.3939433,10.0729216 C19.479366,9.95764054 19.6030625,9.86730008 19.7650327,9.80190024 C19.9270029,9.7365004 20.1255829,9.70380048 20.3607726,9.70380048 C20.7069007,9.70380048 20.9809189,9.77806809 21.182827,9.92660333 C21.3847351,10.0751386 21.4990018,10.2835313 21.525627,10.5517815 L21.525627,10.5517815 L22.9068116,10.5517815 C22.9001553,10.1460808 22.7914356,9.78915281 22.5806524,9.48099762 C22.3698692,9.17284244 22.0753274,8.93230404 21.6970271,8.75938242 C21.3187267,8.58646081 20.8766367,8.5 20.370757,8.5 C19.8737524,8.5 19.4299984,8.58646081 19.0394948,8.75938242 C18.6489912,8.93230404 18.3422462,9.17284244 18.1192597,9.48099762 C17.8962733,9.78915281 17.7858895,10.1494062 17.7881082,10.5617577 C17.7858895,11.065004 17.9511879,11.4651623 18.2840034,11.7622328 C18.616819,12.0593032 19.0705576,12.2776722 19.6452191,12.4173397 L19.6452191,12.4173397 L20.3873978,12.6035629 C20.6359001,12.6634204 20.8461286,12.7299287 21.0180833,12.8030879 C21.190038,12.876247 21.3209455,12.9649248 21.4108057,13.0691211 C21.5006659,13.1733175 21.545596,13.3019002 21.545596,13.4548694 C21.545596,13.6189232 21.4956736,13.764133 21.395829,13.8904988 C21.2959843,14.0168646 21.1556471,14.1155186 20.9748173,14.1864608 C20.7939875,14.257403 20.5815402,14.2928741 20.3374755,14.2928741 C20.0889732,14.2928741 19.8665414,14.2546318 19.6701803,14.1781473 C19.4738191,14.1016627 19.3173958,13.9874901 19.2009103,13.8356295 C19.0844249,13.6837688 19.0184164,13.4936659 19.0028851,13.2653207 L19.0028851,13.2653207 L17.6083878,13.2653207 C17.6194817,13.7552652 17.7387406,14.1659541 17.9661646,14.4973872 C18.1935885,14.8288203 18.5108727,15.0787807 18.9180171,15.2472684 C19.3251615,15.4157561 19.8038612,15.5 20.3541162,15.5 Z" id="DNS" fill="#111111" fill-rule="nonzero"></path>
    </g>
</svg>