<svg xmlns="http://www.w3.org/2000/svg" width="24" height="24" viewBox="0 0 24 24">
  <path fill="#111" d="M10.5815217,0 C13.4011573,0 15.9716593,1.45002678 18.2519453,3.83889783 C19.0362767,4.66057831 19.730618,5.53848114 20.3293961,6.41668907 C20.5393489,6.72461985 20.7227151,7.01119207 20.8786528,7.26941156 L20.8786528,7.26941156 L20.9322355,7.3588082 L21.0754468,7.6075626 C21.1931767,7.8234007 21.192177,8.08449369 21.0727978,8.29942394 L21.0727978,8.29942394 L20.979372,8.46382647 L20.7957612,8.76989126 C20.7280424,8.87957508 20.6538402,8.9966597 20.5732505,9.12036088 L20.5732505,9.12036088 L20.3124145,9.51052985 L20.1678041,9.71903113 C19.5494814,10.5998075 18.844066,11.4651869 18.0563739,12.2649974 C15.8196639,14.5361183 13.3152286,15.9021739 10.5815217,15.9021739 C7.84781489,15.9021739 5.34337963,14.5361183 3.10666962,12.2649974 C2.31897749,11.4651869 1.61356212,10.5998075 0.995239339,9.71903113 C0.895702492,9.57724483 0.802409525,9.44089872 0.715434666,9.31073842 L0.715434666,9.31073842 L0.47353864,8.93956062 C0.436406431,8.88103911 0.400872307,8.82425045 0.366945544,8.76928787 L0.366945544,8.76928787 L0.182747542,8.46217076 L0.0902456876,8.29942394 C-0.0291335308,8.08449369 -0.0301332147,7.8234007 0.0875966596,7.6075626 L0.0875966596,7.6075626 L0.230807979,7.3588082 L0.406473666,7.07054009 C0.533673167,6.86657105 0.676182772,6.64763715 0.833647374,6.41668907 C1.43242551,5.53848114 2.12676683,4.66057831 2.9110982,3.83889783 C5.19138421,1.45002678 7.76188623,0 10.5815217,0 Z M10.5815217,1.43478261 C8.22248878,1.43478261 5.98422722,2.6973917 3.94895616,4.82958043 C3.22284255,5.59027087 2.57627865,6.40776546 2.019104,7.22495495 C1.92178866,7.36768411 1.83083113,7.50515668 1.746367,7.63648088 L1.746367,7.63648088 L1.54813044,7.95108696 L1.79556599,8.34270703 C1.86952749,8.45613465 1.94964547,8.57611221 2.03579978,8.70184045 L2.03579978,8.70184045 L2.16954345,8.89464592 C2.74488305,9.71419441 3.40101282,10.519112 4.12892897,11.2582268 C6.12113574,13.2810829 8.29603443,14.4673913 10.5815217,14.4673913 C12.8670091,14.4673913 15.0419078,13.2810829 17.0341145,11.2582268 C17.7620307,10.519112 18.4181604,9.71419441 18.9935,8.89464592 L18.9935,8.89464592 L19.2519114,8.51769963 L19.473615,8.17788688 L19.6139565,7.95108696 L19.5384857,7.82874444 L19.2851272,7.43499477 L19.1439395,7.22495495 C18.5867648,6.40776546 17.9402009,5.59027087 17.2140873,4.82958043 C15.1788163,2.6973917 12.9405547,1.43478261 10.5815217,1.43478261 Z M10.5815217,3.94565217 C12.7936623,3.94565217 14.5869565,5.73894641 14.5869565,7.95108696 C14.5869565,10.1632275 12.7936623,11.9565217 10.5815217,11.9565217 C8.3693812,11.9565217 6.57608696,10.1632275 6.57608696,7.95108696 C6.57608696,5.73894641 8.3693812,3.94565217 10.5815217,3.94565217 Z M10.5815217,5.38043478 C9.16178975,5.38043478 8.01086957,6.53135496 8.01086957,7.95108696 C8.01086957,9.37081895 9.16178975,10.5217391 10.5815217,10.5217391 C12.0012537,10.5217391 13.1521739,9.37081895 13.1521739,7.95108696 C13.1521739,6.53135496 12.0012537,5.38043478 10.5815217,5.38043478 Z" transform="translate(1 4)"/>
</svg>
