<svg xmlns="http://www.w3.org/2000/svg" width="24" height="24" viewBox="0 0 24 24">
  <path fill="#111" d="M0.000271715747,10.617332 L0.00122422669,10.5675543 C0.105332501,4.70126441 4.89830687,-0.0054355903 10.775246,0.00721134642 L10.775246,0.00721134642 L10.7466337,0.00772053871 C14.7902912,-0.144962741 18.5797175,1.97675279 20.5631163,5.50415408 C21.2159817,6.66616567 21.5548394,7.97829592 21.5463602,9.30862496 C21.5410284,11.2756438 20.4933905,13.0924291 18.7989096,14.0791383 C17.9685682,14.5722268 17.0211366,14.8334993 16.0940495,14.8345779 L16.0940495,14.8345779 L15.7803014,14.8453141 C14.6305603,14.8593692 13.4903597,14.5952124 12.4318331,14.0597259 C12.0212375,13.825351 11.7507645,13.4054415 11.7041067,12.8685178 C11.7041067,12.5338515 11.8321232,12.2742794 12.0366558,12.0555533 L12.0366558,12.0555533 L12.1096986,11.9815298 L12.1216385,11.9719036 L12.2271239,11.8282118 C12.4290027,11.5254215 12.5494823,11.1800952 12.5742088,10.8584082 L12.5742088,10.8584082 L12.5743272,10.764395 C12.5675261,10.3901276 12.4429315,10.0275252 12.2166906,9.72603566 C11.8757024,9.26818884 11.3397064,8.99678925 10.7825289,8.99288695 C10.4719629,8.99670843 10.1669824,9.07598051 9.8960321,9.22269445 C9.33970878,9.52642127 8.99067997,10.106812 8.98325982,10.7321473 C8.98325982,13.5275014 11.8085759,15.8556936 15.2252679,15.8556948 C16.1024273,15.857318 16.9726869,15.7007051 17.7944791,15.3932919 C18.048942,15.2982032 18.2974059,15.1877748 18.5171967,15.0741361 L18.5171967,15.0741361 L18.6321237,15.0184728 C19.0224104,14.8583951 19.4772042,14.9518491 19.7727407,15.2648462 C20.0978309,15.609143 20.1466617,16.1305923 19.8912455,16.5291044 C18.5493136,18.624033 16.5366118,20.2019663 14.1798051,21.0058506 L14.1989707,20.9996502 C14.1914177,21.0023196 14.1837935,21.0048741 14.1760993,21.0073109 L14.1458232,21.0172599 C8.96953211,22.7457095 3.31746846,20.3110577 1.01823536,15.3547245 C0.340540381,13.8797638 -0.00689525254,12.2745459 0.000103677872,10.6468444 L0.000103677872,10.6468444 L0.000271715747,10.617332 L0.000271715747,10.617332 Z M7.57800294,11.3018185 L7.47196535,11.4803138 C6.4046022,13.3474244 6.46240331,15.7465027 7.81607784,17.6016086 C8.18659087,18.1235932 8.6446622,18.5765758 9.16934627,18.9408328 L9.37813695,19.0771341 L9.40507295,19.0917278 C10.6248674,19.8529644 12.1009802,20.0750784 13.4846372,19.7140282 L13.7328805,19.6423338 C15.2357878,19.1270855 16.577909,18.2486302 17.6459737,17.09574 L17.6459737,17.09574 L17.8232674,16.8962645 L17.6334265,16.9555838 C16.9624009,17.1470351 16.270545,17.2574368 15.5730736,17.2841222 L15.5730736,17.2841222 L15.2239404,17.2904762 C11.2918367,17.2904762 7.92511613,14.6885554 7.57800294,11.3018185 Z M6.99685529,6.16945543 C3.97404062,6.16945543 1.50656751,8.17212622 1.4362107,10.5792903 L1.43485451,10.6575037 C1.42878389,12.0719135 1.73150867,13.4705589 2.32088691,14.7533151 C3.4215852,17.1260258 5.41047008,18.8315721 7.72642626,19.6293882 C7.39846214,19.3427385 7.09944268,19.0257536 6.83306038,18.6837414 L6.65157689,18.4397315 C4.35289252,15.2896941 5.04270872,10.872682 8.19093357,8.57461068 C8.51132665,8.3394849 8.85214961,8.13354958 9.20931168,7.95927647 L9.2471896,7.94270468 C9.71545461,7.69657627 10.235869,7.56472563 10.7785584,7.55817508 C10.8547328,7.55869074 10.93056,7.56187053 11.0059204,7.56765332 C10.6951156,7.29980908 10.3499441,7.07060986 9.9781636,6.88611697 C9.0487384,6.42496147 8.02706184,6.17995171 6.99685529,6.16945543 Z M11.1095333,1.43489878 L10.8007706,1.44148144 L10.5084169,1.44508518 C7.22520739,1.52929951 4.36036417,3.31326974 2.76764259,5.95275411 C3.95068911,5.1875607 5.42402163,4.73470979 7.00413832,4.73470979 C8.25795445,4.74743932 9.4926604,5.04353598 10.6159151,5.6008644 C11.7636276,6.17040698 12.7144547,7.07064289 13.3562881,8.20466096 C13.782839,9.01427975 14.0073902,9.91499959 14.0108214,10.8301043 L14.007,10.875 L14.0071429,10.909875 C13.9613815,11.5460953 13.745363,12.156752 13.3885647,12.6720632 L13.2482239,12.8606993 L13.3831655,12.9249417 C14.1173095,13.248278 14.9137386,13.4138179 15.7406759,13.4102254 L15.7406759,13.4102254 L16.2878868,13.3933666 C16.9147129,13.3545417 17.5250309,13.1669212 18.0716069,12.8423707 C19.3312494,12.1088486 20.1076315,10.7624677 20.1117214,9.30211062 C20.1184982,8.21839508 19.8430073,7.1516347 19.3123609,6.20715617 C17.5926945,3.14879333 14.3069522,1.30909256 10.8007706,1.44148144 Z" transform="translate(1 1)"/>
</svg>
