<svg xmlns="http://www.w3.org/2000/svg" width="24" height="24" viewBox="0 0 24 24">
  <path fill="#111" d="M7.5625,-0.0625 C7.81326489,-0.0625 8.04743839,0.0628258515 8.18653772,0.271474853 L8.18653772,0.271474853 L10.713,4.062 L21.3125,4.0625 C21.6921958,4.0625 22.005991,4.34465388 22.0556534,4.71072944 L22.0556534,4.71072944 L22.0625,4.8125 L22.0625,18.5625 C22.0625,20.4960886 20.4960886,22.0625 18.5625,22.0625 L18.5625,22.0625 L3.4375,22.0625 C1.50391144,22.0625 -0.0625,20.4960886 -0.0625,18.5625 L-0.0625,18.5625 L-0.0625,0.6875 C-0.0625,0.273286438 0.273286438,-0.0625 0.6875,-0.0625 L0.6875,-0.0625 Z M20.5615,9.6875 L1.4365,9.6875 L1.4375,18.5625 C1.4375,19.5646805 2.17334294,20.3939084 3.13458958,20.5397446 L3.28816411,20.5570178 L3.4375,20.5625 L18.5625,20.5625 C19.6676614,20.5625 20.5625,19.6676614 20.5625,18.5625 L20.5625,18.5625 L20.5615,9.6875 Z M7.161,1.437 L1.437,1.437 L1.4365,8.1875 L20.5615,8.1875 L20.562,5.562 L10.3125,5.5625 C10.0975587,5.5625 9.89480693,5.47042386 9.75366833,5.31272227 L9.75366833,5.31272227 L9.68846228,5.22852515 L7.161,1.437 Z" transform="translate(1 1)"/>
</svg>
