<svg xmlns="http://www.w3.org/2000/svg" width="24" height="24" viewBox="0 0 24 24">
  <path fill="#111" d="M11,-0.39516129 C13.6335596,-0.39516129 16.0585111,0.498318132 17.9882509,1.99867318 L18.285,2.238 L18.4572071,2.38364323 C20.8003836,4.4133898 22.3072458,7.38292497 22.3914394,10.7058945 L22.3951613,11 C22.3951613,17.2931813 17.2931813,22.3951613 11,22.3951613 C4.7068187,22.3951613 -0.39516129,17.2931813 -0.39516129,11 C-0.39516129,9.35064064 -0.0443268901,7.75085448 0.623705403,6.28454451 L0.689,6.145 L0.685816522,6.11674863 C0.577769726,5.28068889 0.63887116,4.35766791 0.989887276,3.45438531 L1.10401032,3.18409938 C1.32860281,2.69228824 1.6355172,2.24028027 2.03119775,1.83971046 C2.49208328,1.37312996 3.28761617,1.68112683 3.31415966,2.33641934 L3.32487401,2.48702581 L3.335,2.565 L3.51844505,2.40295571 C5.48827275,0.701725567 8.00544559,-0.308611894 10.6538464,-0.389853158 L11,-0.39516129 Z M2.347,4.114 L2.29318042,4.27831856 C2.15328102,4.75504092 2.11608751,5.24361937 2.15044704,5.69949255 L2.18171063,5.98463606 L2.19982528,6.09026551 C2.23803208,6.2590961 2.21666309,6.43594531 2.13934286,6.59081658 C1.4619806,7.94756308 1.10483871,9.44695624 1.10483871,11 C1.10483871,16.4647542 5.53524582,20.8951613 11,20.8951613 C16.4647542,20.8951613 20.8951613,16.4647542 20.8951613,11 C20.8951613,8.99498551 20.2987616,7.12920974 19.2736943,5.57040475 L19.07,5.272 L19.0970505,5.53278074 C19.8262433,13.2960592 13.7920548,19.5010138 7.700954,15.2903093 L7.49329063,15.1427145 C6.88361599,14.6974767 7.2448304,13.7803326 7.92468855,13.7844227 L8.12601248,13.7877038 L8.31497847,13.7853084 C8.59965851,13.7800499 8.89996561,13.7676555 9.19632489,13.7464525 L9.60432265,13.7107154 C10.1886838,13.6494261 10.6402458,13.5548811 10.845072,13.4449165 L10.9887154,13.3628011 L11.175524,13.246354 L11.6382432,12.949347 L11.8956755,12.7922947 L12.034,12.715 L12.0129902,12.7065289 C11.8392276,12.6445984 11.6595458,12.6333613 11.4864284,12.687213 L11.3834456,12.7274498 C8.59376799,14.0485195 5.66540819,12.2833831 6.259531,10.1720294 C6.34836636,9.85444304 6.57740288,9.50197592 6.86400666,9.30098126 L6.913,9.27 L7.11940401,9.10497757 L7.76397452,8.60697701 L8.54355352,8.01696435 L8.82229368,7.79822129 L8.95153094,7.69445366 C9.24378134,7.45778485 9.48607396,7.24420061 9.66400962,7.07231901 L9.81,6.924 L9.7947125,6.92315548 C9.64452696,6.91624388 9.47943736,6.9116124 9.30761522,6.90918822 L8.84659266,6.90784583 C7.78862047,6.91650885 6.89597043,6.19307213 6.96617049,5.24616098 C6.9784223,5.07775429 7.01081841,4.90941862 7.06377666,4.74046428 L7.097,4.645 L6.98665181,4.76687567 L6.86278109,4.91576374 C6.67723656,5.11888618 6.39537536,5.20412083 6.12836655,5.13785025 C5.94646434,5.0927028 5.71119541,5.06696444 5.43784303,5.06138336 C5.09798024,5.05444432 4.72506794,5.07839097 4.35282486,5.12287594 L3.93404169,5.18079392 L3.86919881,5.16511496 L3.446,5.034 L3.41260038,5.09361686 C3.00343535,4.85443477 2.68267984,4.56711657 2.43926167,4.24452272 L2.347,4.114 Z M11,1.10483871 C8.62246228,1.10483871 6.34535109,1.97183785 4.56774794,3.47924831 L4.42,3.607 L4.50210114,3.59907283 C4.72017614,3.57939455 4.93754137,3.5664951 5.15117897,3.56197988 L5.46846239,3.5616959 C5.59390413,3.56425707 5.71549562,3.57011773 5.83309673,3.57958114 L6.025,3.599 L6.10411814,3.51742238 C6.1578589,3.46452659 6.21361703,3.41255149 6.27172916,3.36149887 L6.45346414,3.21111027 C7.22242682,2.612006 8.17472615,2.31180002 9.29844688,2.47551225 C9.94220662,2.56930009 10.1694409,3.38214646 9.66764426,3.79617894 C8.83257003,4.48519881 8.48823149,4.99741393 8.462141,5.3560298 C8.46286255,5.3462969 8.47224878,5.34653408 8.4913833,5.35178879 L8.57911532,5.37765291 C8.63868736,5.39315869 8.72263115,5.40881061 8.83460384,5.40789377 C9.64805384,5.40155108 10.3618869,5.42810544 10.8620116,5.55326324 C11.6502551,5.84295955 11.6502551,6.60468033 11.3838714,7.25694546 C11.2113138,7.67807743 10.7916955,8.1177695 10.0930232,8.69825733 L9.75748905,8.97100061 L9.29116712,9.33233041 L8.15034218,10.1997587 L7.90446809,10.3936153 L7.87055142,10.4230931 C7.84432566,10.4485659 7.81638116,10.4719831 7.78697249,10.4932118 L7.743,10.519 L7.70590046,10.5757852 C7.5088585,11.2700807 8.90160916,12.1366955 10.5682472,11.4485246 L10.7415811,11.3717175 C11.8944491,10.8260267 12.9935325,11.2998478 13.7220115,12.1378525 C14.4611285,12.9831089 13.8738928,14.2182188 12.6406214,14.0366079 L12.7035288,14.0509875 C12.7130543,14.0555432 12.7121054,14.0603113 12.7035896,14.0666417 L12.5543478,14.1488211 L11.8516997,14.5933396 L11.6495412,14.7140494 C11.6179504,14.7319873 11.5867364,14.7492235 11.5548875,14.7663407 C11.3904657,14.8546135 11.1591971,14.932367 10.8905111,14.9993065 L10.798,15.02 L10.9610385,15.0478056 C15.3420459,15.6931934 18.9691561,10.0179206 17.2197187,3.55256805 L17.128,3.23 L16.9268055,3.07554522 C15.3435843,1.88950383 13.39324,1.1668061 11.2769609,1.10864039 L11,1.10483871 Z" transform="translate(1 1)"/>
</svg>
