<svg xmlns="http://www.w3.org/2000/svg" width="24" height="24" viewBox="0 0 24 24">
  <path fill="#111" d="M12.9875192,2.59474981e-14 C13.0253981,2.59474981e-14 13.062594,0.00292411171 13.0988935,0.0085589183 C13.1046337,0.00955862549 13.1103619,0.010526397 13.116074,0.0115626098 C13.1822803,0.0233734651 13.2452944,0.0443321398 13.3038454,0.0730018364 C13.3155369,0.0788908353 13.3273657,0.0850788369 13.3390222,0.0915960842 C13.3611,0.103838265 13.3820489,0.117066272 13.4022332,0.131305714 C13.4354081,0.154691638 13.4672577,0.181406107 13.4968044,0.210952854 L13.4264622,0.149165803 C13.4457496,0.164012682 13.4642635,0.179814775 13.4819333,0.196501284 L13.4968044,0.210952854 L18.9489294,5.66307779 C18.9523847,5.66653309 18.9558012,5.67001988 18.9591788,5.6735375 C18.9773373,5.69243452 18.9945844,5.71246423 19.0107054,5.73340567 C19.0182906,5.74333854 19.0254067,5.75310754 19.0322644,5.76303609 C19.0453385,5.7817787 19.0578427,5.80183441 19.0693575,5.82251647 C19.0758772,5.8345336 19.082,5.84632748 19.0877903,5.85827687 C19.097849,5.87862004 19.1068261,5.89957773 19.1148111,5.92101838 C19.1191475,5.93321513 19.1234053,5.94567386 19.1273205,5.95824737 C19.1392287,5.99593469 19.147899,6.03476463 19.1533073,6.07463099 L19.1598822,6.17236303 L19.1598822,21.1657066 C19.1598822,21.5634831 18.8374207,21.8859447 18.4396441,21.8859447 L18.4396441,21.8859447 L0.720238095,21.8859447 C0.322461579,21.8859447 -4.87229305e-14,21.5634831 -4.87229305e-14,21.1657066 L-4.87229305e-14,21.1657066 L-4.87229305e-14,0.720238095 C-4.87229305e-14,0.322461579 0.322461579,-2.33464042e-14 0.720238095,-2.33464042e-14 L0.720238095,-2.33464042e-14 L12.9875192,2.59474981e-14 L12.9875192,2.59474981e-14 Z M12.267,1.439 L1.43967076,1.43967076 L1.43967076,20.4453136 L17.7189724,20.4453136 L17.718,6.892 L12.9875192,6.89260113 C12.6228907,6.89260113 12.3215477,6.62164383 12.273856,6.27009507 L12.2672811,6.17236303 L12.267,1.439 Z M13.707,2.459 L13.7077263,5.45187711 L16.7,5.452 L13.707,2.459 Z" transform="translate(2 1)"/>
</svg>
