<svg xmlns="http://www.w3.org/2000/svg" width="24" height="24" viewBox="0 0 24 24">
  <path fill="#111" d="M22.2869288,5 C22.6807471,5 23,5.31925285 23,5.7130712 L23,5.7130712 L23,18.743181 C23,19.1369994 22.6807471,19.4562522 22.2869288,19.4562522 L22.2869288,19.4562522 L1.7130712,19.4562522 C1.31925285,19.4562522 1,19.1369994 1,18.743181 L1,18.743181 L1,5.7130712 C1,5.31925285 1.31925285,5 1.7130712,5 L1.7130712,5 Z M21.5732186,6.42583068 L2.42583068,6.42583068 L2.42583068,18.029876 L21.5732186,18.029876 L21.5732186,6.42583068 Z M7.66303082,10.1865136 C7.98724189,10.448334 8.16261757,10.852377 8.13245767,11.2680128 C8.1366895,11.5378338 8.05503369,11.8020143 7.89928728,12.0223875 C7.73103526,12.2514145 7.50270188,12.429429 7.23955225,12.536734 C7.96169465,13.6150327 8.4320359,14.3122579 8.65057598,14.6284095 L7.5214141,14.6284095 L6.37647892,12.7873921 L5.83504357,12.7873921 L5.83504357,14.6284095 L4.81800921,14.6284095 L4.81800921,9.8305859 L6.21565994,9.8305859 C6.72370092,9.79217566 7.23074568,9.9168647 7.66303082,10.1865136 Z M11.72191,9.81104074 L13.4216536,14.6284095 L12.3260956,14.6284095 L11.9780546,13.4862175 L10.2292767,13.4862175 L9.88089267,14.6284095 L8.78533475,14.6284095 L10.4782203,9.81104074 L11.72191,9.81104074 Z M14.2884988,9.8305859 L14.9026284,12.449638 C15.0096125,12.9331236 15.0871073,13.3520302 15.135113,13.7063578 C15.1486003,13.581543 15.178661,13.3884917 15.2252951,13.1272037 C15.2722721,12.8655728 15.3171916,12.6629203 15.3586823,12.5182175 L16.0571647,9.8305859 L17.0189926,9.8305859 L17.7181608,12.5182175 C17.7483358,12.6385746 17.7867403,12.8223677 17.8326886,13.0695969 C17.8786369,13.3168261 17.9136125,13.5290797 17.9376153,13.7063578 C17.9599036,13.534909 17.9945363,13.3229982 18.0428849,13.0678824 C18.0912334,12.8127666 18.1347814,12.6066851 18.1742147,12.4506667 L18.7842295,9.83161459 L19.7854906,9.83161459 L18.5647751,14.6284095 L17.406124,14.6284095 L16.756333,12.1081119 C16.7334731,12.0185014 16.6924397,11.833108 16.6332327,11.551932 C16.5740257,11.2707559 16.5407647,11.0820479 16.5334495,10.985808 C16.5201908,11.104222 16.4873869,11.294073 16.4350379,11.555361 C16.3826889,11.816649 16.3422269,12.003071 16.3136521,12.114627 L15.6666043,14.6284095 L14.5113822,14.6284095 L13.2879235,9.8305859 L14.2884988,9.8305859 Z M11.1053801,10.5558144 C11.033143,10.836076 10.8263757,11.5285006 10.4850783,12.6330882 L11.7356259,12.6330882 C11.5518328,12.041998 11.413946,11.597584 11.3219654,11.2998462 L11.237854,11.0267703 C11.2162725,10.9563713 11.2011465,10.9065987 11.1924761,10.8774524 C11.1513284,10.7420078 11.1238966,10.6346808 11.1053801,10.5558144 Z M6.14330854,10.66417 L5.83470067,10.66417 L5.83504357,11.9603231 L6.1635395,11.9603231 C6.41151624,11.978415 6.65927894,11.9224416 6.87539497,11.7995041 C7.03383077,11.6817721 7.12061121,11.4908552 7.10513638,11.294073 C7.12224472,11.1013996 7.03215459,10.9148973 6.8705944,10.8085299 C6.64509233,10.6972508 6.39421651,10.6474541 6.14330854,10.66417 Z"/>
</svg>
