<svg xmlns="http://www.w3.org/2000/svg" width="24" height="24" viewBox="0 0 24 24">
  <path fill="#111" d="M11.4654599,0.306140329 L11.5203857,0.399856757 L14.4927478,6.42103148 L21.1391964,7.38718895 C21.6929853,7.46767554 21.933675,8.11292937 21.6051125,8.53457946 L21.5367735,8.61082602 L17.7075861,12.3435037 C17.4238749,12.6200643 16.9696848,12.6142676 16.6931242,12.3305564 C16.4417055,12.0726371 16.4236399,11.6738262 16.6355895,11.3956626 L16.7060715,11.3160945 L19.4944,8.59711844 L13.9130219,7.78680805 C13.7127616,7.7577026 13.5357647,7.64573838 13.4234736,7.48102385 L13.3729121,7.39441011 L10.8770957,2.33764018 L8.38127927,7.39441011 C8.29170796,7.57587174 8.1305238,7.70960113 7.9391691,7.76548982 L7.8411694,7.78680805 L2.2588348,8.59711844 L6.29837111,12.5344183 C6.44329457,12.6756773 6.52068737,12.8703066 6.51471521,13.0695796 L6.50470874,13.1693775 L5.55118262,18.7276402 L9.81774999,16.4868207 C10.1392512,16.3178771 10.5304951,16.4171649 10.7354293,16.7050364 L10.7865088,16.7881626 C10.9554524,17.1096638 10.8561647,17.5009077 10.5682932,17.7058419 L10.485167,17.7569214 L4.93259126,20.6747085 C4.43555008,20.9358955 3.85939721,20.5518098 3.88155122,20.0146975 L3.89180943,19.9184246 L5.02605219,13.2984228 L0.217439411,8.61084707 C-0.183306073,8.22023473 0.00122747623,7.55671408 0.514888981,7.40870668 L0.614994944,7.38718895 L7.26048697,6.42103148 L10.2338056,0.399856757 C10.4805223,-0.0999641891 11.1641316,-0.131202998 11.4654599,0.306140329 Z M21.0360162,18.3687796 C21.4322205,18.3687796 21.7534075,18.6899666 21.7534075,19.0861709 C21.7534075,19.4493582 21.4835212,19.7495101 21.133362,19.7970133 L21.0360162,19.8035622 L13.0540072,19.8035622 C12.6578029,19.8035622 12.3366159,19.4823752 12.3366159,19.0861709 C12.3366159,18.7229837 12.6065022,18.4228317 12.9566615,18.3753285 L13.0540072,18.3687796 L21.0360162,18.3687796 Z M21.0360162,14.0149565 C21.4322205,14.0149565 21.7534075,14.3361435 21.7534075,14.7323478 C21.7534075,15.0955351 21.4835212,15.395687 21.133362,15.4431902 L21.0360162,15.4497391 L13.0540072,15.4497391 C12.6578029,15.4497391 12.3366159,15.1285521 12.3366159,14.7323478 C12.3366159,14.3691606 12.6065022,14.0690086 12.9566615,14.0215055 L13.0540072,14.0149565 L21.0360162,14.0149565 Z" transform="translate(1 1)"/>
</svg>
