<svg xmlns="http://www.w3.org/2000/svg" width="24" height="24" viewBox="0 0 24 24">
  <path fill="#111" d="M1.82824074,20.8592593 C1.82824074,21.238955 1.52043651,21.5467593 1.14074074,21.5467593 C0.792686289,21.5467593 0.505040693,21.2881182 0.459516805,20.9525489 L0.453240741,20.8592593 L0.453240741,1.14074074 C0.453240741,0.761044975 0.761044975,0.453240741 1.14074074,0.453240741 C1.48879519,0.453240741 1.77644079,0.711881799 1.82196468,1.04745106 L1.82824074,1.14074074 L1.82824074,1.34924074 L12.3444444,1.34953704 C12.6924989,1.34953704 12.9801445,1.6081781 13.0256684,1.94374736 L13.0319444,2.03703704 L13.0312407,4.93424074 L18.6185185,4.93472222 C19.0564931,4.93472222 19.3743374,5.33519722 19.2941215,5.75053979 L19.2707383,5.83962881 L17.5505,11 L19.2707383,16.1603712 C19.409238,16.5758703 19.1298253,17.0040453 18.7104302,17.0592886 L18.6185185,17.0652778 L6.51851852,17.0652778 C6.4220469,17.0652778 6.33021622,17.0454076 6.24689587,17.0095366 C6.12171363,16.95572 6.01549506,16.8654661 5.94177902,16.7521287 C5.91256628,16.7064442 5.89062105,16.662528 5.87351027,16.6162677 C5.84602196,16.5419314 5.83101852,16.4616067 5.83101852,16.3777778 L5.83024074,13.4792407 L1.82824074,13.4792407 L1.82824074,20.8592593 Z M17.6641667,6.30941667 L13.0312407,6.30924074 L13.0319444,12.7925926 C13.0319444,13.140647 12.7733034,13.4282926 12.4377341,13.4738165 L12.3444444,13.4800926 L7.20524074,13.4792407 L7.20524074,15.6902407 L17.6641667,15.6896667 L16.1737062,11.2174066 C16.1384259,11.1115659 16.1296059,10.9992844 16.147246,10.8902232 L16.1737062,10.7825934 L17.6641667,6.30941667 Z M1.82824074,12.1042407 L11.6563333,12.1045833 L11.6563333,2.72433333 L1.82824074,2.72424074 L1.82824074,12.1042407 Z" transform="translate(2 1)"/>
</svg>
