<?xml version="1.0" encoding="UTF-8"?>
<svg width="24px" height="24px" viewBox="0 0 24 24" version="1.1" xmlns="http://www.w3.org/2000/svg" xmlns:xlink="http://www.w3.org/1999/xlink">
    <title>uranus-icon/ln-webapp 02@1x</title>
    <g id="uranus-icon/ln-webapp-02" stroke="none" stroke-width="1" fill="none" fill-rule="evenodd">
        <g id="webapp" transform="translate(1.045833, 1.045833)" fill="#111111" fill-rule="nonzero">
            <path d="M10.9541667,-2.84217094e-14 C17.0039859,-2.84217094e-14 21.9083333,4.90434747 21.9083333,10.9541667 C21.9083333,12.2649421 21.678108,13.5219456 21.2558884,14.6869461 L19.942819,14.2729864 C20.2490389,13.4438949 20.4438344,12.5608146 20.5090235,11.6419211 L16.0323687,11.6416322 C16.0197288,12.107204 15.9943018,12.5652589 15.9567036,13.0139153 L14.6088119,12.5884548 C14.631002,12.2778458 14.6470403,11.9619374 14.6565239,11.6414595 L7.25180948,11.6414595 C7.3966982,16.5377029 9.07158734,20.3673318 10.8387977,20.5280782 L10.9541667,20.5333333 L11.067534,20.5282587 C11.9277691,20.451363 12.766259,19.5049589 13.4171987,17.9891613 L13.9106684,19.9648636 C13.8808472,20.0096611 13.8507658,20.0537828 13.8204276,20.0972184 L13.934,20.059 L14.2696138,21.3976336 C13.3106385,21.7018013 12.2944918,21.8775368 11.2413724,21.9046414 L10.9541667,21.9083333 L10.6669609,21.9046414 C4.74988956,21.7523512 -2.13162821e-14,16.907957 -2.13162821e-14,10.9541667 C-2.13162821e-14,4.90434747 4.90434747,-2.84217094e-14 10.9541667,-2.84217094e-14 Z M5.87596459,11.6416322 L1.39930982,11.6419211 C1.6822946,15.6308215 4.4075978,18.9448534 8.08854988,20.0973474 C6.7974018,18.2495867 5.97149369,15.1602872 5.87596459,11.6416322 Z M13.8197835,1.81098595 C15.1108679,3.65850876 15.936836,6.74791063 16.0323687,10.2667011 L20.5090235,10.2664122 C20.2260387,6.27751183 17.5007355,2.9634799 13.8197835,1.81098595 Z M8.08805479,1.81090152 L8.07460857,1.8153627 C4.40071819,2.97185147 1.68193723,6.28254936 1.39930982,10.2664122 L5.87596459,10.2667011 C5.97149737,6.74791063 6.7974654,3.65850876 8.08805479,1.81090152 Z M10.9541667,1.375 L10.8407993,1.3800746 C9.07297285,1.53809922 7.39698159,5.36825924 7.25183917,10.2658713 L14.6564942,10.2658713 C14.5082522,5.26367081 12.7630808,1.375 10.9541667,1.375 Z" id="Combined-Shape"></path>
            <path d="M21.3252932,16.2818908 L13.9541667,13.9541667 L15.8939368,21.7132472 L17.4457529,18.997569 L20.1614311,21.7132472 C20.482657,22.0344732 21.0040673,22.0344732 21.3252932,21.7132472 C21.6449673,21.3935731 21.647683,20.8717749 21.3252932,20.5493851 L18.609615,17.8337069 L21.3252932,16.2818908 Z" id="Path"></path>
        </g>
    </g>
</svg>