<svg width="16" height="16" viewBox="0 0 16 16" fill="none" xmlns="http://www.w3.org/2000/svg">
<path fill-rule="evenodd" clip-rule="evenodd" d="M15.3333 2.6665C15.3333 1.56193 14.4379 0.666504 13.3333 0.666504H9.33332C8.96513 0.666504 8.66666 0.964981 8.66666 1.33317V6.6665C8.66666 7.03469 8.96513 7.33317 9.33332 7.33317H14.6667C15.0348 7.33317 15.3333 7.03469 15.3333 6.6665V2.6665ZM13.3333 1.99984C13.7015 1.99984 14 2.29831 14 2.6665V5.99984H9.99999V1.99984L13.3333 1.99984Z" fill="#7C8089"/>
<path fill-rule="evenodd" clip-rule="evenodd" d="M0.666656 13.3332C0.666656 14.4377 1.56209 15.3332 2.66666 15.3332H6.66666C7.03485 15.3332 7.33332 15.0347 7.33332 14.6665V9.33317C7.33332 8.96498 7.03485 8.6665 6.66666 8.6665H1.33332C0.965133 8.6665 0.666656 8.96498 0.666656 9.33317V13.3332ZM2.66666 13.9998C2.29847 13.9998 1.99999 13.7014 1.99999 13.3332L1.99999 9.99984H5.99999V13.9998H2.66666Z" fill="#7C8089"/>
<path fill-rule="evenodd" clip-rule="evenodd" d="M9.33332 15.3332C8.96513 15.3332 8.66666 15.0347 8.66666 14.6665V9.33317C8.66666 8.96498 8.96513 8.6665 9.33332 8.6665H14.6667C15.0348 8.6665 15.3333 8.96498 15.3333 9.33317V13.3332C15.3333 14.4377 14.4379 15.3332 13.3333 15.3332H9.33332ZM9.99999 13.9998H13.3333C13.7015 13.9998 14 13.7014 14 13.3332V9.99984H9.99999V13.9998Z" fill="#7C8089"/>
<path fill-rule="evenodd" clip-rule="evenodd" d="M7.33332 1.33317C7.33332 0.964981 7.03485 0.666504 6.66666 0.666504H2.66666C1.56209 0.666504 0.666656 1.56193 0.666656 2.6665V6.6665C0.666656 7.03469 0.965133 7.33317 1.33332 7.33317H6.66666C7.03485 7.33317 7.33332 7.03469 7.33332 6.6665V1.33317ZM2.66666 1.99984L5.99999 1.99984L5.99999 5.99984H1.99999L1.99999 2.6665C1.99999 2.29831 2.29847 1.99984 2.66666 1.99984Z" fill="#7C8089"/>
</svg>
