<svg xmlns="http://www.w3.org/2000/svg" width="24" height="24" viewBox="0 0 24 24">
  <path fill="#111" d="M10.7127942,21.9504747 C4.7957229,21.7981845 0.0458333333,16.9537903 0.0458333333,11 C0.0458333333,4.9501808 4.9501808,0.0458333333 11,0.0458333333 C17.0498192,0.0458333333 21.9541667,4.9501808 21.9541667,11 C21.9541667,17.0498192 17.0498192,21.9541667 11,21.9541667 L11,21.9541667 Z M14.7023572,11.6872929 L7.29764282,11.6872929 C7.44568129,16.6899763 9.190965,20.5791667 11,20.5791667 L11,20.5791667 L11.1133673,20.5740921 C12.8813144,20.4160567 14.5574138,16.5853848 14.7023572,11.6872929 Z M1.44514315,11.6877545 C1.72812794,15.6766548 4.45343113,18.9906868 8.13438322,20.1431807 C6.84323513,18.29542 6.01732703,15.2061206 5.92179793,11.6874656 Z M20.5548568,11.6877545 L16.0782021,11.6874656 C15.982673,15.2061206 15.1567649,18.29542 13.866261,20.1430517 C17.5465689,18.9906868 20.2718721,15.6766548 20.5548568,11.6877545 Z M20.5548568,10.3122455 C20.2718721,6.32334516 17.5465689,3.00931323 13.8656168,1.85681928 C15.1567013,3.7043421 15.9826693,6.79374396 16.0782021,10.3125344 Z M8.13388812,1.85673486 L8.12044191,1.86119603 C4.44655153,3.01768481 1.72777056,6.32838269 1.44514315,10.3122455 L5.92179793,10.3125344 C6.0173307,6.79374396 6.84329874,3.7043421 8.13388812,1.85673486 Z M11,1.42083333 L10.8866327,1.42590794 C9.11880618,1.58393255 7.44281493,5.41409258 7.2976725,10.3117047 L14.7023275,10.3117047 C14.5540856,5.30950415 12.8089142,1.42083333 11,1.42083333 L11,1.42083333 Z" transform="translate(1 1)"/>
</svg>
