<svg xmlns="http://www.w3.org/2000/svg" width="24" height="24" viewBox="0 0 24 24">
  <path d="M12.0817594,-4.08562073e-14 C12.5024886,-4.08562073e-14 12.8875505,0.236807767 13.0767885,0.611956336 L13.0767885,0.611956336 L14.2997281,3.03006437 L16.8746797,2.18147176 C17.233464,2.06444895 17.6251555,2.13702948 17.916956,2.36941888 L17.916956,2.36941888 L18.0103411,2.45276 L19.5468422,3.98926151 C19.8455368,4.28747887 19.9500147,4.72894775 19.8171918,5.1288438 L19.8171918,5.1288438 L18.966271,7.69754513 L21.387302,8.92283686 C21.7256032,9.0934881 21.9512476,9.42245346 21.9929935,9.79325165 L21.9929935,9.79325165 L22,9.91824063 L22,12.0817594 C22,12.5023208 21.7633706,12.8873088 21.3882214,13.0767876 L21.3882214,13.0767876 L18.9709601,14.2987903 L19.8178971,16.8731059 C19.9364024,17.2329155 19.8634606,17.6255197 19.630702,17.9170802 L19.630702,17.9170802 L19.54724,18.0103411 L18.0107385,19.5468422 C17.7131964,19.8448605 17.2731347,19.9489668 16.8725921,19.8178437 L16.8725921,19.8178437 L14.2997281,18.9690845 L13.0770014,21.3877984 C12.9062781,21.7258134 12.5773654,21.9512847 12.2067009,21.9929988 L12.2067009,21.9929988 L12.0817594,22 L9.91824063,22 C9.49767917,22 9.11269109,21.7633706 8.92322657,21.3882494 L8.92322657,21.3882494 L7.69848294,18.9690845 L5.12657679,19.8180593 C4.76747832,19.9360366 4.37458435,19.8634073 4.08293894,19.6306971 L4.08293894,19.6306971 L3.989659,19.54724 L2.45315832,18.0107391 C2.15499495,17.7130527 2.0501012,17.2724457 2.18199759,16.873426 L2.18199759,16.873426 L3.02818875,14.2987903 L0.611704728,13.0768393 C0.273976235,12.9060439 0.0486781997,12.5771842 0.00699587759,12.2066534 L0.00699587759,12.2066534 L1.24344979e-14,12.0817594 L1.24344979e-14,9.91824063 C1.24344979e-14,9.49784716 0.236450888,9.11293331 0.611608633,8.9232094 L0.611608633,8.9232094 L3.0328778,7.69754513 L2.18283382,5.12945176 C2.06308807,4.76892701 2.13595235,4.37530106 2.36913793,4.08311336 L2.36913793,4.08311336 L2.45275999,3.98965899 L3.99005732,2.45236198 C4.28744921,2.15544589 4.72738231,2.05126867 5.12726568,2.18216738 L5.12726568,2.18216738 L7.69848294,3.03006437 L8.92316071,0.61170489 C9.09395605,0.273976288 9.4228158,0.0486782088 9.79334664,0.00699587887 L9.79334664,0.00699587887 L9.91824063,-4.08562073e-14 Z M11.9026855,1.40671512 L10.0964633,1.40671512 L8.68165175,4.20518195 C8.54030883,4.48456105 8.23425813,4.63316993 7.93360359,4.58069187 L7.93360359,4.58069187 L7.83381861,4.55565506 L4.8569184,3.57399421 L3.57399421,4.8569184 L4.5592375,7.8310087 C4.65775809,8.1285352 4.54698479,8.45063321 4.29731894,8.62667938 L4.29731894,8.62667938 L4.20904939,8.67971806 L1.40671512,10.0964633 L1.40671512,11.9026855 L4.20291153,13.3173011 C4.48211559,13.458565 4.63072761,13.7643502 4.57848641,14.064866 L4.57848641,14.064866 L4.55353729,14.1646099 L3.57399421,17.1422304 L4.8569184,18.4251546 L7.83385231,17.4445098 C8.13119017,17.3465001 8.45281401,17.4573596 8.62865539,17.7067861 L8.62865539,17.7067861 L8.68163654,17.794964 L10.0964633,20.5924337 L11.9026855,20.5924337 L13.3181725,17.7949937 C13.45951,17.5156256 13.7655436,17.3670162 14.0661893,17.4194787 L14.0661893,17.4194787 L14.1659717,17.4445098 L17.1422304,18.4251546 L18.4251546,17.1422304 L17.446133,14.1646773 C17.3483509,13.86741 17.4592669,13.5459866 17.7086076,13.3702453 L17.7086076,13.3702453 L17.7967516,13.3172935 L20.5924337,11.9026855 L20.5924337,10.0964633 L17.7907597,8.67971046 C17.5111065,8.53822261 17.3625219,8.23173341 17.4154018,7.9308584 L17.4154018,7.9308584 L17.4405866,7.83100871 L18.4251546,4.8569184 L17.1422304,3.57399421 L14.1660054,4.55565506 C13.8686502,4.65368718 13.5469984,4.54281956 13.3711537,4.2933688 L13.3711537,4.2933688 L13.3181725,4.20518229 L11.9026855,1.40671512 Z M11.0011438,6.54417036 C13.4580103,6.54417036 15.4557417,8.54182973 15.4557417,10.9986914 C15.4557417,13.4556785 13.4580385,15.4533661 11.0011438,15.4533661 C8.54424911,15.4533661 6.54654593,13.4556785 6.54654593,10.9986914 C6.54654593,8.54182973 8.54427734,6.54417036 11.0011438,6.54417036 Z M11.0011438,7.95088548 C9.32117329,7.95088548 7.95326105,9.3187484 7.95326105,10.9986914 C7.95326105,12.6787687 9.32115396,14.046651 11.0011438,14.046651 C12.6811336,14.046651 14.0490266,12.6787687 14.0490266,10.9986914 C14.0490266,9.3187484 12.6811143,7.95088548 11.0011438,7.95088548 Z" transform="translate(1 1)"/>
</svg>
