<svg xmlns="http://www.w3.org/2000/svg" width="24" height="24" viewBox="0 0 24 24">
  <path fill="#111" d="M11,0.166666667 C16.9830848,0.166666667 21.8333333,5.01691521 21.8333333,11 C21.8333333,16.9830848 16.9830848,21.8333333 11,21.8333333 C5.01691521,21.8333333 0.166666667,16.9830848 0.166666667,11 C0.166666667,5.01691521 5.01691521,0.166666667 11,0.166666667 Z M14.2033505,15.2645386 C13.3114059,15.9355971 12.2021511,16.3333333 11,16.3333333 C9.7978489,16.3333333 8.68859408,15.9355971 7.79664952,15.2645386 L4.95166357,18.1085987 C6.58068289,19.4959942 8.69255593,20.3333333 11,20.3333333 C13.3072147,20.3333333 15.4188973,19.4961607 17.0478507,18.1090124 Z M3.89140129,4.95166357 C2.50400577,6.58068289 1.66666667,8.69255593 1.66666667,11 C1.66666667,13.3072147 2.50383934,15.4188973 3.89098763,17.0478507 L6.73546143,14.2033505 C6.06440292,13.3114059 5.66666667,12.2021511 5.66666667,11 C5.66666667,9.7978489 6.06440292,8.68859408 6.73546143,7.79664952 Z M18.1085987,4.95166357 L15.2645386,7.79664952 C15.9355971,8.68859408 16.3333333,9.7978489 16.3333333,11 C16.3333333,12.2021511 15.9355971,13.3114059 15.2645386,14.2033505 L18.1090124,17.0478507 C19.4961607,15.4188973 20.3333333,13.3072147 20.3333333,11 C20.3333333,8.69255593 19.4959942,6.58068289 18.1085987,4.95166357 Z M11,7.16666667 C9.95140297,7.16666667 9.00114353,7.58769997 8.30905312,8.26993515 C8.30461134,8.27677963 8.29780373,8.28385644 8.29083009,8.29083009 L8.27090625,8.30806835 C7.58809953,9.00024198 7.16666667,9.95090553 7.16666667,11 C7.16666667,12.0505868 7.58929933,13.0024624 8.27382166,13.6948839 C8.27999103,13.6984916 8.28544136,13.7037812 8.29083009,13.7091699 L8.30314971,13.724233 C8.99573488,14.4098998 9.94841835,14.8333333 11,14.8333333 C12.053074,14.8333333 13.0069688,14.4086972 13.6997973,13.7213123 C13.7022378,13.7161694 13.7056831,13.7126567 13.7091699,13.7091699 L13.720338,13.7007789 C14.4082959,13.00787 14.8333333,12.0535714 14.8333333,11 C14.8333333,9.94941322 14.4107007,8.99753759 13.7261783,8.30511612 C13.719368,8.30088575 13.7142417,8.29590183 13.7091699,8.29083009 L13.6968503,8.27576703 C13.0042651,7.59010015 12.0515817,7.16666667 11,7.16666667 Z M11,1.66666667 C8.69255593,1.66666667 6.58068289,2.50400577 4.95166357,3.89140129 L7.79664952,6.73546143 C8.68859408,6.06440292 9.7978489,5.66666667 11,5.66666667 C12.2021511,5.66666667 13.3114059,6.06440292 14.2033505,6.73546143 L17.0478507,3.89098763 C15.4188973,2.50383934 13.3072147,1.66666667 11,1.66666667 Z" transform="translate(1 1)"/>
</svg>
