<svg xmlns="http://www.w3.org/2000/svg" width="24" height="24" viewBox="0 0 24 24">
  <path fill="#111" d="M22.286148,18.2250474 C22.6803976,18.2250474 23,18.5446499 23,18.9388994 C23,19.3002949 22.7314452,19.598966 22.3830135,19.6462348 L22.286148,19.6527514 L1.71385199,19.6527514 C1.31960242,19.6527514 1,19.333149 1,18.9388994 C1,18.577504 1.26855481,18.2788329 1.61698651,18.2315641 L1.71385199,18.2250474 L22.286148,18.2250474 Z M22.286148,11.6125237 C22.6803976,11.6125237 23,11.9321261 23,12.3263757 C23,12.6877711 22.7314452,12.9864423 22.3830135,13.0337111 L22.286148,13.0402277 L1.71385199,13.0402277 C1.31960242,13.0402277 1,12.7206253 1,12.3263757 C1,11.9649803 1.26855481,11.6663092 1.61698651,11.6190403 L1.71385199,11.6125237 L22.286148,11.6125237 Z M22.286148,5 C22.6803976,5 23,5.31960242 23,5.71385199 C23,6.07524743 22.7314452,6.37391853 22.3830135,6.42118736 L22.286148,6.42770398 L1.71385199,6.42770398 C1.31960242,6.42770398 1,6.10810156 1,5.71385199 C1,5.35245655 1.26855481,5.05378545 1.61698651,5.00651663 L1.71385199,5 L22.286148,5 Z"/>
</svg>
