<svg xmlns="http://www.w3.org/2000/svg" width="24" height="24" viewBox="0 0 24 24">
  <path fill="#111" d="M10.4727097,-0.39516129 C4.69917673,-0.39516129 0.171858413,4.01217065 -0.286330536,9.75088934 C-0.348341449,10.5275628 0.668351934,10.8720384 1.09121943,10.2176302 L1.19547173,10.0646443 L1.34822142,9.85635023 L1.54862313,9.59862281 C1.58594745,9.55187517 1.62522204,9.50331261 1.66642931,9.4530575 C2.15227877,8.86053046 2.72137978,8.2670892 3.36668217,7.71437659 C3.83442577,7.31374615 4.3254634,6.94974169 4.83813454,6.63070482 L5.10870927,6.47030207 C5.20122587,6.41802054 5.29598318,6.3669487 5.39272827,6.31715744 L5.558,6.235 L5.54039417,6.24928137 C5.05295819,6.63684602 4.5950563,7.07051552 4.18092158,7.55268665 C2.97252254,8.95925717 2.26320784,10.8547948 2.1918905,12.8430031 L2.1859349,13.1910919 C2.18587721,14.2439577 2.24314726,14.9531216 2.48444639,15.8092635 C3.60525274,19.7831826 7.17395153,22.3944516 12.0041935,22.3944516 C13.75722,22.3944516 15.3812935,22.088229 16.8378912,21.5771913 C17.5437119,21.3295588 18.0934154,21.0790299 18.4683424,20.8758414 L18.7164755,20.7331114 C18.9382565,20.5965153 19.0732847,20.3546317 19.0731612,20.0941604 L19.0710322,15.6054507 C19.0707462,15.0026228 18.3954089,14.6464474 17.8977588,14.9866622 C16.4617922,15.9683502 14.6441809,16.4532903 12.5655484,16.4532903 C10.1250833,16.4532903 8.70350318,15.7355554 7.98786263,14.5657672 L7.87820869,14.3729818 C7.74238505,14.1153947 7.64741962,13.8567557 7.58529376,13.6103555 L7.551,13.461 L20.1143871,13.4610323 C20.5286007,13.4610323 20.8643871,13.1252458 20.8643871,12.7110323 L20.868342,11.7107109 L20.8652021,10.9848754 C20.8471232,9.38358862 20.7483453,8.38976887 20.4547775,7.18779411 C19.8383067,4.66739853 18.2793631,2.56734685 15.8049026,1.04206476 C14.1349958,0.0126267713 12.2252882,-0.39516129 10.4727097,-0.39516129 Z M10.4727097,1.10483871 C11.9711701,1.10483871 13.6191342,1.45673555 15.0177819,2.31895198 C17.1608832,3.63998097 18.4761628,5.41179303 18.9976692,7.54393379 L19.0512381,7.77171021 C19.2212366,8.52448476 19.3067967,9.22172327 19.3440787,10.141397 L19.3609438,10.7221172 C19.3628855,10.8240939 19.3644167,10.9288509 19.3655737,11.0366661 L19.3683131,11.7224804 L19.367,11.961 L6.74264516,11.9610323 C6.34952263,11.9610323 6.0231107,12.2645846 5.99461769,12.6566732 L5.99168706,12.7124747 C5.98197733,12.9668786 6.00127385,13.2958079 6.07164154,13.674864 C6.17795297,14.2475415 6.38192906,14.8150443 6.70831479,15.3485554 C7.71031536,16.9864285 9.62532803,17.9532903 12.5655484,17.9532903 L12.9799452,17.9474349 C14.6268209,17.9005606 16.1436432,17.5718778 17.4757691,16.947883 L17.572,16.899 L17.573,19.646 L17.5394445,19.6637342 C17.1964134,19.8325065 16.7953433,20.0024791 16.3413023,20.1617764 C15.0368114,20.6194484 13.5783122,20.8944516 12.0041935,20.8944516 C7.8358318,20.8944516 4.86385879,18.7198155 3.92816186,15.4022185 C3.75581237,14.7907135 3.69843277,14.2493781 3.68784507,13.4876995 L3.68593548,13.1751613 C3.68593548,11.418313 4.28199258,9.73688545 5.31876005,8.53009323 L5.5652804,8.25626496 C5.73366954,8.07767397 5.90992687,7.90700311 6.09275473,7.74423867 L6.142,7.701 L6.06802766,7.97334286 C5.99504495,8.26446869 5.94098202,8.55770767 5.90743815,8.84905525 C5.85617392,9.29431415 6.20431583,9.68483871 6.65251613,9.68483871 L14.2027742,9.68483871 C14.5887007,9.68483871 14.9116282,9.39196589 14.9492097,9.00787361 L14.9600586,8.83149086 L14.9630162,8.7240241 L14.9634254,8.57789783 C14.9322987,5.86458128 13.522818,3.67341935 9.93051613,3.67341935 C8.00538052,3.67418873 5.68810666,4.33498056 4.04559256,5.35717539 C3.46607226,5.7178127 2.91433582,6.12681298 2.39090606,6.57513957 L2.03999581,6.88528726 L1.836,7.076 L1.84742865,7.04799392 C3.20656781,3.53026103 6.493802,1.10483871 10.4727097,1.10483871 Z M10.1688896,5.17757536 C12.3456049,5.25490698 13.2599429,6.40445301 13.4328079,8.04227457 L13.445,8.184 L7.564,8.184 L7.63452788,7.95112258 C7.86497817,7.24411093 8.23295415,6.56731174 8.69367661,6.03014287 L8.75210425,5.95368482 C8.89220489,5.74640794 8.90831611,5.51430105 8.84032353,5.31208038 L8.817,5.254 L8.97024032,5.23324644 C9.29985793,5.19412297 9.62232611,5.17354259 9.93081589,5.17341929 L10.1688896,5.17757536 Z" transform="translate(2 1)"/>
</svg>
