<svg xmlns="http://www.w3.org/2000/svg" width="24" height="24" viewBox="0 0 24 24">
  <g fill="#111" transform="translate(1 1)">
    <path d="M19.9375,-0.0625 C21.1107136,-0.0625 22.0625,0.889286438 22.0625,2.0625 L22.0625,2.0625 L22.0625,19.9375 C22.0625,21.1107136 21.1107136,22.0625 19.9375,22.0625 L19.9375,22.0625 L2.0625,22.0625 C0.889286438,22.0625 -0.0625,21.1107136 -0.0625,19.9375 L-0.0625,19.9375 L-0.0625,2.0625 C-0.0625,0.889286438 0.889286438,-0.0625 2.0625,-0.0625 L2.0625,-0.0625 Z M15.875,10.06 L10.8981516,16.2810213 C10.642178,16.6009883 10.183352,16.651883 9.86519442,16.4146792 L9.78216991,16.3428301 L6.187,12.747 L1.4375,17.4975 L1.4375,19.9375 C1.4375,20.2509422 1.66908146,20.5110184 1.97023033,20.5557146 L2.0625,20.5625 L19.9375,20.5625 C20.2822864,20.5625 20.5625,20.2822864 20.5625,19.9375 L20.5625,19.9375 L20.5625,14.7485 L15.875,10.06 Z M19.9375,1.4375 L2.0625,1.4375 C1.71771356,1.4375 1.4375,1.71771356 1.4375,2.0625 L1.4375,2.0625 L1.4375,15.3755 L5.65716991,11.1571699 C5.92343648,10.8909034 6.34010016,10.8666973 6.63371165,11.0845518 L6.71783009,11.1571699 L10.249,14.689 L15.2268484,8.46897871 C15.482822,8.14901165 15.941648,8.09811702 16.2598056,8.33532076 L16.3428301,8.40716991 L20.5625,12.6265 L20.5625,2.0625 C20.5625,1.74905778 20.3309185,1.48898158 20.0297697,1.44428543 L19.9375,1.4375 Z"/>
    <circle cx="8.938" cy="6.188" r="2.063"/>
  </g>
</svg>
