<svg xmlns="http://www.w3.org/2000/svg" width="24" height="24" viewBox="0 0 24 24">
  <path fill="#111" d="M18.155914,0.554435484 C18.5356097,0.554435484 18.843414,0.862239718 18.843414,1.24193548 L18.843414,1.24193548 L18.843414,20.7580645 C18.843414,21.1377603 18.5356097,21.4455645 18.155914,21.4455645 L18.155914,21.4455645 L1.24193548,21.4455645 C0.862239718,21.4455645 0.554435484,21.1377603 0.554435484,20.7580645 L0.554435484,20.7580645 L0.554435484,1.24193548 C0.554435484,0.862239718 0.862239718,0.554435484 1.24193548,0.554435484 L1.24193548,0.554435484 Z M17.468,1.92866667 L1.92866667,1.92866667 L1.92866667,20.0704167 L17.468,20.0704167 L17.468,1.92866667 Z M9.67167395,16.2407265 L9.69892473,16.2412634 C9.66127803,16.2412634 9.62433806,16.2382375 9.58833478,16.2324156 C9.58359759,16.2316021 9.57787555,16.2306089 9.5721644,16.2295429 C9.54363214,16.2242371 9.51675444,16.2174426 9.49055718,16.2091207 C9.47540732,16.2042893 9.45979046,16.1987269 9.44435128,16.1925829 C9.4275532,16.1858826 9.411344,16.1786604 9.39547989,16.1708445 C9.38194027,16.1642163 9.36879483,16.1572053 9.35584082,16.1497373 C9.33892003,16.1399155 9.32231903,16.1293643 9.30622073,16.1181418 C9.30075959,16.1144022 9.29530571,16.1104789 9.28989738,16.106466 L9.26501544,16.0870634 C9.25274615,16.0770686 9.24082832,16.0666588 9.22928334,16.0558556 L9.21278882,16.0398994 L5.96010065,12.7872112 C5.6916152,12.5187257 5.6916152,12.0834248 5.96010065,11.8149394 C6.20417833,11.5708617 6.58612004,11.5486728 6.85526391,11.7483727 L6.93237247,11.8149394 L9.01043548,13.8934355 L9.01142473,6.44623656 C9.01142473,6.06654079 9.31922897,5.75873656 9.69892473,5.75873656 C10.0469792,5.75873656 10.3346248,6.01737762 10.3801487,6.35294688 L10.3864247,6.44623656 L10.3854355,13.8924355 L12.465477,11.8149394 C12.7095547,11.5708617 13.0914964,11.5486728 13.3606403,11.7483727 L13.4377488,11.8149394 C13.6818265,12.059017 13.7040154,12.4409587 13.5043155,12.7101026 L13.4377488,12.7872112 L10.1850606,16.0398994 L10.1729394,16.0517274 C10.1552133,16.0686062 10.136587,16.0845483 10.11714,16.0994742 L10.1850606,16.0398994 C10.1547673,16.0701927 10.1223503,16.097068 10.0882888,16.1205253 C10.0717686,16.1318531 10.0541134,16.1428926 10.0359459,16.1531301 C10.021557,16.161278 10.0073835,16.1685968 9.9930234,16.1753902 C9.97290789,16.1848924 9.95233988,16.1934455 9.93129662,16.2010015 C9.92191819,16.20434 9.9121544,16.2075962 9.90233609,16.2106274 C9.83754826,16.2306359 9.76947759,16.2412634 9.69892473,16.2412634 C9.68628497,16.2411866 9.6789776,16.2410144 9.67167395,16.2407265 Z" transform="translate(2 1)"/>
</svg>
