<svg xmlns="http://www.w3.org/2000/svg" width="24" height="24" viewBox="0 0 24 24">
  <path fill="#111" d="M10.8397038,-3.12977157e-15 C16.8263069,-3.12977157e-15 21.6794075,4.85310069 21.6794075,10.8397038 C21.6794075,16.8263069 16.8263069,21.6794075 10.8397038,21.6794075 C4.85310069,21.6794075 3.6373021e-15,16.8263069 3.6373021e-15,10.8397038 C3.6373021e-15,4.85310069 4.85310069,-3.12977157e-15 10.8397038,-3.12977157e-15 Z M10.8397038,1.32967033 C5.58745733,1.32967033 1.32967033,5.58745733 1.32967033,10.8397038 C1.32967033,16.0919502 5.58745733,20.3497372 10.8397038,20.3497372 C16.0919502,20.3497372 20.3497372,16.0919502 20.3497372,10.8397038 C20.3497372,5.58745733 16.0919502,1.32967033 10.8397038,1.32967033 Z M10.8397038,9.24988055 C11.1762839,9.24988055 11.4544467,9.49999498 11.4984698,9.82450153 L11.5045389,9.91471572 L11.5045389,15.4646441 C11.5045389,15.8318224 11.2068821,16.1294792 10.8397038,16.1294792 C10.5031236,16.1294792 10.2249609,15.8793648 10.1809378,15.5548582 L10.1748686,15.4646441 L10.1748686,9.91471572 C10.1748686,9.5475374 10.4725255,9.24988055 10.8397038,9.24988055 Z M10.8397038,5.28977544 C11.3505606,5.28977544 11.7646918,5.7039067 11.7646918,6.2147635 C11.7646918,6.72562029 11.3505606,7.13975155 10.8397038,7.13975155 C10.328847,7.13975155 9.91471572,6.72562029 9.91471572,6.2147635 C9.91471572,5.7039067 10.328847,5.28977544 10.8397038,5.28977544 Z" transform="translate(1 1)"/>
</svg>
