<svg xmlns="http://www.w3.org/2000/svg" width="24" height="24" viewBox="0 0 24 24">
  <path fill="#111" d="M21.9650654,17.6636607 L21.9609731,17.7311135 C21.9587056,17.7523306 21.9554982,17.7733786 21.9513753,17.7941994 C21.9397703,17.8542335 21.9197786,17.9141283 21.8914208,17.9715848 C21.8848779,17.9847015 21.8780135,17.9976395 21.8707526,18.0103668 C21.8626686,18.0245685 21.853888,18.0387848 21.8445497,18.0527922 L21.8359927,18.0653432 C21.8120264,18.0996943 21.7849393,18.1321044 21.7549163,18.1621274 L21.808,18.098 L21.7792735,18.1366839 C21.7742703,18.142218 21.7691939,18.1476594 21.7640468,18.1530074 L21.7549163,18.1621274 L18.1621274,21.7549163 C18.1587253,21.7583184 18.1552925,21.7616828 18.1518298,21.7650092 C18.1363187,21.7801085 18.1187213,21.7954817 18.1002302,21.8100907 C18.0885252,21.8192995 18.0770468,21.8278272 18.0653432,21.8359927 C18.0613143,21.8388032 18.0570735,21.8416955 18.0527922,21.8445497 L18.0246376,21.8623914 C18.0054949,21.8739054 17.9858461,21.884506 17.9657596,21.8941649 L18.0527922,21.8445497 C18.0065433,21.8753823 17.9580164,21.900136 17.908154,21.9189994 C17.8934681,21.9243775 17.8783814,21.9295101 17.8631286,21.9341381 C17.8427386,21.9405214 17.8223665,21.9457207 17.8018864,21.9500012 C17.7541636,21.9598318 17.7047776,21.9650354 17.6548551,21.9650354 L17.7498127,21.958886 C17.7303931,21.961464 17.7109228,21.9632359 17.6914519,21.9642119 L17.6548551,21.9650354 L4.30140475,21.9650654 C4.27618321,21.9647795 4.25092241,21.9631644 4.22573161,21.9601984 C4.20681537,21.9577847 4.18875682,21.954918 4.17086605,21.9513753 C4.11083191,21.9397703 4.05093716,21.9197786 3.99348064,21.8914208 C3.98036398,21.8848779 3.96742593,21.8780135 3.95469867,21.8707526 C3.94049696,21.8626686 3.92628062,21.853888 3.91227325,21.8445497 L3.89972226,21.8359927 C3.86537116,21.8120264 3.83296107,21.7849393 3.80293809,21.7549163 L3.866,21.808 L3.82838157,21.7792735 C3.82284739,21.7742703 3.81740605,21.7691939 3.81205802,21.7640468 L3.80293809,21.7549163 L0.210149117,18.1621274 C0.206747033,18.1587253 0.203382647,18.1552925 0.20005623,18.1518298 C0.184956938,18.1363187 0.169583743,18.1187213 0.154974703,18.1002302 C0.145765972,18.0885252 0.137238209,18.0770468 0.1290727,18.0653432 C0.126262214,18.0613143 0.123369943,18.0570735 0.120515727,18.0527922 L0.0996494096,18.0195618 C0.0892977904,18.0020262 0.0797076753,17.9840749 0.0709005059,17.9657596 L0.120515727,18.0527922 C0.0896831529,18.0065433 0.0649294147,17.9580164 0.0460659916,17.908154 C0.0406879682,17.8934681 0.035555308,17.8783814 0.0309273462,17.8631286 C0.0245440207,17.8427386 0.019344716,17.8223665 0.0150642751,17.8018864 C0.00523359716,17.7541636 3.00689146e-05,17.7047776 3.00689146e-05,17.6548551 L0.00631350083,17.7508171 C0.00240482291,17.7216903 0.000310132046,17.6924475 -4.4519816e-06,17.6632581 L3.00689146e-05,17.6548551 L-5.8269173e-15,4.30140475 C0.000380025964,4.26788666 0.00310739485,4.23429921 0.00823340284,4.20089888 C0.0103774724,4.18845669 0.0119524928,4.17964119 0.013690157,4.17086605 C0.025295125,4.11083191 0.0452868525,4.05093716 0.0736446501,3.99348064 C0.0801875131,3.98036398 0.0870518929,3.96742593 0.0943128811,3.95469867 C0.102396842,3.94049696 0.111177479,3.92628062 0.120515727,3.91227325 L0.1290727,3.89972226 C0.153039065,3.86537116 0.180126131,3.83296107 0.210149117,3.80293809 L0.156,3.866 L0.185791945,3.82838157 C0.19079514,3.82284739 0.195871528,3.81740605 0.201018619,3.81205802 L0.210149117,3.80293809 L3.80293809,0.210149117 C3.80634017,0.206747033 3.80977291,0.203382647 3.81323565,0.20005623 C3.82874673,0.184956938 3.84634417,0.169583743 3.86483522,0.154974703 C3.87654025,0.145765972 3.8880186,0.137238209 3.89972226,0.1290727 C3.90375118,0.126262214 3.90799192,0.123369943 3.91227325,0.120515727 L3.94550364,0.0996494096 C3.96303924,0.0892977904 3.98099055,0.0797076753 3.99930582,0.0709005059 L3.91227325,0.120515727 C3.95852211,0.0896831529 4.00704903,0.0649294147 4.0569114,0.0460659916 C4.0715973,0.0406879682 4.08668403,0.035555308 4.1019368,0.0309273462 C4.12232683,0.0245440207 4.14269899,0.019344716 4.16317903,0.0150642751 C4.21090188,0.00523359716 4.26028786,3.00689146e-05 4.31021034,3.00689146e-05 L4.2142483,0.00631350083 C4.2388614,0.00301053962 4.26355735,0.0010029112 4.28823393,0.000270171521 L4.31021034,3.00689146e-05 L17.6636607,-9.3074019e-15 C17.6888822,0.000285960131 17.714143,0.00190103042 17.7393338,0.00486706642 C17.7582501,0.00728071446 17.7763086,0.0101474039 17.7941994,0.013690157 C17.8542335,0.025295125 17.9141283,0.0452868525 17.9715848,0.0736446501 C17.9847015,0.0801875131 17.9976395,0.0870518929 18.0103668,0.0943128811 C18.0245685,0.102396842 18.0387848,0.111177479 18.0527922,0.120515727 L18.0653432,0.1290727 C18.0996943,0.153039065 18.1321044,0.180126131 18.1621274,0.210149117 L18.098,0.156 L18.1366839,0.185791945 C18.142218,0.19079514 18.1476594,0.195871528 18.1530074,0.201018619 L18.1621274,0.210149117 L21.7549163,3.80293809 C21.7583184,3.80634017 21.7616828,3.80977291 21.7650092,3.81323565 C21.7801085,3.82874673 21.7954817,3.84634417 21.8100907,3.86483522 C21.8192995,3.87654025 21.8278272,3.8880186 21.8359927,3.89972226 C21.8388032,3.90375118 21.8416955,3.90799192 21.8445497,3.91227325 L21.865416,3.94550364 C21.8757676,3.96303924 21.8853578,3.98099055 21.8941649,3.99930582 L21.8445497,3.91227325 C21.8753823,3.95852211 21.900136,4.00704903 21.9189994,4.0569114 C21.9242564,4.0712769 21.9292891,4.08603509 21.9338388,4.10095278 C21.9403476,4.12164687 21.9456493,4.14235719 21.9500012,4.16317903 C21.9598318,4.21090188 21.9650354,4.26028786 21.9650354,4.31021034 L21.958886,4.21525272 C21.9614485,4.23455576 21.9632146,4.25390889 21.9641942,4.27326282 L21.9650354,4.31021034 L21.9650654,17.6636607 L21.9650654,17.6636607 Z M14.191,17.345 L7.773,17.345 L5.651,20.529 L16.313,20.529 L14.191,17.345 Z M5.245,15.498 L1.843,17.766 L4.198,20.121 L6.466,16.719 L5.245,15.498 Z M16.719,15.498 L15.498,16.719 L17.765,20.121 L20.121,17.765 L16.719,15.498 Z M1.434,5.65 L1.434,16.314 L4.619,14.191 L4.619,7.773 L1.434,5.65 Z M20.529,5.651 L17.345,7.773 L17.345,14.191 L20.529,16.313 L20.529,5.651 Z M14.2777501,6.0535762 L7.68635881,6.0535762 L6.0535762,7.68635881 L6.0535762,14.2777501 L7.68635881,15.9105327 L14.2777501,15.9105327 L15.9105327,14.2777501 L15.9105327,7.68635881 L14.2777501,6.0535762 Z M17.766,1.843 L15.498,5.245 L16.719,6.466 L20.121,4.198 L17.766,1.843 Z M4.198,1.842 L1.842,4.198 L5.245,6.466 L6.466,5.245 L4.198,1.842 Z M16.314,1.434 L5.65,1.434 L7.773,4.619 L14.191,4.619 L16.314,1.434 Z" transform="translate(1 1)"/>
</svg>
