<svg xmlns="http://www.w3.org/2000/svg" width="24" height="24" viewBox="0 0 24 24">
  <path fill="#111" d="M9.01639344,0.394467213 C9.39608921,0.394467213 9.70389344,0.702271448 9.70389344,1.08196721 C9.70389344,1.43002166 9.44525238,1.71766726 9.10968312,1.76319115 L9.01639344,1.76946721 L5.71038251,1.76946721 C3.53387509,1.76946721 1.76946721,3.53387509 1.76946721,5.71038251 C1.76946721,7.82287501 3.4316127,9.54715263 5.51944161,9.64675331 L5.71038251,9.65129781 L9.01639344,9.65129781 C9.39608921,9.65129781 9.70389344,9.95910205 9.70389344,10.3387978 C9.70389344,10.6868523 9.44525238,10.9744979 9.10968312,11.0200217 L9.01639344,11.0262978 L5.71038251,11.0262978 C2.77448356,11.0262978 0.394467213,8.64628147 0.394467213,5.71038251 C0.394467213,2.84276028 2.66507232,0.505466288 5.50647722,0.398305843 L5.71038251,0.394467213 L9.01639344,0.394467213 Z M16.2896175,0.394467213 C19.2255164,0.394467213 21.6055328,2.77448356 21.6055328,5.71038251 C21.6055328,8.57800475 19.3349277,10.9152987 16.4935228,11.0224592 L16.2896175,11.0262978 L12.9836066,11.0262978 C12.6039108,11.0262978 12.2961066,10.7184936 12.2961066,10.3387978 C12.2961066,9.99074336 12.5547476,9.70309777 12.8903169,9.65757388 L12.9836066,9.65129781 L16.2896175,9.65129781 C18.4661249,9.65129781 20.2305328,7.88688993 20.2305328,5.71038251 C20.2305328,3.59789002 18.5683873,1.8736124 16.4805584,1.77401172 L16.2896175,1.76946721 L12.9836066,1.76946721 C12.6039108,1.76946721 12.2961066,1.46166298 12.2961066,1.08196721 C12.2961066,0.733912761 12.5547476,0.446267166 12.8903169,0.400743278 L12.9836066,0.394467213 L16.2896175,0.394467213 Z M15.2978142,5.02288251 C15.67751,5.02288251 15.9853142,5.33068675 15.9853142,5.71038251 C15.9853142,6.05843697 15.7266731,6.34608256 15.3911039,6.39160645 L15.2978142,6.39788251 L6.70218579,6.39788251 C6.32249003,6.39788251 6.01468579,6.09007828 6.01468579,5.71038251 C6.01468579,5.36232806 6.27332685,5.07468247 6.60889611,5.02915858 L6.70218579,5.02288251 L15.2978142,5.02288251 Z" transform="translate(1 6)"/>
</svg>
