<svg xmlns="http://www.w3.org/2000/svg" width="24" height="24" viewBox="0 0 24 24">
  <path fill="#111" d="M20.1988304,8.54349415 C20.5468849,8.54349415 20.8345305,8.80213521 20.8800543,9.13770447 L20.8863304,9.23099415 L20.8863304,13.4766082 C20.8863304,15.7454693 19.0981461,17.5966775 16.8542386,17.6977717 L16.6608187,17.7021199 L2.75306725,17.7020673 L5.47151603,20.4202968 C5.71559371,20.6643745 5.73778259,21.0463162 5.53808267,21.3154601 L5.47151603,21.3925687 C5.22743835,21.6366463 4.84549664,21.6588352 4.57635277,21.4591353 L4.4992442,21.3925687 L0.607431339,17.5007558 L0.595603312,17.4886346 C0.578724502,17.4709084 0.562782426,17.4522822 0.547856461,17.4328352 L0.607431339,17.5007558 C0.57713801,17.4704625 0.55026269,17.4380455 0.52680538,17.403984 C0.513308216,17.3843192 0.50040219,17.3632943 0.4886329,17.3415638 C0.483557487,17.3322627 0.479044229,17.323444 0.474733897,17.3145517 C0.43081486,17.2241651 0.406067251,17.1222825 0.406067251,17.0146199 C0.406067251,16.9419824 0.417332072,16.871976 0.438210033,16.8062523 C0.441621923,16.7955942 0.445480569,16.7843987 0.449636536,16.7732891 C0.458406065,16.7499068 0.468174504,16.7276403 0.479049699,16.7060264 C0.483466088,16.6971528 0.488123418,16.6883639 0.492984664,16.6796582 C0.504156948,16.659779 0.516225114,16.640512 0.529188875,16.6219159 C0.53292853,16.6164547 0.536851816,16.6110009 0.540864699,16.6055925 L0.560267333,16.5807106 C0.570262115,16.5684413 0.580671848,16.5565235 0.591475137,16.5449785 L0.607431339,16.528484 L4.4992442,12.6366711 C4.76772966,12.3681857 5.20303058,12.3681857 5.47151603,12.6366711 C5.71559371,12.8807488 5.73778259,13.2626905 5.53808267,13.5318344 L5.47151603,13.6089429 L2.75206725,16.3270673 L16.6608187,16.3271199 C18.1808268,16.3271199 19.422961,15.1373998 19.506818,13.6383628 L19.5113304,13.4766082 L19.5113304,9.23099415 C19.5113304,8.85129839 19.8191346,8.54349415 20.1988304,8.54349415 Z M16.7160449,0.540864699 L16.7931535,0.607431339 L20.6849663,4.4992442 L20.6977666,4.51238855 C20.7132549,4.52872099 20.7279498,4.5458133 20.7417895,4.56360375 L20.6849663,4.4992442 C20.7155482,4.52982604 20.7426466,4.5625722 20.7662616,4.59698963 C20.77998,4.61711847 20.7925296,4.63765631 20.8039969,4.65886522 C20.8088505,4.66775633 20.8133731,4.67659447 20.817692,4.68550654 C20.8274233,4.70559808 20.8363455,4.72652522 20.844231,4.74795354 C20.8901021,4.87319135 20.8984558,5.00863442 20.8694166,5.13734409 C20.8650113,5.15714768 20.8596798,5.17665681 20.8535321,5.19580014 C20.8508932,5.20388774 20.8482491,5.21164458 20.8454626,5.21936153 C20.8362642,5.24486943 20.8254966,5.26982871 20.813348,5.29397363 C20.8089074,5.30289278 20.8042616,5.31165868 20.799413,5.32034177 C20.7882407,5.34022096 20.7761725,5.35948795 20.7632088,5.37808412 C20.7594691,5.38354526 20.7555458,5.38899914 20.751533,5.39440747 L20.7321303,5.41928941 C20.7214706,5.432375 20.7103388,5.44506081 20.698761,5.45732089 L20.6849663,5.47151603 L16.7931535,9.36332889 C16.524668,9.63181435 16.0893671,9.63181435 15.8208816,9.36332889 C15.5768039,9.11925121 15.5546151,8.7373095 15.754315,8.46816563 L15.8208816,8.39105707 L18.5380673,5.67206725 L4.63157895,5.67288012 C3.11157081,5.67288012 1.86943669,6.86260017 1.78557965,8.3616372 L1.78106725,8.52339181 L1.78106725,12.7690058 C1.78106725,13.1487016 1.47326302,13.4565058 1.09356725,13.4565058 C0.7455128,13.4565058 0.457867204,13.1978648 0.412343316,12.8622955 L0.406067251,12.7690058 L0.406067251,8.52339181 C0.406067251,6.25453074 2.19425157,4.4033225 4.43815904,4.30222827 L4.63157895,4.29788012 L18.5390673,4.29706725 L15.8208816,1.57970316 C15.5768039,1.33562548 15.5546151,0.953683772 15.754315,0.684539903 L15.8208816,0.607431339 C16.0649593,0.363353657 16.446901,0.341164777 16.7160449,0.540864699 Z" transform="translate(1 1)"/>
</svg>
