<svg width="14" height="16" viewBox="0 0 14 16" fill="none" xmlns="http://www.w3.org/2000/svg">
<path fill-rule="evenodd" clip-rule="evenodd" d="M0.333344 1.33317C0.333344 0.964981 0.63182 0.666504 1.00001 0.666504H13C13.3682 0.666504 13.6667 0.964981 13.6667 1.33317V3.99984C13.6667 4.36803 13.3682 4.6665 13 4.6665H1.00001C0.63182 4.6665 0.333344 4.36803 0.333344 3.99984V1.33317ZM1.66668 1.99984V3.33317H12.3333V1.99984H1.66668Z" fill="#5D6067"/>
<path fill-rule="evenodd" clip-rule="evenodd" d="M0.333344 6.6665C0.333344 6.29831 0.63182 5.99984 1.00001 5.99984H13C13.3682 5.99984 13.6667 6.29831 13.6667 6.6665V9.33317C13.6667 9.70136 13.3682 9.99984 13 9.99984H1.00001C0.63182 9.99984 0.333344 9.70136 0.333344 9.33317V6.6665ZM1.66668 7.33317V8.6665H12.3333V7.33317H1.66668Z" fill="#5D6067"/>
<path fill-rule="evenodd" clip-rule="evenodd" d="M1.00001 11.3332C0.63182 11.3332 0.333344 11.6316 0.333344 11.9998V14.6665C0.333344 15.0347 0.63182 15.3332 1.00001 15.3332H13C13.3682 15.3332 13.6667 15.0347 13.6667 14.6665V11.9998C13.6667 11.6316 13.3682 11.3332 13 11.3332H1.00001ZM1.66668 13.9998V12.6665H12.3333V13.9998H1.66668Z" fill="#5D6067"/>
</svg>
