<svg xmlns="http://www.w3.org/2000/svg" width="24" height="24" viewBox="0 0 24 24">
  <path fill="#111" d="M12.952396,11.3190416 C13.1207064,11.3190416 13.2821233,11.3859027 13.4011368,11.5049162 L13.4011368,11.5049162 L15.7315277,13.8353071 C15.8505412,13.9543205 15.9174023,14.1157375 15.9174023,14.2840479 L15.9174023,14.2840479 L15.9174023,20.6093947 C15.9174023,20.9598831 15.6332753,21.2440101 15.2827869,21.2440101 L15.2827869,21.2440101 L8.62452711,21.2440101 C8.27403871,21.2440101 7.98991173,20.9598831 7.98991173,20.6093947 L7.98991173,20.6093947 L7.98991173,11.953657 C7.98991173,11.6031686 8.27403871,11.3190416 8.62452711,11.3190416 L8.62452711,11.3190416 Z M12.6883127,12.5876204 L9.2588512,12.5876204 L9.2588512,19.9745435 L14.648005,19.9745435 L14.648005,14.5473127 L12.6883127,12.5876204 Z M0.634615385,0.665825977 C0.955896417,0.665825977 1.22141543,0.904571569 1.26343748,1.21432781 L1.26923077,1.30044136 L1.269,4.327 L6.62704918,4.32786885 C6.97753758,4.32786885 7.26166456,4.61199584 7.26166456,4.96248424 C7.26166456,5.28376527 7.02291897,5.54928428 6.71316273,5.59130633 L6.62704918,5.59709962 L1.269,5.597 L1.26862043,15.6464666 L6.62704918,15.6469105 C6.94833021,15.6469105 7.21384922,15.8856561 7.25587127,16.1954123 L7.26166456,16.2815259 C7.26166456,16.6028069 7.02291897,16.8683259 6.71316273,16.9103479 L6.62704918,16.9161412 L0.634615385,16.9161412 C0.313334352,16.9161412 0.0478153408,16.6773956 0.00579329046,16.3676394 L-6.49053461e-16,16.2815259 L-6.49053461e-16,1.30044136 C-6.49053461e-16,0.949952963 0.284126986,0.665825977 0.634615385,0.665825977 Z M12.952396,1.13413552e-14 C13.1207064,1.13413552e-14 13.2821233,0.0668610718 13.4011368,0.185874543 L13.4011368,0.185874543 L15.7315277,2.51626546 C15.8505412,2.63527893 15.9174023,2.79669584 15.9174023,2.96500631 L15.9174023,2.96500631 L15.9174023,9.29035309 C15.9174023,9.64084149 15.6332753,9.92496847 15.2827869,9.92496847 L15.2827869,9.92496847 L8.62452711,9.92496847 C8.27403871,9.92496847 7.98991173,9.64084149 7.98991173,9.29035309 L7.98991173,9.29035309 L7.98991173,0.634615385 C7.98991173,0.284126986 8.27403871,1.13413552e-14 8.62452711,1.13413552e-14 L8.62452711,1.13413552e-14 Z M12.6883127,1.26862043 L9.2588512,1.26862043 L9.2588512,8.65554351 L14.648005,8.65554351 L14.648005,3.22831274 L12.6883127,1.26862043 Z" transform="translate(4 1)"/>
</svg>
