<svg xmlns="http://www.w3.org/2000/svg" width="24" height="24" viewBox="0 0 24 24">
  <path fill="#111" d="M15.6377243,1.08738171 C20.9839632,3.66991911 23.2797825,10.0563522 20.8014614,15.4516923 C18.3231402,20.8470324 11.9824538,23.2663319 6.54004389,20.89316 C6.17686555,20.7347955 6.01083114,20.3120015 6.16919566,19.9488231 C6.32756018,19.5856448 6.7503542,19.4196104 7.11353254,19.5779749 C11.8395318,21.6387547 17.3455631,19.5379192 19.4976509,14.8527938 C21.6497387,10.1676684 19.6561292,4.6219122 15.0136414,2.37932664 C10.8054757,0.346543305 5.8242199,1.70568956 3.19202321,5.40234787 L7.15663988,4.90732323 C7.51702256,4.8622754 7.84833195,5.09284836 7.93890022,5.43441157 L7.95747284,5.53019331 C8.00252067,5.89057599 7.77194771,6.22188539 7.4303845,6.31245365 L7.33460276,6.33102627 L1.90402772,7.00984815 C1.4707681,7.06400561 1.09809833,6.7238303 1.09751178,6.30081563 L1.09838307,6.27834789 C1.09876256,6.2624391 1.0996747,6.24650472 1.10112799,6.23057077 L1.10319476,6.20901519 L1.78201664,0.778440158 C1.82706448,0.418057481 2.13209597,0.153698643 2.48544327,0.149994189 L2.5828496,0.155570078 C2.94323228,0.200617912 3.20759112,0.505649403 3.21129557,0.858996708 L3.20571968,0.956403038 L2.88615457,3.50660334 C6.0595551,0.0660683357 11.2187709,-1.04722406 15.6377243,1.08738171 Z M3.09326788,13.5771271 C4.80163256,13.5771271 6.18653576,14.9620303 6.18653576,16.670395 C6.18653576,18.3787596 4.80163256,19.7636628 3.09326788,19.7636628 C1.3849032,19.7636628 4.4408921e-16,18.3787596 4.4408921e-16,16.670395 C4.4408921e-16,14.9620303 1.3849032,13.5771271 3.09326788,13.5771271 Z M3.09326788,15.0119097 C2.17731176,15.0119097 1.43478261,15.7544388 1.43478261,16.670395 C1.43478261,17.5863511 2.17731176,18.3288802 3.09326788,18.3288802 C4.00922401,18.3288802 4.75175316,17.5863511 4.75175316,16.670395 C4.75175316,15.7544388 4.00922401,15.0119097 3.09326788,15.0119097 Z" transform="translate(1 1)"/>
</svg>
