<svg xmlns="http://www.w3.org/2000/svg" width="24" height="24" viewBox="0 0 24 24">
  <path fill="#111" d="M11,-0.239130435 C12.452749,-0.239130435 13.6304348,0.938555332 13.6304348,2.39130435 C13.6304348,3.84405336 12.452749,5.02173913 11,5.02173913 C9.54725098,5.02173913 8.36956522,3.84405336 8.36956522,2.39130435 C8.36956522,0.938555332 9.54725098,-0.239130435 11,-0.239130435 Z M2.39130435,-0.239130435 C3.84405336,-0.239130435 5.02173913,0.938555332 5.02173913,2.39130435 C5.02173913,3.84405336 3.84405336,5.02173913 2.39130435,5.02173913 C0.938555332,5.02173913 -0.239130435,3.84405336 -0.239130435,2.39130435 C-0.239130435,0.938555332 0.938555332,-0.239130435 2.39130435,-0.239130435 Z M19.6086957,-0.239130435 C21.0614447,-0.239130435 22.2391304,0.938555332 22.2391304,2.39130435 C22.2391304,3.84405336 21.0614447,5.02173913 19.6086957,5.02173913 C18.1559466,5.02173913 16.9782609,3.84405336 16.9782609,2.39130435 C16.9782609,0.938555332 18.1559466,-0.239130435 19.6086957,-0.239130435 Z M11,1.19565217 C10.3396595,1.19565217 9.80434783,1.73096389 9.80434783,2.39130435 C9.80434783,3.05164481 10.3396595,3.58695652 11,3.58695652 C11.6603405,3.58695652 12.1956522,3.05164481 12.1956522,2.39130435 C12.1956522,1.73096389 11.6603405,1.19565217 11,1.19565217 Z M2.39130435,1.19565217 C1.73096389,1.19565217 1.19565217,1.73096389 1.19565217,2.39130435 C1.19565217,3.05164481 1.73096389,3.58695652 2.39130435,3.58695652 C3.05164481,3.58695652 3.58695652,3.05164481 3.58695652,2.39130435 C3.58695652,1.73096389 3.05164481,1.19565217 2.39130435,1.19565217 Z M19.6086957,1.19565217 C18.9483552,1.19565217 18.4130435,1.73096389 18.4130435,2.39130435 C18.4130435,3.05164481 18.9483552,3.58695652 19.6086957,3.58695652 C20.2690361,3.58695652 20.8043478,3.05164481 20.8043478,2.39130435 C20.8043478,1.73096389 20.2690361,1.19565217 19.6086957,1.19565217 Z" transform="translate(1 10)"/>
</svg>
