<svg xmlns="http://www.w3.org/2000/svg" width="24" height="24" viewBox="0 0 24 24">
  <path fill="#111" d="M0.916666667,0.166666667 C1.29636243,0.166666667 1.61015763,0.448820548 1.65982005,0.814896109 L1.66666667,0.916666667 L1.66666667,17.4166667 C1.66666667,17.8308802 1.33088023,18.1666667 0.916666667,18.1666667 C0.536970901,18.1666667 0.223175706,17.8845128 0.173513283,17.5184372 L0.166666667,17.4166667 L0.166666667,0.916666667 C0.166666667,0.502453104 0.502453104,0.166666667 0.916666667,0.166666667 Z M12.4469968,1.30300325 C12.7132633,1.56926981 12.7374694,1.98593349 12.5196149,2.27954499 L12.4469968,2.36366342 L6.39166667,8.41666667 L21.0833333,8.41666667 C21.4975469,8.41666667 21.8333333,8.7524531 21.8333333,9.16666667 C21.8333333,9.54636243 21.5511795,9.86015763 21.1851039,9.90982005 L21.0833333,9.91666667 L6.39366667,9.91666667 L12.4469968,15.9696699 C12.7132633,16.2359365 12.7374694,16.6526002 12.5196149,16.9462117 L12.4469968,17.0303301 C12.1807302,17.2965966 11.7640665,17.3208027 11.470455,17.1029482 L11.3863366,17.0303301 L4.05300325,9.69699675 L3.98960525,9.62496931 C3.98617611,9.62053339 3.98279557,9.61605799 3.97946443,9.6115439 L4.05300325,9.69699675 C4.01652444,9.66051795 3.98458894,9.62121629 3.95719674,9.57979494 C3.94539389,9.56183881 3.93415022,9.5431312 3.92372162,9.52391688 C3.91554829,9.50894593 3.9080252,9.49385151 3.90104225,9.47857077 C3.89275491,9.46045729 3.8849555,9.441436 3.87793309,9.42204256 C3.87243206,9.40669579 3.86761173,9.39186855 3.86326487,9.37693272 C3.85716298,9.35624603 3.85188956,9.33470894 3.8475677,9.31282989 C3.83619,9.25467114 3.83165226,9.19612551 3.83388596,9.13779089 L3.83333333,9.16666667 C3.83333333,9.12827442 3.83621804,9.09055594 3.84178252,9.05371614 C3.84358718,9.04214855 3.84564283,9.03043888 3.84797767,9.018774 C3.85292129,8.99377085 3.85909452,8.96947455 3.86641951,8.945683 C3.87004606,8.93402321 3.87407798,8.92197373 3.87842406,8.91001269 C3.88690832,8.88671505 3.89621019,8.86464648 3.90650647,8.84314488 C3.91216555,8.83119347 3.91865613,8.81851349 3.92553121,8.80598828 C3.93781669,8.78378353 3.95082453,8.76271007 3.9648105,8.74236128 C3.96962059,8.73524482 3.97492687,8.72781129 3.98038509,8.72045501 C4.00550449,8.68723722 4.0284034,8.66093643 4.05300325,8.63633658 L11.3863366,1.30300325 C11.6792298,1.01011003 12.1541035,1.01011003 12.4469968,1.30300325 Z" transform="translate(1 3)"/>
</svg>
