<svg xmlns="http://www.w3.org/2000/svg" width="24" height="24" viewBox="0 0 24 24">
  <path fill="#111" d="M20.259887,-7.10542736e-15 C21.2209249,-7.10542736e-15 22,0.779075125 22,1.74011299 L22,1.74011299 L21.999,8.934 L22,8.94915254 L21.999,8.963 L22,20.259887 C22,21.172873 21.2968847,21.9216376 20.4026033,21.9942316 L20.259887,22 L1.74011299,22 C0.779075125,22 -5.32907052e-15,21.2209249 -5.32907052e-15,20.259887 L-5.32907052e-15,20.259887 L-8.8817842e-15,1.74011299 C-8.8817842e-15,0.779075125 0.779075125,-3.55271368e-15 1.74011299,-3.55271368e-15 L1.74011299,-3.55271368e-15 Z M12.305,1.491 L1.74011299,1.49152542 C1.60282187,1.49152542 1.49152542,1.60282187 1.49152542,1.74011299 L1.49152542,1.74011299 L1.49152542,20.259887 C1.49152542,20.3971781 1.60282187,20.5084746 1.74011299,20.5084746 L1.74011299,20.5084746 L20.259887,20.5084746 C20.3971781,20.5084746 20.5084746,20.3971781 20.5084746,20.259887 L20.5084746,20.259887 L20.508,9.694 L13.0508475,9.69491525 C12.6732969,9.69491525 12.3612745,9.41435546 12.3118927,9.05034812 L12.3050847,8.94915254 L12.305,1.491 Z M4.84745763,10.9378531 C5.22500822,10.9378531 5.53703056,11.2184129 5.5864124,11.5824202 L5.59322034,11.6836158 L5.592,15.353 L9.78905031,11.1562819 C10.0802888,10.8650435 10.5524796,10.8650435 10.8437181,11.1562819 C11.1084803,11.4210442 11.1325496,11.8353538 10.9159259,12.1273065 L10.8437181,12.2109497 L6.647,16.406 L10.3163842,16.4067797 C10.6939348,16.4067797 11.0059571,16.6873395 11.055339,17.0513468 L11.0621469,17.1525424 C11.0621469,17.530093 10.7815871,17.8421153 10.4175798,17.8914972 L10.3163842,17.8983051 L4.84745763,17.8983051 L4.81843452,17.8977436 C4.80268405,17.897134 4.78694921,17.8960279 4.77125548,17.8944253 L4.84745763,17.8983051 C4.80464261,17.8983051 4.76267029,17.8946971 4.72182813,17.8877685 C4.70328115,17.8845625 4.68455787,17.8806453 4.66597846,17.8760034 C4.65267674,17.8727413 4.63961651,17.8690873 4.62670623,17.8650922 C4.60781646,17.8592146 4.58884213,17.8525125 4.57011025,17.8450204 C4.55477795,17.8388746 4.53995965,17.8323528 4.52540299,17.8253725 C4.51133752,17.8186927 4.49675923,17.8111327 4.48239151,17.8030595 C4.46802443,17.7948932 4.45460606,17.7867564 4.44147331,17.7782175 C4.42574214,17.7680846 4.40984699,17.7568655 4.39431319,17.7449524 C4.33987216,17.7032227 4.2911284,17.6539378 4.24985155,17.5987441 L4.32012376,17.6798762 C4.28263019,17.6423827 4.24996349,17.6018901 4.22212365,17.5591707 C4.21102025,17.5420343 4.20031901,17.5240293 4.19037396,17.505557 C4.18266111,17.4912848 4.17584181,17.477554 4.16947156,17.4636677 C4.16113212,17.4455289 4.15318342,17.4261957 4.1460427,17.4064755 C4.14055837,17.3911755 4.13575348,17.3763914 4.13142195,17.3614988 C4.12552682,17.3415191 4.12038037,17.3205892 4.11613746,17.2993332 C4.10610003,17.2484702 4.10132538,17.1975983 4.1017172,17.1467589 L4.10169492,11.6836158 C4.10169492,11.2717424 4.43558425,10.9378531 4.84745763,10.9378531 Z M20.259887,1.49152542 L13.796,1.491 L13.796113,8.20289266 L20.508,8.203 L20.5084746,1.74011299 C20.5084746,1.62243489 20.4267058,1.52385491 20.3168859,1.4980908 L20.259887,1.49152542 Z" transform="translate(1 1)"/>
</svg>
