<svg xmlns="http://www.w3.org/2000/svg" width="24" height="24" viewBox="0 0 24 24">
  <path fill="#111" d="M0.916666667,0.166666667 C1.29636243,0.166666667 1.61015763,0.448820548 1.65982005,0.814896109 L1.66666667,0.916666667 L1.66666667,17.4166667 C1.66666667,17.8308802 1.33088023,18.1666667 0.916666667,18.1666667 C0.536970901,18.1666667 0.223175706,17.8845128 0.173513283,17.5184372 L0.166666667,17.4166667 L0.166666667,0.916666667 C0.166666667,0.502453104 0.502453104,0.166666667 0.916666667,0.166666667 Z M14.1962117,1.23038509 L14.2803301,1.30300325 L21.6492635,8.67448812 L21.6681593,8.69701316 L21.7337568,8.7929838 L21.7724487,8.87015855 L21.8046575,8.96056965 L21.8205473,9.02838267 L21.8333333,9.16666667 L21.8300632,9.2371679 L21.8140997,9.33587476 L21.783344,9.43641858 L21.7482566,9.51404917 L21.6961498,9.59924807 L21.6770614,9.62496931 L21.6136634,9.69699675 L14.2803301,17.0303301 C13.9874369,17.3232233 13.5125631,17.3232233 13.2196699,17.0303301 C12.9534034,16.7640635 12.9291973,16.3473998 13.1470518,16.0537883 L13.2196699,15.9696699 L19.273,9.916 L4.58333333,9.91666667 C4.16911977,9.91666667 3.83333333,9.58088023 3.83333333,9.16666667 C3.83333333,8.7869709 4.11548721,8.47317571 4.48156278,8.42351328 L4.58333333,8.41666667 L19.273,8.416 L13.2196699,2.36366342 C12.9534034,2.09739686 12.9291973,1.68073317 13.1470518,1.38712168 L13.2196699,1.30300325 C13.4563513,1.06632186 13.811865,1.02089816 14.0941588,1.16673214 L14.1962117,1.23038509 Z" transform="translate(1 3)"/>
</svg>
