<svg xmlns="http://www.w3.org/2000/svg" width="24" height="24" viewBox="0 0 24 24">
  <path fill="#111" d="M8.36956522,1.77635684e-15 C12.8665839,1.77635684e-15 16.7391304,3.49068551 16.7391304,8.36956522 C16.7391304,9.66972242 16.3292984,11.1220648 15.5746232,12.7068827 C14.887471,14.1499023 13.9302402,15.6696992 12.7711673,17.2272034 C11.9200724,18.3708621 11.0096625,19.4690442 10.0991939,20.4838372 C10.019486,20.5726784 9.94118457,20.6592988 9.86440595,20.743623 L9.86440595,20.743623 L9.42293677,21.2214088 L9.21764958,21.4385025 L8.87683747,21.789881 C8.59667874,22.0700397 8.14245169,22.0700397 7.86229296,21.789881 L7.86229296,21.789881 L7.76116245,21.687308 L7.31619367,21.2214088 C7.24597078,21.1465718 7.1739928,21.0692875 7.10037588,20.9896313 L7.10037588,20.9896313 L6.6399365,20.4838372 C5.72946798,19.4690442 4.81905802,18.3708621 3.96796312,17.2272034 C2.80889028,15.6696992 1.85165946,14.1499023 1.16450728,12.7068827 C0.409832064,11.1220648 0,9.66972242 0,8.36956522 C0,3.49068551 3.87254656,1.77635684e-15 8.36956522,1.77635684e-15 Z M8.36956522,1.43478261 C4.63365369,1.43478261 1.43478261,4.3182219 1.43478261,8.36956522 C1.43478261,9.42546638 1.78925903,10.6816422 2.45991585,12.0900215 C3.10204072,13.4384837 4.01147845,14.8823995 5.1189934,16.3706227 C5.94181154,17.4762846 6.82487985,18.5414857 7.70788959,19.5256737 C7.78511095,19.6117433 7.8609366,19.6956259 7.93524919,19.7772437 L7.93524919,19.7772437 L8.36956522,20.2466957 L8.80388125,19.7772437 L9.03124085,19.5256737 C9.91425059,18.5414857 10.7973189,17.4762846 11.620137,16.3706227 C12.727652,14.8823995 13.6370897,13.4384837 14.2792146,12.0900215 C14.9498714,10.6816422 15.3043478,9.42546638 15.3043478,8.36956522 C15.3043478,4.3182219 12.1054767,1.43478261 8.36956522,1.43478261 Z M8.36956522,5.26086957 C10.0864504,5.26086957 11.4782609,6.65268002 11.4782609,8.36956522 C11.4782609,10.0864504 10.0864504,11.4782609 8.36956522,11.4782609 C6.65268002,11.4782609 5.26086957,10.0864504 5.26086957,8.36956522 C5.26086957,6.65268002 6.65268002,5.26086957 8.36956522,5.26086957 Z M8.36956522,6.69565217 C7.44508857,6.69565217 6.69565217,7.44508857 6.69565217,8.36956522 C6.69565217,9.29404186 7.44508857,10.0434783 8.36956522,10.0434783 C9.29404186,10.0434783 10.0434783,9.29404186 10.0434783,8.36956522 C10.0434783,7.44508857 9.29404186,6.69565217 8.36956522,6.69565217 Z" transform="translate(3 1)"/>
</svg>
