<svg xmlns="http://www.w3.org/2000/svg" width="24" height="24" viewBox="0 0 24 24">
  <path fill="#111" d="M8.35757303,0.485565052 C8.82227715,0.358827565 9.25160743,0.779120321 9.1347837,1.24641522 C8.91417819,2.12883727 8.79979898,2.94583165 8.79979898,3.74707602 C8.79979898,8.98908005 13.0109199,13.200201 18.252924,13.200201 C19.1495285,13.200201 19.9683155,13.0937587 20.7299744,12.8716082 C21.2028424,12.7336884 21.6440389,13.1672125 21.5144349,13.642427 C20.2541109,18.2636153 16.0287331,21.5366411 11.1769006,21.5366411 C5.27416777,21.5366411 0.463358918,16.7258322 0.463358918,10.8230994 C0.463358918,5.94798042 3.72422593,1.74920517 8.35757303,0.485565052 Z M7.68342361,2.03759722 L7.52310682,2.10232943 C4.06388851,3.54873444 1.72377558,6.94238547 1.72377558,10.8230994 C1.72377558,16.0297233 5.97027667,20.2762244 11.1769006,20.2762244 C15.0372078,20.2762244 18.4500979,17.9257214 19.8979156,14.4738373 L19.8979156,14.4738373 L19.9556806,14.3308611 L19.7164045,14.367568 C19.3632614,14.4145185 19.0010253,14.4433837 18.6286785,14.4548819 L18.6286785,14.4548819 L18.252924,14.4606177 C12.314811,14.4606177 7.53938231,9.68518895 7.53938231,3.74707602 C7.53938231,3.29099395 7.57149657,2.83356533 7.6341309,2.36807695 L7.6341309,2.36807695 L7.68342361,2.03759722 Z M19.4912281,6.12417763 C19.810278,6.12417763 20.0739531,6.36126527 20.1156833,6.66887043 L20.1214364,6.75438596 L20.1213589,7.53869638 L20.9064327,7.53938231 C21.2544872,7.53938231 21.5366411,7.82153619 21.5366411,8.16959064 C21.5366411,8.48864056 21.2995534,8.75231569 20.9919483,8.79404592 L20.9064327,8.79979898 L20.1213589,8.79969638 L20.1214364,9.58479532 C20.1214364,9.93284977 19.8392825,10.2150037 19.4912281,10.2150037 C19.1721782,10.2150037 18.908503,9.97791602 18.8667728,9.67031086 L18.8610197,9.58479532 L18.8603589,8.79969638 L18.0760234,8.79979898 C17.7279689,8.79979898 17.4458151,8.51764509 17.4458151,8.16959064 C17.4458151,7.85054073 17.6829027,7.5868656 17.9905079,7.54513537 L18.0760234,7.53938231 L18.8603589,7.53869638 L18.8610197,6.75438596 C18.8610197,6.40633151 19.1431736,6.12417763 19.4912281,6.12417763 Z M14.5380117,0.463358918 C14.8570616,0.463358918 15.1207367,0.700446555 15.162467,1.00805171 L15.16822,1.09356725 L15.1673589,1.87769638 L15.9532164,1.8785636 C16.3012708,1.8785636 16.5834247,2.16071748 16.5834247,2.50877193 C16.5834247,2.82782184 16.3463371,3.09149697 16.0387319,3.1332272 L15.9532164,3.13898026 L15.1673589,3.13869638 L15.16822,3.92397661 C15.16822,4.27203106 14.8860661,4.55418494 14.5380117,4.55418494 C14.2189618,4.55418494 13.9552867,4.3170973 13.9135564,4.00949215 L13.9078034,3.92397661 L13.9073589,3.13869638 L13.122807,3.13898026 C12.7747526,3.13898026 12.4925987,2.85682638 12.4925987,2.50877193 C12.4925987,2.18972202 12.7296863,1.92604689 13.0372915,1.88431666 L13.122807,1.8785636 L13.9073589,1.87769638 L13.9078034,1.09356725 C13.9078034,0.7455128 14.1899572,0.463358918 14.5380117,0.463358918 Z" transform="translate(1 1)"/>
</svg>
