<svg xmlns="http://www.w3.org/2000/svg" width="24" height="24" viewBox="0 0 24 24">
  <path fill="#111" d="M20.3125,-0.0625 C21.2789983,-0.0625 22.0625,0.721001688 22.0625,1.6875 L22.0625,1.6875 L22.0625,20.3125 C22.0625,21.2789983 21.2789983,22.0625 20.3125,22.0625 L20.3125,22.0625 L1.6875,22.0625 C0.721001688,22.0625 -0.0625,21.2789983 -0.0625,20.3125 L-0.0625,20.3125 L-0.0625,1.6875 C-0.0625,0.721001688 0.721001688,-0.0625 1.6875,-0.0625 L1.6875,-0.0625 Z M8.187,13.812 L1.4375,13.8125 L1.4375,20.3125 C1.4375,20.4308467 1.51973341,20.5299868 1.63017729,20.5558973 L1.6875,20.5625 L8.1875,20.5625 L8.187,13.812 Z M20.3125,1.4375 L1.6875,1.4375 C1.54942881,1.4375 1.4375,1.54942881 1.4375,1.6875 L1.4375,1.6875 L1.4375,12.3125 L8.9375,12.3125 C9.31719577,12.3125 9.63099096,12.5946539 9.68065338,12.9607294 L9.6875,13.0625 L9.6875,20.5625 L20.3125,20.5625 C20.4308467,20.5625 20.5299868,20.4802666 20.5558973,20.3698227 L20.5625,20.3125 L20.5625,1.6875 C20.5625,1.54942881 20.4505712,1.4375 20.3125,1.4375 L20.3125,1.4375 Z M17.1875,4.0625 L17.204948,4.06270172 C17.2249655,4.06316463 17.2449681,4.06442429 17.264904,4.0664807 L17.1875,4.0625 C17.2343456,4.0625 17.280188,4.06679489 17.3246551,4.07501238 C17.3355328,4.07707582 17.3472261,4.07951468 17.358867,4.08223472 C17.3823272,4.08767085 17.4047835,4.09407935 17.4267836,4.10148031 C17.4365913,4.10480301 17.4469565,4.10852848 17.4572519,4.11248933 C17.4765942,4.11994952 17.4950139,4.127945 17.5130328,4.13663984 C17.5274909,4.14355843 17.5421244,4.1512019 17.5565453,4.15936081 C17.5740081,4.16931304 17.5911581,4.17996126 17.6078291,4.1912629 C17.6181612,4.19818532 17.6286291,4.20567572 17.6389416,4.21346775 C17.6956986,4.25640193 17.7460304,4.30697237 17.7885016,4.36376304 L17.7178301,4.28216991 C17.7548834,4.31922319 17.7872491,4.35918892 17.8149273,4.40133021 C17.8280922,4.42148514 17.8404723,4.44247247 17.851829,4.46408175 C17.8566626,4.47320362 17.8610192,4.48193437 17.8651949,4.49072959 C17.877942,4.51751812 17.8894466,4.54597789 17.8991971,4.57523953 C17.9014554,4.58218322 17.9033799,4.58825442 17.9052252,4.59434446 C17.9165814,4.63143395 17.9252062,4.67057689 17.9306534,4.71072944 L17.9375,4.8125 L17.9375,10.3125 C17.9375,10.7267136 17.6017136,11.0625 17.1875,11.0625 C16.8078042,11.0625 16.494009,10.7803461 16.4443466,10.4142706 L16.4375,10.3125 L16.4365,6.6235 L12.2178301,10.8428301 C11.9249369,11.1357233 11.4500631,11.1357233 11.1571699,10.8428301 C10.8909034,10.5765635 10.8666973,10.1598998 11.0845518,9.86628835 L11.1571699,9.78216991 L15.3765,5.5615 L11.6875,5.5625 C11.3078042,5.5625 10.994009,5.28034612 10.9443466,4.91427056 L10.9375,4.8125 C10.9375,4.43280423 11.2196539,4.11900904 11.5857294,4.06934662 L11.6875,4.0625 L17.1875,4.0625 Z" transform="translate(1 1)"/>
</svg>
