<svg xmlns="http://www.w3.org/2000/svg" width="24" height="24" viewBox="0 0 24 24">
  <path fill="#111" d="M9.92407019,0 C10.2872574,0 10.5874094,0.269886322 10.6349126,0.620045554 L10.6414615,0.717391304 L10.641,2.941 L16.531,6.475 L18.8097648,5.33660658 C19.1641407,5.15941864 19.5950583,5.30305785 19.7722462,5.65743372 C19.9346685,5.98227828 19.8275069,6.37143916 19.535559,6.57052327 L19.4514191,6.61991516 L17.217,7.736 L17.217,13.426 L19.4514191,14.5431283 C19.805795,14.7203163 19.9494342,15.1512339 19.7722462,15.5056098 C19.6098239,15.8304543 19.2341983,15.9782215 18.8997622,15.8641137 L18.8097648,15.8264369 L16.531,14.687 L10.641,18.221 L10.6414615,20.4456522 C10.6414615,20.8418565 10.3202745,21.1630435 9.92407019,21.1630435 C9.56088294,21.1630435 9.26073101,20.8931572 9.21322783,20.5429979 L9.20667889,20.4456522 L9.206,18.221 L3.316,14.687 L1.0383756,15.8264369 C0.68399972,16.0036248 0.253082104,15.8599856 0.0758941644,15.5056098 C-0.0865281133,15.1807652 0.0206335292,14.7916043 0.312581396,14.5925202 L0.396721309,14.5431283 L2.63,13.426 L2.63,7.736 L0.396721309,6.61991516 C0.0423454304,6.44272722 -0.101293775,6.0118096 0.0758941644,5.65743372 C0.238316442,5.33258917 0.613942129,5.18482196 0.948378138,5.29892978 L1.0383756,5.33660658 L3.316,6.475 L9.206,2.941 L9.20667889,0.717391304 C9.20667889,0.321187027 9.52786592,0 9.92407019,0 Z M9.92359193,4.18430435 L4.06489628,7.69952174 L4.06489628,13.4625652 L9.92359193,16.9777826 L15.7822876,13.4625652 L15.7822876,7.69952174 L9.92359193,4.18430435 Z" transform="translate(2 1)"/>
</svg>
