<svg xmlns="http://www.w3.org/2000/svg" width="24" height="24" viewBox="0 0 24 24">
  <path fill="#111" d="M10.6455013,0.000335557745 C13.2747539,0.0103196253 15.7537264,0.981556777 17.6743174,2.69994207 C19.908943,4.69909487 21.2110656,7.54799262 21.2110656,10.6055328 C21.2110656,13.6634511 19.9085726,16.5127306 17.6735424,18.511556 C15.7426165,20.2390592 13.2488192,21.2110656 10.6055328,21.2110656 C10.4376805,21.2110656 10.2692669,21.2069105 10.1008931,21.1987396 C4.45867004,20.9340996 0,16.2745369 0,10.6055328 C0,4.74821815 4.74832748,-5.44749431e-14 10.6055328,-5.44749431e-14 L10.6055328,-5.44749431e-14 Z M11.2574565,1.56770464 L11.2734206,1.56369345 C11.3799637,1.53571949 11.4871754,1.50999043 11.5950057,1.48653978 L11.377079,1.53704885 C11.4372717,1.52213215 11.4976709,1.50792985 11.5582677,1.49444793 L11.5950057,1.48653978 L11.7761161,1.44986612 L11.5662948,1.42502767 C11.3618354,1.40382427 11.1558504,1.38932075 10.9485997,1.38165552 L10.9485997,1.38165552 L10.6368069,1.37530368 L10.3514607,1.37842918 C5.37110283,1.51302203 1.375,5.59258203 1.375,10.6055328 C1.375,15.5393397 5.25578068,19.5949752 10.1664243,19.8253025 C10.3139014,19.8324585 10.4601018,19.8360656 10.6055328,19.8360656 C10.9193979,19.8360656 11.2307844,19.8203496 11.538795,19.7893905 L11.538795,19.7893905 L11.7779495,19.7611995 L11.5952817,19.7251447 C11.1170741,19.6213534 10.6512155,19.4729347 10.2022273,19.2830116 C10.1933407,19.2778524 10.1846799,19.2741618 10.1760253,19.2704558 C10.098986,19.2389629 10.0221908,19.2047099 9.94592276,19.1692409 C9.93301149,19.161567 9.91936033,19.1551583 9.90572581,19.1487103 C8.79839008,18.627786 7.80437553,17.8490139 6.99404592,16.862895 L6.99404592,16.862895 L6.81630363,16.639427 C5.58417556,15.1851667 4.84902049,13.1017378 4.79834426,10.8392678 L4.79834426,10.8392678 L4.79851784,10.3566805 C4.84901886,8.10973092 5.58413132,6.02661228 6.79614271,4.59725321 L6.792,4.602 C6.8606039,4.51321591 6.9262821,4.43089777 6.99314031,4.349993 C7.03188659,4.30344385 7.07060103,4.25753608 7.10969623,4.21209735 C7.14448255,4.17133004 7.18000376,4.13077886 7.21582879,4.09061169 C7.22989965,4.0751641 7.24438103,4.05904315 7.25891141,4.04298474 C7.31532321,3.98031413 7.3722684,3.91913077 7.42992731,3.85889638 C7.45913577,3.82871142 7.48874568,3.798218 7.51853893,3.76797341 C7.645814,3.63844023 7.77644,3.51377391 7.91021194,3.3937836 C7.92025779,3.38509989 7.93059888,3.37586795 7.9409586,3.3666639 C8.01232352,3.30293976 8.08421629,3.24116388 8.1569554,3.18071908 C8.16759036,3.17220707 8.17828097,3.16336694 8.18898971,3.15455553 C8.25916301,3.09649203 8.3300432,3.04004199 8.40167396,2.9848402 C8.4184455,2.97224038 8.43448992,2.9599697 8.45057153,2.94776153 C8.77966089,2.69757652 9.12495325,2.47355183 9.48335337,2.27749353 C9.51104534,2.2626365 9.53931206,2.24738731 9.56765865,2.23231187 C9.62627971,2.2008526 9.68459732,2.1707514 9.74323851,2.14138438 C9.77867066,2.12392106 9.81468258,2.10621796 9.85081334,2.08879144 C9.90790081,2.06098005 9.96517584,2.0341893 10.022737,2.00809288 C10.0552235,1.99363685 10.0876145,1.97921072 10.1200939,1.9650043 C10.1963884,1.93136632 10.2733714,1.89912882 10.3508231,1.86812486 C10.3625394,1.86369123 10.3739163,1.85916767 10.3853032,1.85467072 C10.4635078,1.82353078 10.5425887,1.7937562 10.6221246,1.76526501 C10.6448726,1.75735716 10.6673059,1.74943568 10.6897748,1.74161629 C10.7659944,1.7148555 10.8429181,1.68941418 10.9202345,1.66517023 C10.9394743,1.65935868 10.9585663,1.65345156 10.9776819,1.64761745 L11.2574565,1.56770464 L11.2574565,1.56770464 Z M13.2407541,2.68484153 L12.9173338,2.69303619 C12.8943234,2.6942042 12.8713336,2.69549652 12.8483648,2.69691276 L12.9174541,2.69300029 C12.8156363,2.69814985 12.7142217,2.70572621 12.6132653,2.71569855 L12.8483648,2.69691276 C12.5718097,2.71396504 12.2983102,2.74898388 12.0289238,2.80133311 L12.1866526,2.85349597 C14.7132576,3.7188328 16.5413111,6.75904003 16.6230993,10.3538525 L16.6230993,10.3538525 L16.625959,10.6055328 C16.625959,14.3094443 14.7720158,17.4721087 12.1866526,18.3575696 L12.1866526,18.3575696 L12.0268585,18.4098263 C12.1291206,18.4296939 12.2319866,18.4470749 12.3353957,18.4619312 C12.3767124,18.4675668 12.4180487,18.4730882 12.4594678,18.4782056 L12.3353957,18.4619312 C12.4128423,18.4730576 12.4905935,18.4827679 12.568624,18.491046 L12.4594678,18.4782056 C12.543008,18.4885271 12.6268852,18.4972051 12.711068,18.5042198 L12.568624,18.491046 C12.6536419,18.5000654 12.7389914,18.5073847 12.8246394,18.5129831 L12.9815831,18.5209702 L13.2407541,18.526224 L13.2407541,18.526224 L13.5356056,18.5197805 C13.7315164,18.5107631 13.9260531,18.4927724 14.1188528,18.465985 L14.4066359,18.418883 C15.2660289,18.2589358 16.0866868,17.9226401 16.8352389,17.4261602 L16.8352389,17.4261602 L16.7939495,17.4521161 L16.9778892,17.2825494 C18.7163194,15.6241871 19.751059,13.3556724 19.8310566,10.9118873 L19.8310566,10.9118873 L19.8360656,10.6055328 C19.8360656,7.9434047 18.7036037,5.46570551 16.7575119,3.72468232 L16.7981665,3.76038068 C16.5829886,3.6196392 16.3619502,3.49207537 16.1358307,3.37806737 C16.1050436,3.36254306 16.073903,3.34714429 16.0426686,3.33200204 L16.1358307,3.37806737 C16.0503094,3.33494814 15.9640614,3.293768 15.8771287,3.2545474 L16.0426686,3.33200204 C15.9536833,3.2888625 15.8639369,3.2478049 15.773476,3.20885188 L15.8771287,3.2545474 C15.7913162,3.2158322 15.7048365,3.17902637 15.6177303,3.14414959 L15.773476,3.20885188 C15.6737711,3.16591828 15.5731982,3.12554137 15.4718198,3.08775144 L15.6177303,3.14414959 C15.5201047,3.10506095 15.4216921,3.06839541 15.3225494,3.03418067 L15.4718198,3.08775144 C15.3795054,3.05334023 15.2865232,3.02107409 15.1929201,2.9909759 L15.3225494,3.03418067 C15.2289946,3.00189431 15.1347897,2.97179028 15.0399827,2.94389186 L15.1929201,2.9909759 C15.0938215,2.95911059 14.9940271,2.92967528 14.8935928,2.9026971 L15.0399827,2.94389186 C14.9380299,2.91389064 14.8353807,2.88644005 14.7320951,2.86156903 L14.8935928,2.9026971 C14.8035283,2.8785044 14.7129492,2.85628764 14.621896,2.8360664 L14.7320951,2.86156903 C14.6336322,2.83785934 14.5345908,2.81649395 14.4350226,2.79749794 L14.621896,2.8360664 C14.5162678,2.81260835 14.4100016,2.7918358 14.3031601,2.77377931 L14.4350226,2.79749794 C14.3375287,2.77889767 14.2395296,2.76256909 14.141074,2.74853573 L14.3031601,2.77377931 C14.1821339,2.75332556 14.0603697,2.73635695 13.937959,2.7229179 L14.141074,2.74853573 C14.044009,2.73470059 13.9465002,2.7230963 13.8485941,2.71374541 L13.5356463,2.69161732 L13.2407541,2.68484153 L13.2407541,2.68484153 Z M10.7106639,3.98178962 C9.67482876,3.98178962 8.67802825,4.50146858 7.86543621,5.46075813 L7.873,5.451 L7.86539036,5.46114285 L7.69892995,5.66718993 C6.77664796,6.86408467 6.21441729,8.5519556 6.17334426,10.3721284 L6.17334426,10.3721284 L6.17317069,10.8238198 C6.21683525,12.7665939 6.84465035,14.5458214 7.88551499,15.7754902 L7.86536876,15.7502278 C8.67818177,16.709483 9.67506188,17.229276 10.7106639,17.229276 C13.158976,17.229276 15.250959,14.3035336 15.250959,10.6055328 C15.250959,6.90753201 13.158976,3.98178962 10.7106639,3.98178962 Z" transform="translate(1 1)"/>
</svg>
