<svg xmlns="http://www.w3.org/2000/svg" width="24" height="24" viewBox="0 0 24 24">
  <path fill="#111" d="M8.25,8.45249796e-14 C10.4634687,8.45249796e-14 12.269137,1.74242628 12.3705111,3.93078523 L12.375,4.125 L12.3761095,6.60434505 C14.8414283,8.03096676 16.5,10.6967933 16.5,13.75 C16.5,18.3063492 12.8063492,22 8.25,22 C3.69365081,22 0,18.3063492 0,13.75 C0,10.6963817 1.65901891,8.03024802 4.12488755,6.60376816 L4.125,4.125 C4.125,1.84642923 5.97142923,8.45249796e-14 8.25,8.45249796e-14 Z M8.25,6.875 C4.45304235,6.875 1.375,9.95304235 1.375,13.75 C1.375,17.5469577 4.45304235,20.625 8.25,20.625 C12.0469577,20.625 15.125,17.5469577 15.125,13.75 C15.125,9.95304235 12.0469577,6.875 8.25,6.875 Z M8.25,11 C9.76878306,11 11,12.2312169 11,13.75 C11,15.2687831 9.76878306,16.5 8.25,16.5 C6.73121694,16.5 5.5,15.2687831 5.5,13.75 C5.5,12.2312169 6.73121694,11 8.25,11 Z M8.25,12.375 C7.49060847,12.375 6.875,12.9906085 6.875,13.75 C6.875,14.5093915 7.49060847,15.125 8.25,15.125 C9.00939153,15.125 9.625,14.5093915 9.625,13.75 C9.625,12.9906085 9.00939153,12.375 8.25,12.375 Z M8.25,1.375 C6.78507717,1.375 5.58828357,2.51947492 5.50466684,3.96337714 L5.5,4.125 L5.50027143,5.96934477 C6.36033677,5.66538931 7.28585401,5.5 8.25,5.5 C9.214521,5.5 10.1403832,5.66551799 11.0007321,5.9696995 L11,4.125 C11,2.60582077 9.76917923,1.375 8.25,1.375 Z" transform="translate(4 1)"/>
</svg>
