<svg xmlns="http://www.w3.org/2000/svg" width="24" height="24" viewBox="0 0 24 24">
  <path fill="#111" d="M8.25,8.45249796e-14 C9.56246493,8.45249796e-14 10.7742214,0.618106987 11.5479716,1.64638026 C11.7762694,1.94977603 11.7153905,2.38079882 11.4119947,2.60909662 C11.108599,2.83739442 10.6775762,2.7765155 10.4492784,2.47311974 C9.93263519,1.78652814 9.12586241,1.375 8.25,1.375 C6.78507717,1.375 5.58828357,2.51947492 5.50466684,3.96337714 L5.5,4.125 L5.49926788,5.9696995 C6.35961681,5.66551799 7.285479,5.5 8.25,5.5 C12.8063492,5.5 16.5,9.19365081 16.5,13.75 C16.5,18.3063492 12.8063492,22 8.25,22 C3.69365081,22 0,18.3063492 0,13.75 C0,10.6967933 1.65857171,8.03096676 4.12389048,6.60434505 L4.125,4.125 C4.125,1.84642923 5.97142923,8.45249796e-14 8.25,8.45249796e-14 Z M8.25,6.875 C4.45304235,6.875 1.375,9.95304235 1.375,13.75 C1.375,17.5469577 4.45304235,20.625 8.25,20.625 C12.0469577,20.625 15.125,17.5469577 15.125,13.75 C15.125,9.95304235 12.0469577,6.875 8.25,6.875 Z M8.25,11 C9.76878306,11 11,12.2312169 11,13.75 C11,15.2687831 9.76878306,16.5 8.25,16.5 C6.73121694,16.5 5.5,15.2687831 5.5,13.75 C5.5,12.2312169 6.73121694,11 8.25,11 Z M8.25,12.375 C7.49060847,12.375 6.875,12.9906085 6.875,13.75 C6.875,14.5093915 7.49060847,15.125 8.25,15.125 C9.00939153,15.125 9.625,14.5093915 9.625,13.75 C9.625,12.9906085 9.00939153,12.375 8.25,12.375 Z" transform="translate(4 1)"/>
</svg>
