<svg xmlns="http://www.w3.org/2000/svg" width="24" height="24" viewBox="0 0 24 24">
  <path fill="#111" d="M10.7816635,-5.38313355e-14 C16.7362119,-5.38313355e-14 21.563327,4.82711518 21.563327,10.7816635 C21.563327,16.7362119 16.7362119,21.563327 10.7816635,21.563327 C4.82711518,21.563327 5.38313355e-14,16.7362119 5.38313355e-14,10.7816635 C5.38313355e-14,4.82711518 4.82711518,-5.38313355e-14 10.7816635,-5.38313355e-14 Z M10.7816635,1.43478261 C5.61952373,1.43478261 1.43478261,5.61952373 1.43478261,10.7816635 C1.43478261,15.9438033 5.61952373,20.1285444 10.7816635,20.1285444 C15.9438033,20.1285444 20.1285444,15.9438033 20.1285444,10.7816635 C20.1285444,5.61952373 15.9438033,1.43478261 10.7816635,1.43478261 Z M8.036862,6.40453686 C8.40004926,6.40453686 8.70020118,6.67442318 8.74770437,7.02458242 L8.75425331,7.12192817 L8.75425331,14.4413989 C8.75425331,14.8376031 8.43306628,15.1587902 8.036862,15.1587902 C7.67367475,15.1587902 7.37352282,14.8889038 7.32601964,14.5387446 L7.3194707,14.4413989 L7.3194707,7.12192817 C7.3194707,6.72572389 7.64065773,6.40453686 8.036862,6.40453686 Z M13.526465,6.40453686 C13.8896523,6.40453686 14.1898042,6.67442318 14.2373074,7.02458242 L14.2438563,7.12192817 L14.2438563,14.4413989 C14.2438563,14.8376031 13.9226693,15.1587902 13.526465,15.1587902 C13.1632778,15.1587902 12.8631258,14.8889038 12.8156227,14.5387446 L12.8090737,14.4413989 L12.8090737,7.12192817 C12.8090737,6.72572389 13.1302608,6.40453686 13.526465,6.40453686 Z" transform="translate(1 1)"/>
</svg>
