<svg xmlns="http://www.w3.org/2000/svg" width="24" height="24" viewBox="0 0 24 24">
  <path fill="#111" d="M8.036862,-5.58200829e-14 C8.40004926,-5.58200829e-14 8.70020118,0.269886322 8.74770437,0.620045554 L8.75425331,0.717391304 L8.754,2.744 L9.86672968,2.74480151 C10.2299169,2.74480151 10.5300689,3.01468783 10.577572,3.36484707 L10.584121,3.46219282 L10.584121,8.036862 C10.584121,10.7033983 8.60684246,12.9220666 6.00971512,13.2792827 L6.00862004,20.1278374 L17.3835766,20.1278374 L17.383,12.413 L15.3563327,12.4139887 C14.9931454,12.4139887 14.6929935,12.1441023 14.6454903,11.7939431 L14.6389414,11.6965974 L14.6389414,3.46219282 C14.6389414,3.06598854 14.9601284,2.74480151 15.3563327,2.74480151 L15.3563327,2.74480151 L20.8459357,2.74480151 C21.24214,2.74480151 21.563327,3.06598854 21.563327,3.46219282 L21.563327,3.46219282 L21.563327,11.6965974 C21.563327,12.0928016 21.24214,12.4139887 20.8459357,12.4139887 L20.8459357,12.4139887 L18.818,12.413 L18.8185255,20.8459357 C18.8185255,21.209123 18.5486392,21.5092749 18.19848,21.5567781 L18.1011342,21.563327 L5.29206049,21.563327 C4.92887324,21.563327 4.62872131,21.2934407 4.58121812,20.9432815 L4.57466919,20.8459357 L4.57437452,13.2806501 C1.99139791,12.9303217 -3.47548077e-15,10.715786 -3.47548077e-15,8.036862 L-3.47548077e-15,8.036862 L-3.47548077e-15,3.46219282 C-3.47548077e-15,3.06598854 0.321187027,2.74480151 0.717391304,2.74480151 L0.717391304,2.74480151 L1.829,2.744 L1.82986767,0.717391304 C1.82986767,0.321187027 2.1510547,-5.58200829e-14 2.54725898,-5.58200829e-14 C2.91044623,-5.58200829e-14 3.21059816,0.269886322 3.25810135,0.620045554 L3.26465028,0.717391304 L3.264,2.744 L7.319,2.744 L7.3194707,0.717391304 C7.3194707,0.321187027 7.64065773,-5.58200829e-14 8.036862,-5.58200829e-14 Z M2.534,4.178 L1.43453308,4.17879395 L1.43478261,8.036862 C1.43478261,10.1022468 3.05903075,11.7890823 5.085267,11.8895747 L5.085267,11.8895747 L5.27636705,11.8943116 L5.46437826,11.8903704 C7.52042533,11.8002163 9.14933837,10.1027122 9.14933837,8.036862 L9.14933837,8.036862 L9.14888091,4.17879395 L8.05299133,4.17940638 C8.04762919,4.17952467 8.04225254,4.17958412 8.036862,4.17958412 L8.023,4.178 L2.56355414,4.1794027 C2.55813702,4.17952343 2.55270509,4.17958412 2.54725898,4.17958412 L2.534,4.178 Z M20.1278374,4.17879395 L16.0731418,4.17879395 L16.0731418,10.978707 L20.1278374,10.978707 L20.1278374,4.17879395 Z M19.9310019,-3.22833547e-14 C20.3272062,-3.22833547e-14 20.6483932,0.321187027 20.6483932,0.717391304 C20.6483932,1.08057856 20.3785069,1.38073048 20.0283476,1.42823367 L19.9310019,1.43478261 L16.2712665,1.43478261 C15.8750623,1.43478261 15.5538752,1.11359558 15.5538752,0.717391304 C15.5538752,0.35420405 15.8237616,0.0540521243 16.1739208,0.00654893704 L16.2712665,-3.22833547e-14 L19.9310019,-3.22833547e-14 Z" transform="translate(1 1)"/>
</svg>
