<svg xmlns="http://www.w3.org/2000/svg" width="24" height="24" viewBox="0 0 24 24">
  <path fill="#111" d="M16.8548387,0.554435484 C17.2028932,0.554435484 17.4905388,0.813076542 17.5360626,1.14864581 L17.5423387,1.24193548 L17.5423387,4.90860215 C17.5423387,4.97801706 17.5320512,5.0450292 17.5129178,5.10819712 L18.8064516,5.10819892 C20.2119384,5.10819892 21.3608146,6.20687919 21.4410845,7.5922439 L21.4455645,7.74731183 L21.4455645,16.2043011 C21.4455645,16.5523555 21.1869235,16.8400011 20.8513542,16.885525 L20.7580645,16.8918011 L17.5414355,16.8914355 L17.5423387,20.7580645 C17.5423387,21.1032425 17.287955,21.389006 16.9564324,21.4381103 L16.8548387,21.4455645 L5.14516129,21.4455645 C4.76546552,21.4455645 4.45766129,21.1377603 4.45766129,20.7580645 L4.45766129,20.7580645 L4.45743548,16.8914355 L1.24193548,16.8918011 C0.893881032,16.8918011 0.606235436,16.63316 0.560711549,16.2975908 L0.554435484,16.2043011 L0.554435484,7.74731183 C0.554435484,6.34182508 1.65311575,5.19294886 3.03848046,5.11267899 L3.19354839,5.10819892 L4.48710364,5.10826773 C4.47668103,5.07387159 4.46888135,5.03833537 4.46393735,5.00189183 L4.45766129,4.90860215 L4.45766129,1.24193548 C4.45766129,0.893881032 4.71630235,0.606235436 5.05187161,0.560711549 L5.14516129,0.554435484 L16.8548387,0.554435484 Z M16.16725,11.6875 L5.83183333,11.6875 L5.83143548,16.1904355 L5.83266129,16.2043011 L5.83143548,16.2164355 L5.83183333,20.0704167 L16.16725,20.0704167 L16.16725,11.6875 Z M18.8064516,6.48319892 L3.19354839,6.48319892 C2.53646577,6.48319892 1.99647672,6.98453606 1.93522224,7.62556932 L1.92943548,7.74731183 L1.92866667,15.5164167 L4.45743548,15.5164355 L4.45766129,11 C4.45766129,10.654822 4.71204496,10.3690586 5.04356758,10.3199543 L5.14516129,10.3125 L16.8548387,10.3125 C17.2345345,10.3125 17.5423387,10.6203042 17.5423387,11 L17.5423387,11 L17.5414355,15.5164355 L20.0704167,15.5164167 L20.0705645,7.74731183 C20.0705645,7.09022921 19.5692274,6.55024016 18.9281941,6.48898568 L18.8064516,6.48319892 Z M16.16725,1.92866667 L5.83183333,1.92866667 L5.83266129,4.90860215 C5.83266129,4.97785788 5.82242095,5.04472186 5.80337182,5.1077625 L16.1967811,5.10826773 C16.1863584,5.07387159 16.1785588,5.03833537 16.1736148,5.00189183 L16.1673387,4.90860215 L16.16725,1.92866667 Z" transform="translate(1 1)"/>
</svg>
