<svg xmlns="http://www.w3.org/2000/svg" width="24" height="24" viewBox="0 0 24 24">
  <path fill="#111" d="M20.9166667,20.1666667 C21.3308802,20.1666667 21.6666667,20.5024531 21.6666667,20.9166667 C21.6666667,21.2963624 21.3845128,21.6101576 21.0184372,21.6598201 L20.9166667,21.6666667 L0.75,21.6666667 C0.335786438,21.6666667 -7.10542736e-15,21.3308802 -7.10542736e-15,20.9166667 C-7.10542736e-15,20.5369709 0.282153882,20.2231757 0.648229443,20.1735133 L0.75,20.1666667 L20.9166667,20.1666667 Z M14.8863366,0.219669914 C15.1792298,-0.0732233047 15.6541035,-0.0732233047 15.9469968,0.219669914 L15.9469968,0.219669914 L19.6136634,3.88633658 C19.9065566,4.1792298 19.9065566,4.65410353 19.6136634,4.94699675 L19.6136634,4.94699675 L8.61366342,15.9469968 C8.53133227,16.0293279 8.43096298,16.0913595 8.32050416,16.1281791 L8.32050416,16.1281791 L2.82050416,17.9615125 C2.23418564,18.156952 1.67638135,17.5991477 1.87182086,17.0128292 L1.87182086,17.0128292 L3.70515419,11.5128292 C3.7419738,11.4023704 3.80400544,11.3020011 3.88633658,11.2196699 L3.88633658,11.2196699 Z M15.4163333,1.80933333 L5.07133333,12.1543333 L3.76833333,16.0633333 L7.67833333,14.7603333 L18.0223333,4.41633333 L15.4163333,1.80933333 Z" transform="translate(1 1)"/>
</svg>
