<?xml version="1.0" encoding="UTF-8"?>
<svg width="24px" height="24px" viewBox="0 0 24 24" version="1.1" xmlns="http://www.w3.org/2000/svg" xmlns:xlink="http://www.w3.org/1999/xlink">
    <title>uranus-icon/ln-letsencrypt@3x</title>
    <g id="uranus-icon/ln-letsencrypt" stroke="none" stroke-width="1" fill="none" fill-rule="evenodd">
        <g id="lock" transform="translate(2.500000, 1.000000)" fill="#212121">
            <path d="M16.1808774,9.36168093 L3.0744724,9.36168093 C1.65263056,9.36168093 0.5,10.5143115 0.5,11.9361533 L0.5,19.4255276 C0.5,20.8473694 1.65263056,22 3.0744724,22 L16.1808774,22 C17.6027192,22 18.7553498,20.8473694 18.7553498,19.4255276 L18.7553498,11.9361533 C18.7553498,10.5143115 17.6027192,9.36168093 16.1808774,9.36168093 Z M3.0744724,10.7659386 L16.1808774,10.7659386 C16.8271691,10.7659386 17.3510921,11.2898616 17.3510921,11.9361533 L17.3510921,19.4255276 C17.3510921,20.0718193 16.8271691,20.5957423 16.1808774,20.5957423 L3.0744724,20.5957423 C2.42818065,20.5957423 1.90425767,20.0718193 1.90425767,19.4255276 L1.90425767,11.9361533 C1.90425767,11.2898616 2.42818065,10.7659386 3.0744724,10.7659386 Z" id="Rectangle" fill-rule="nonzero"></path>
            <path d="M9.62767488,13.1063681 C8.20583304,13.1063681 7.05320248,14.2589986 7.05320248,15.6808405 C7.05320248,17.1026823 8.20583304,18.2553129 9.62767488,18.2553129 C11.0495167,18.2553129 12.2021473,17.1026823 12.2021473,15.6808405 C12.2021473,14.2589986 11.0495167,13.1063681 9.62767488,13.1063681 Z M9.62767488,14.5106257 C10.2739666,14.5106257 10.7978896,15.0345487 10.7978896,15.6808405 C10.7978896,16.3271322 10.2739666,16.8510552 9.62767488,16.8510552 C8.98138313,16.8510552 8.45746015,16.3271322 8.45746015,15.6808405 C8.45746015,15.0345487 8.98138313,14.5106257 9.62767488,14.5106257 Z" id="Oval" fill-rule="nonzero"></path>
            <path d="M9.7284899,4.5 C12.6067824,4.52950823 14.929651,6.83216548 15.0088445,9.67872361 L15.0106626,9.88295086 L15.01,10.5 L13.606,10.5 L13.6064397,9.875965 C13.6273913,7.7702815 11.9895582,6.03456674 9.91684558,5.91104027 L9.72129206,5.90422078 L9.62068902,5.90418603 C7.51500553,5.88323441 5.77929077,7.52106755 5.65576429,9.59378016 L5.64894481,9.78933368 L5.648,10.5 L4.244,10.5 L4.24468713,9.78213584 C4.27423225,6.90384334 6.57688951,4.58097471 9.42344764,4.50178122 L9.7284899,4.5 Z" id="Combined-Shape" fill-rule="nonzero"></path>
            <g id="Group">
                <rect id="Rectangle" x="8.75" y="0" width="1.5" height="3" rx="0.75"></rect>
                <rect id="Rectangle-Copy" transform="translate(14.649519, 2.674038) rotate(30.000000) translate(-14.649519, -2.674038) " x="13.8995191" y="1.17403811" width="1.5" height="3" rx="0.75"></rect>
                <rect id="Rectangle-Copy-2" transform="translate(17.393003, 6.612673) rotate(75.000000) translate(-17.393003, -6.612673) " x="16.643003" y="5.11267294" width="1.5" height="3" rx="0.75"></rect>
                <rect id="Rectangle-Copy" transform="translate(4.386487, 2.674038) scale(-1, 1) rotate(30.000000) translate(-4.386487, -2.674038) " x="3.63648699" y="1.17403811" width="1.5" height="3" rx="0.75"></rect>
                <rect id="Rectangle-Copy-2" transform="translate(1.643003, 6.612673) scale(-1, 1) rotate(75.000000) translate(-1.643003, -6.612673) " x="0.893003023" y="5.11267294" width="1.5" height="3" rx="0.75"></rect>
            </g>
        </g>
    </g>
</svg>