<svg xmlns="http://www.w3.org/2000/svg" width="24" height="24" viewBox="0 0 24 24">
  <path fill="#111" d="M7.74276057,16.2572394 C8.00034672,16.5148256 8.02376364,16.9179058 7.81301134,17.2019455 L7.74276057,17.2833216 L2.23859074,22.7874914 C1.95524598,23.0708362 1.49585334,23.0708362 1.21250857,22.7874914 C0.954922423,22.5299053 0.931505501,22.126825 1.14225781,21.8427854 L1.21250857,21.7614093 L6.7166784,16.2572394 C7.00002317,15.9738947 7.4594158,15.9738947 7.74276057,16.2572394 Z M15.3672222,1.14225781 L15.4485983,1.21250857 L22.7874914,8.55140168 C23.0708362,8.83474644 23.0708362,9.29413908 22.7874914,9.57748384 C22.5299053,9.83507 22.126825,9.85848692 21.8427854,9.64773461 L21.7614093,9.57748384 L20.938,8.754 L14.389,19.234 L16.1824876,21.0275199 C16.4658324,21.3108647 16.4658324,21.7702573 16.1824876,22.0536021 C15.9249015,22.3111883 15.5218212,22.3346052 15.2377816,22.1238529 L15.1564055,22.0536021 L1.94639789,8.84359453 C1.66305312,8.56024977 1.66305312,8.10085713 1.94639789,7.81751237 C2.20398404,7.55992621 2.60706429,7.53650929 2.89110392,7.7472616 L2.97248005,7.81751237 L4.765,9.61 L15.245,3.061 L14.4225162,2.23859074 C14.1391714,1.95524598 14.1391714,1.49585334 14.4225162,1.21250857 C14.6801023,0.954922423 15.0831826,0.931505501 15.3672222,1.14225781 Z M16.298,4.114 L5.819,10.664 L13.335,18.18 L19.885,7.701 L16.298,4.114 Z"/>
</svg>
