<svg xmlns="http://www.w3.org/2000/svg" width="24" height="24" viewBox="0 0 24 24">
  <path fill="#111" d="M2.0625,16.5 C1.71444555,16.5 1.42679995,16.2413589 1.38127606,15.9057897 L1.375,15.8125 L1.375,11 L0.6875,11 C0.342322031,11 0.0565585512,10.7456163 0.00745426524,10.4140937 L0,10.3125 L0,0.6875 C0,0.307804234 0.307804234,0 0.6875,0 L0.6875,0 L21.3125,0 C21.6921958,0 22,0.307804234 22,0.6875 L22,0.6875 L22,10.3125 C22,10.6921958 21.6921958,11 21.3125,11 L21.3125,11 L20.625,11 L20.625,15.8125 C20.625,16.1605545 20.3663589,16.4482 20.0307897,16.4937239 L19.9375,16.5 L2.0625,16.5 Z M6.875,11 L2.75,11 L2.75,15.125 L6.875,15.125 L6.875,11 Z M13.75,11 L8.25,11 L8.25,15.125 L13.75,15.125 L13.75,11 Z M19.25,11 L15.125,11 L15.125,15.125 L19.25,15.125 L19.25,11 Z M20.625,1.375 L1.375,1.375 L1.375,9.625 L20.625,9.625 L20.625,1.375 Z" transform="translate(1 4)"/>
</svg>
