<svg xmlns="http://www.w3.org/2000/svg" width="24" height="24" viewBox="0 0 24 24">
  <path fill="#111" d="M14.2521349,0.674052784 C19.2491192,2.54917005 22.0576781,7.86170303 20.7932968,13.0469954 C19.5289154,18.2322878 14.5901791,21.6557208 9.29093034,21.0202052 C3.9916816,20.3846897 0.00246294973,15.8905664 1.36187358e-14,10.5533469 C1.36187358e-14,10.1736512 0.307487028,9.86570496 0.687182753,9.86552975 C1.06687848,9.86535454 1.37482472,10.1730167 1.37499993,10.5527124 C1.37714171,15.1941089 4.84627874,19.1023253 9.45465488,19.6549876 C14.063031,20.2076498 18.3578954,17.2305359 19.4574371,12.7212595 C20.5569788,8.21198299 18.1145767,3.59205451 13.7690582,1.96139966 C9.97877756,0.539097672 5.78282636,1.78205694 3.35347407,4.85646903 L6.71340386,3.92232098 C7.04868619,3.82889902 7.39519875,4.00084155 7.52912288,4.31187769 L7.5602087,4.40005946 C7.65363066,4.73534179 7.48168813,5.08185435 7.17065199,5.21577848 L7.08247022,5.2468643 L1.9807517,6.66839023 L1.9697707,6.67135808 C1.95265272,6.67582969 1.9353569,6.67964606 1.91792363,6.68279441 L1.9807517,6.66839023 C1.94535868,6.67825202 1.91006852,6.68517983 1.87508951,6.68935343 C1.86220175,6.69066434 1.84847764,6.69186266 1.83470919,6.69264765 C1.81458309,6.69415631 1.79502365,6.6944556 1.77562851,6.6939241 C1.76521667,6.69315814 1.75517495,6.6926381 1.74513126,6.69189467 C1.72211784,6.69073677 1.69901444,6.68784471 1.67625198,6.68380731 C1.66973572,6.68209948 1.66337671,6.68087613 1.65702535,6.67955988 C1.63311421,6.67514769 1.60964227,6.66893031 1.58665487,6.66151931 C1.57759101,6.6581085 1.56824965,6.65488912 1.55894663,6.65145538 C1.53725242,6.6438769 1.5162516,6.63485999 1.49578859,6.62484989 C1.4905755,6.62197536 1.48501384,6.61918208 1.47947327,6.61630599 L1.47003552,6.61157542 C1.44723875,6.59921346 1.4251796,6.58559355 1.40396143,6.5708049 L1.47947327,6.61630599 C1.44722473,6.59956594 1.41685911,6.5806275 1.38846463,6.55976942 C1.36766263,6.54431826 1.34784057,6.52790755 1.32897711,6.5104507 C1.3193893,6.50180634 1.31016922,6.49277303 1.30123797,6.483515 C1.28468951,6.46619422 1.26898509,6.44819198 1.25422971,6.42939823 C1.24411056,6.41624267 1.23683051,6.40623792 1.22983686,6.39606096 C1.18394749,6.33018587 1.14928963,6.25542058 1.12900736,6.17480436 C1.12699522,6.16401223 1.12457343,6.15339634 1.12240298,6.1427241 C1.11841114,6.12605715 1.11560914,6.10868083 1.11347922,6.09108888 C1.11184896,6.07447735 1.11039082,6.05806752 1.10952429,6.04159624 C1.10882462,6.03159247 1.10855446,6.02107669 1.10852594,6.0105003 L1.10874818,5.99020128 C1.10905543,5.9764886 1.10977536,5.96275666 1.11091375,5.94902368 L1.11409103,5.92033783 L1.76749103,0.724508197 C1.81091847,0.379173636 2.10342848,0.126047022 2.44205552,0.122748525 L2.53539926,0.128161443 C2.88073382,0.171588888 3.13386043,0.464098892 3.13715893,0.802725937 L3.13174601,0.896069674 L2.82093416,3.36640324 C5.66874216,0.301441146 10.1654922,-0.85945896 14.2521349,0.674052784 Z M10.5467593,5.38404819 C10.8948137,5.38404819 11.1824593,5.64268925 11.2279832,5.97825852 L11.2342593,6.07154819 L11.2342593,10.2679463 L14.6180804,13.6520789 C14.862158,13.8961566 14.8843469,14.2780983 14.684647,14.5472422 L14.6180804,14.6243508 C14.3740027,14.8684285 13.992061,14.8906173 13.7229171,14.6909174 L13.6458085,14.6243508 L10.0606233,11.0391656 C9.95747834,10.9360206 9.89049233,10.8034759 9.86782373,10.6612276 L9.85925926,10.5530297 L9.85925926,6.07154819 C9.85925926,5.69185243 10.1670635,5.38404819 10.5467593,5.38404819 Z" transform="translate(1 1)"/>
</svg>
