<svg xmlns="http://www.w3.org/2000/svg" width="24" height="24" viewBox="0 0 24 24">
  <path fill="#111" d="M17.1875,0 C19.5922398,0 21.5416667,1.94942682 21.5416667,4.35416667 L21.5416667,4.35416667 L21.5416667,17.1875 C21.5416667,19.5922398 19.5922398,21.5416667 17.1875,21.5416667 L17.1875,21.5416667 L4.35416667,21.5416667 C1.94942682,21.5416667 0,19.5922398 0,17.1875 L0,17.1875 L0,4.35416667 C0,1.94942682 1.94942682,0 4.35416667,0 L4.35416667,0 Z M17.1875,1.375 L4.35416667,1.375 C2.70881835,1.375 1.375,2.70881835 1.375,4.35416667 L1.375,4.35416667 L1.375,17.1875 C1.375,18.8328483 2.70881835,20.1666667 4.35416667,20.1666667 L4.35416667,20.1666667 L17.1875,20.1666667 C18.8328483,20.1666667 20.1666667,18.8328483 20.1666667,17.1875 L20.1666667,17.1875 L20.1666667,4.35416667 C20.1666667,2.70881835 18.8328483,1.375 17.1875,1.375 L17.1875,1.375 Z M13.3699593,6.03091464 C13.6812687,6.18656932 13.822879,6.54654394 13.7135256,6.86704511 L13.6774187,6.95329268 L9.09408536,16.1199593 C8.92428025,16.4595696 8.51131754,16.5972238 8.17170732,16.4274187 C7.86039795,16.271764 7.71878771,15.9117894 7.82814104,15.5912882 L7.86424797,15.5050407 L12.4475813,6.33837399 C12.6173864,5.99876377 13.0303491,5.86110953 13.3699593,6.03091464 Z" transform="translate(1 1)"/>
</svg>
