<svg xmlns="http://www.w3.org/2000/svg" width="24" height="24" viewBox="0 0 24 24">
  <path fill="#111" d="M10.4852776,0.371175281 C7.83465326,2.8722885 4.44859989,4.45265196 0.829139794,4.87795814 C0.484014891,4.91851219 0.216814599,5.18913069 0.172985299,5.52518219 L0.166793739,5.64451859 L0.177745375,6.00976722 C0.187264724,6.21038768 0.203159708,6.43746521 0.226826859,6.68858254 L0.284937837,7.22215408 C0.308038317,7.41021814 0.335006881,7.60825035 0.366257315,7.81553448 C0.589542323,9.29658393 0.975734055,10.8265652 1.56411137,12.3375182 C3.23037741,16.6164894 6.18522131,19.9651966 10.721457,21.7796909 C10.9002653,21.8512142 11.0997347,21.8512142 11.278543,21.7796909 C15.8147787,19.9651966 18.7696226,16.6164894 20.4358886,12.3375182 C21.0242659,10.8265652 21.4104577,9.29658393 21.6337427,7.81553448 C21.6649931,7.60825035 21.6919617,7.41021814 21.7150619,7.22218182 L21.7731713,6.68880442 C21.7968371,6.4378535 21.8127296,6.2110672 21.8222448,6.01095637 L21.8333336,5.62779599 C21.8358462,5.24555503 21.5504976,4.9225676 21.1708602,4.87795814 C17.5514001,4.45265196 14.1653467,2.8722885 11.5147224,0.371175281 C11.2257441,0.0984971286 10.7742559,0.0984971286 10.4852776,0.371175281 Z M11,1.927 L11.1393782,2.05053826 C13.695573,4.24196083 16.8032803,5.69241257 20.1247182,6.24424146 L20.302,6.271 L20.2979671,6.34118641 C20.269599,6.69334416 20.2224986,7.1143811 20.1505042,7.59191945 C19.9429031,8.96893779 19.5835644,10.392535 19.0381269,11.7932185 L18.8917652,12.1577998 C17.3943272,15.7773267 14.8795543,18.6037057 11.1032967,20.2285152 L11,20.271 L11.278543,20.3869758 C7.16054001,18.7397746 4.48708579,15.7099647 2.96187308,11.7932185 C2.41643558,10.392535 2.05709691,8.96893779 1.84949577,7.59191945 L1.80923712,7.31227216 C1.77186709,7.03959616 1.74301496,6.78812066 1.72134907,6.56042566 L1.697,6.271 L1.87528183,6.24424146 C5.1967197,5.69241257 8.30442697,4.24196083 10.8606218,2.05053826 L11,1.927 Z" transform="translate(1 1)"/>
</svg>
