<svg xmlns="http://www.w3.org/2000/svg" width="24" height="24" viewBox="0 0 24 24">
  <path fill="#111" d="M10.8997195,-3.47548077e-14 C16.9194683,-3.47548077e-14 21.799439,4.87997064 21.799439,10.8997195 C21.799439,16.9194683 16.9194683,21.799439 10.8997195,21.799439 C4.87997064,21.799439 -6.95096155e-15,16.9194683 -6.95096155e-15,10.8997195 C-6.95096155e-15,4.87997064 4.87997064,-3.47548077e-14 10.8997195,-3.47548077e-14 Z M10.8997195,1.43478261 C5.67237919,1.43478261 1.43478261,5.67237919 1.43478261,10.8997195 C1.43478261,16.1270598 5.67237919,20.3646564 10.8997195,20.3646564 C16.1270598,20.3646564 20.3646564,16.1270598 20.3646564,10.8997195 C20.3646564,5.67237919 16.1270598,1.43478261 10.8997195,1.43478261 Z M15.3030766,5.52085351 C15.9337861,5.17045937 16.6289796,5.8656529 16.2785855,6.49636236 L16.2785855,6.49636236 L12.8844761,12.6057593 C12.8194166,12.7228663 12.7228663,12.8194166 12.6057593,12.8844761 L12.6057593,12.8844761 L6.49636236,16.2785855 C5.8656529,16.6289796 5.17045937,15.9337861 5.52085351,15.3030766 L5.52085351,15.3030766 L8.91496291,9.19367972 C8.98002235,9.07657272 9.07657272,8.98002235 9.19367972,8.91496291 L9.19367972,8.91496291 Z M13.8056325,7.99284993 L10.0694586,10.0694586 L7.99284993,13.8056325 L11.7290238,11.7290238 L13.8056325,7.99284993 Z" transform="translate(1 1)"/>
</svg>
