<svg xmlns="http://www.w3.org/2000/svg" width="24" height="24" viewBox="0 0 24 24">
  <path fill="#111" d="M18.8579137,2.67887304 L18.8641861,2.77845808 L18.864,6.422 L18.9724975,6.42533577 C21.1485648,6.53920318 22.8914902,8.28859308 22.9951238,10.4673557 L23,10.6728359 C23,13.0219215 21.0956898,14.9262317 18.7466041,14.9262317 L18.864,14.923 L18.8641861,18.3626266 C18.8641861,18.8118865 18.4876035,19.1600624 18.0522989,19.1403569 L17.9509463,19.1291577 L12.669,18.197 L12.5385896,19.6933373 C12.462998,20.5573534 11.7394127,21.2089906 10.8885667,21.2113021 L10.7372023,21.2048807 L6.62534679,20.84514 C5.76133072,20.7695484 5.10969354,20.0459631 5.10738198,19.1951171 L5.1138034,19.0437527 L5.29367377,16.9878249 L5.307,16.898 L4.80517876,16.8103166 C2.98529444,16.6963993 1.09930821,14.0636185 1.00378747,10.6132954 L1,10.3392339 C1,6.84706045 2.83932253,4.12765766 4.60581762,3.88799802 L4.74509161,3.87426045 L17.9771596,2.00777245 C18.4121516,1.94641339 18.8041354,2.25560683 18.8579137,2.67887304 Z M6.84,17.169 L6.66451027,19.179422 C6.66067769,19.2232286 6.68402355,19.2631446 6.72057722,19.2825205 L6.76101606,19.2944331 L10.8728716,19.6541738 C10.9166782,19.6580064 10.9565942,19.6346606 10.9759701,19.5981069 L10.9878827,19.5576681 L11.13,17.926 L6.84,17.169 Z M17.3072593,3.67300164 L4.90242708,5.42174089 C3.96769278,5.48025141 2.55663032,7.49778585 2.55663032,10.3392339 C2.55663032,13.0890224 3.87812482,15.0671956 4.88876057,15.2542894 L4.9887275,15.2669907 L17.3072593,17.4346514 L17.3072593,3.67300164 Z M18.864,8.124 L18.864,13.22 L18.9213323,13.2189858 C20.1939559,13.1329359 21.2107118,12.1139327 21.293232,10.8403441 L21.2986417,10.6728359 C21.2986417,9.26338445 20.1560555,8.12079834 18.7466041,8.12079834 L18.864,8.124 Z"/>
</svg>
