<svg xmlns="http://www.w3.org/2000/svg" width="24" height="24" viewBox="0 0 24 24">
  <path fill="#111" d="M3.2239293,14.2314433 C3.403015,14.5298897 3.32924132,14.9096167 3.06492424,15.1213138 L2.98816036,15.174696 L2.47683333,15.4806667 L10.1035,20.0566667 L17.7301667,15.4806667 L17.2206175,15.1756079 C16.9221633,14.9965353 16.8085789,14.62676 16.9421915,14.3155899 L16.9848069,14.2323656 C17.1638795,13.9339114 17.5336548,13.8203271 17.8448249,13.9539396 L17.9280492,13.9965551 L19.4203825,14.8919551 C19.8357584,15.1411806 19.8634501,15.7196607 19.5034577,16.0127868 L19.4203825,16.0710079 L10.4574195,21.4487856 C10.2708031,21.5607555 10.0443118,21.5767512 9.84630252,21.4967727 L9.74998787,21.4487856 L0.787024909,16.0710079 C0.371659741,15.8217888 0.343956336,15.2433279 0.703928249,14.9501939 L0.786998899,14.8919707 L2.28067668,13.9956744 C2.60625449,13.8003082 3.02856307,13.9058655 3.2239293,14.2314433 Z M3.2239293,9.74996186 C3.403015,10.0484082 3.32924132,10.4281352 3.06492424,10.6398323 L2.98816036,10.6932145 L2.47683333,10.9990833 L10.1035,15.5750833 L17.72925,11 L17.3685064,10.7828597 C17.0700522,10.6037872 16.9564678,10.2340119 17.0900804,9.92284175 L17.1326958,9.8396175 C17.3117684,9.54116327 17.6815437,9.42757893 17.9927138,9.56119148 L18.0759381,9.60380695 L19.4203825,10.4104736 C19.8357584,10.6596991 19.8634501,11.2381792 19.5034577,11.5313053 L19.4203825,11.5895264 L10.4574195,16.9673042 C10.2708031,17.079274 10.0443118,17.0952697 9.84630252,17.0152912 L9.74998787,16.9673042 L0.787024909,11.5895264 C0.371659741,11.3403073 0.343956336,10.7618464 0.703928249,10.4687124 L0.786998899,10.4104892 L2.28067668,9.51419292 C2.60625449,9.3188267 3.02856307,9.42438405 3.2239293,9.74996186 Z M9.74998787,0.551214354 C9.96770701,0.42058287 10.2397004,0.42058287 10.4574195,0.551214354 L10.4574195,0.551214354 L19.4203825,5.92899213 C19.8654281,6.19601947 19.8654281,6.84101757 19.4203825,7.1080449 L19.4203825,7.1080449 L10.4574195,12.4858227 C10.2397004,12.6164542 9.96770701,12.6164542 9.74998787,12.4858227 L9.74998787,12.4858227 L0.787024909,7.1080449 C0.341979351,6.84101757 0.341979351,6.19601947 0.787024909,5.92899213 L0.787024909,5.92899213 Z M10.1035,1.94241667 L2.47683333,6.51841667 L10.1035,11.0935 L17.7301667,6.51841667 L10.1035,1.94241667 Z" transform="translate(2 1)"/>
</svg>
