<svg xmlns="http://www.w3.org/2000/svg" width="24" height="24" viewBox="0 0 24 24">
  <path fill="#111" d="M5.90721846,3.36757819 C6.11106388,3.70732055 6.00089764,4.14798552 5.66115527,4.35183094 C3.04551669,5.92121408 1.43478261,8.65946203 1.43478261,11.6965974 C1.43478261,16.3325292 5.23079785,20.1285444 9.86672968,20.1285444 C14.5026615,20.1285444 18.2986767,16.3325292 18.2986767,11.6965974 C18.2986767,8.62864645 16.6590943,5.81793375 14.0877159,4.36081932 C13.7430094,4.16548563 13.6219188,3.72769655 13.8172525,3.38299004 C14.0125862,3.03828352 14.4503753,2.91719293 14.7950818,3.11252662 C17.8158094,4.82427224 19.7334594,8.11167221 19.7334594,11.6965974 C19.7334594,17.1249377 15.2950701,21.563327 9.86672968,21.563327 C4.4383893,21.563327 5.20549787e-14,17.1249377 5.20549787e-14,11.6965974 C5.20549787e-14,8.14620905 1.88264966,4.94570463 4.92296571,3.121515 C5.26270808,2.91766958 5.70337304,3.02783582 5.90721846,3.36757819 Z M9.86672968,-6.28289691e-14 C10.2299169,-6.28289691e-14 10.5300689,0.269886322 10.577572,0.620045554 L10.584121,0.717391304 L10.584121,7.12192817 C10.584121,7.51813244 10.262934,7.83931947 9.86672968,7.83931947 C9.50354242,7.83931947 9.2033905,7.56943315 9.15588731,7.21927392 L9.14933837,7.12192817 L9.14933837,0.717391304 C9.14933837,0.321187027 9.4705254,-6.28289691e-14 9.86672968,-6.28289691e-14 Z" transform="translate(2 1)"/>
</svg>
