<svg xmlns="http://www.w3.org/2000/svg" width="24" height="24" viewBox="0 0 24 24">
  <path fill="#111" d="M4.72083333,16.1333333 C6.24950683,16.1333333 7.51997016,16.6373648 8.51988478,17.4312114 C9.10639782,17.8963342 9.44166667,18.6081744 9.44166667,19.3627296 L9.44166667,19.3627296 L9.44166667,20.4060185 C9.44166667,20.7857143 9.13386243,21.0935185 8.75416667,21.0935185 L8.75416667,21.0935185 L0.6875,21.0935185 C0.307804234,21.0935185 -6.75015599e-14,20.7857143 -6.75015599e-14,20.4060185 L-6.75015599e-14,20.4060185 L-6.75015599e-14,19.3627296 C-6.75015599e-14,18.6081744 0.335268843,17.8963342 0.921489861,17.4314431 C1.92169651,16.6373648 3.19215984,16.1333333 4.72083333,16.1333333 Z M16.3726852,16.1333333 C17.9013587,16.1333333 19.171822,16.6373648 20.1717366,17.4312114 C20.7582497,17.8963342 21.0935185,18.6081744 21.0935185,19.3627296 L21.0935185,19.3627296 L21.0935185,20.4060185 C21.0935185,20.7857143 20.7857143,21.0935185 20.4060185,21.0935185 L20.4060185,21.0935185 L12.3393519,21.0935185 C11.9596561,21.0935185 11.6518519,20.7857143 11.6518519,20.4060185 L11.6518519,20.4060185 L11.6518519,19.3627296 C11.6518519,18.6081744 11.9871207,17.8963342 12.5733417,17.4314431 C13.5735484,16.6373648 14.8440117,16.1333333 16.3726852,16.1333333 Z M4.72083333,17.5083333 C3.52529216,17.5083333 2.54730159,17.896332 1.77615145,18.5085589 C1.52257483,18.709653 1.375,19.0229827 1.375,19.3627296 L1.375,19.3627296 L1.37459259,19.7180093 L8.06625926,19.7180093 L8.06666667,19.3627296 C8.06666667,19.065451 7.95367969,18.7883982 7.75536079,18.5889074 L7.75536079,18.5889074 L7.66522319,18.5083333 C6.89436507,17.896332 5.91637451,17.5083333 4.72083333,17.5083333 Z M16.3726852,17.5083333 C15.177144,17.5083333 14.1991534,17.896332 13.4280033,18.5085589 C13.1744267,18.709653 13.0268519,19.0229827 13.0268519,19.3627296 L13.0268519,19.3627296 L13.0263426,19.7180093 L19.7180093,19.7180093 L19.7185185,19.3627296 C19.7185185,19.065451 19.6055315,18.7883982 19.4072126,18.5889074 L19.4072126,18.5889074 L19.317075,18.5083333 C18.5462169,17.896332 17.5682264,17.5083333 16.3726852,17.5083333 Z M4.72083333,9.41111111 C6.33805604,9.41111111 7.64907407,10.7221291 7.64907407,12.3393519 C7.64907407,13.9565746 6.33805604,15.2675926 4.72083333,15.2675926 C3.10361063,15.2675926 1.79259259,13.9565746 1.79259259,12.3393519 C1.79259259,10.7221291 3.10361063,9.41111111 4.72083333,9.41111111 Z M16.3726852,9.41111111 C17.9899079,9.41111111 19.3009259,10.7221291 19.3009259,12.3393519 C19.3009259,13.9565746 17.9899079,15.2675926 16.3726852,15.2675926 C14.7554625,15.2675926 13.4444444,13.9565746 13.4444444,12.3393519 C13.4444444,10.7221291 14.7554625,9.41111111 16.3726852,9.41111111 Z M4.72083333,10.7861111 C3.86300216,10.7861111 3.16759259,11.4815207 3.16759259,12.3393519 C3.16759259,13.197183 3.86300216,13.8925926 4.72083333,13.8925926 C5.57866451,13.8925926 6.27407407,13.197183 6.27407407,12.3393519 C6.27407407,11.4815207 5.57866451,10.7861111 4.72083333,10.7861111 Z M16.3726852,10.7861111 C15.514854,10.7861111 14.8194444,11.4815207 14.8194444,12.3393519 C14.8194444,13.197183 15.514854,13.8925926 16.3726852,13.8925926 C17.2305164,13.8925926 17.9259259,13.197183 17.9259259,12.3393519 C17.9259259,11.4815207 17.2305164,10.7861111 16.3726852,10.7861111 Z M20.4060185,1.29674049e-13 C20.7857143,1.29674049e-13 21.0935185,0.307804234 21.0935185,0.6875 L21.0935185,0.6875 L21.0935185,6.96157407 C21.0935185,7.34126984 20.7857143,7.64907407 20.4060185,7.64907407 L20.4060185,7.64907407 L13.9191759,7.64825926 L10.0725471,10.6412908 C9.64752137,10.9718664 9.03965985,10.7062446 8.96961741,10.1968861 L8.96961741,10.1968861 L8.96296296,10.0986111 L8.96296296,0.6875 C8.96296296,0.307804234 9.2707672,1.29674049e-13 9.65046296,1.29674049e-13 L9.65046296,1.29674049e-13 Z M19.7180093,1.37459259 L10.3377593,1.37459259 L10.3377593,8.69234259 L13.2617121,6.41889442 C13.3582552,6.34380536 13.4726178,6.29617377 13.5927775,6.2801247 L13.5927775,6.2801247 L13.6837963,6.27407407 L19.7180093,6.27325926 L19.7180093,1.37459259 Z" transform="translate(1 1)"/>
</svg>
