<svg xmlns="http://www.w3.org/2000/svg" width="24" height="24" viewBox="0 0 24 24">
  <path fill="#111" d="M19.0208333,1.25055521e-12 C20.4130511,1.25055521e-12 21.5416667,1.12861553 21.5416667,2.52083333 L21.5416667,2.52083333 L21.5416667,19.0208333 C21.5416667,20.4130511 20.4130511,21.5416667 19.0208333,21.5416667 L19.0208333,21.5416667 L2.52083333,21.5416667 C1.12861553,21.5416667 -5.68434189e-13,20.4130511 -5.68434189e-13,19.0208333 L-5.68434189e-13,19.0208333 L-5.68434189e-13,2.52083333 C-5.68434189e-13,1.12861553 1.12861553,1.25055521e-12 2.52083333,1.25055521e-12 L2.52083333,1.25055521e-12 Z M20.166,15.125 L1.374,15.125 L1.375,19.0208333 C1.375,19.6114712 1.82188615,20.0977332 2.39598217,20.1599431 L2.52083333,20.1666667 L19.0208333,20.1666667 C19.6536596,20.1666667 20.1666667,19.6536596 20.1666667,19.0208333 L20.1666667,19.0208333 L20.166,15.125 Z M20.166,8.25 L1.374,8.25 L1.374,13.75 L20.166,13.75 L20.166,8.25 Z M19.0208333,1.375 L2.52083333,1.375 C1.88800706,1.375 1.375,1.88800706 1.375,2.52083333 L1.375,2.52083333 L1.374,6.875 L20.166,6.875 L20.1666667,2.52083333 C20.1666667,1.93019548 19.7197805,1.44393347 19.1456845,1.38172359 L19.0208333,1.375 Z M17.25,3.3 C17.6642136,3.3 18,3.63578644 18,4.05 C18,4.46421356 17.6642136,4.8 17.25,4.8 L14.75,4.8 C14.3357864,4.8 14,4.46421356 14,4.05 C14,3.63578644 14.3357864,3.3 14.75,3.3 L17.25,3.3 Z" transform="translate(1 1)"/>
</svg>
