<svg xmlns="http://www.w3.org/2000/svg" width="24" height="24" viewBox="0 0 24 24">
  <path fill="#111" d="M11,19.0806159 C11.3480545,19.0806159 11.6357,19.339257 11.6812239,19.6748263 L11.6875,19.7681159 L11.6875,20.6449275 C11.6875,21.0246233 11.3796958,21.3324275 11,21.3324275 C10.6519455,21.3324275 10.3643,21.0737865 10.3187761,20.7382172 L10.3125,20.6449275 L10.3125,19.7681159 C10.3125,19.3884202 10.6203042,19.0806159 11,19.0806159 Z M17.6343897,16.6726598 L17.7114982,16.7392264 L18.3252663,17.3529945 C18.5937518,17.62148 18.5937518,18.0567809 18.3252663,18.3252663 C18.0811887,18.569344 17.699247,18.5915329 17.4301031,18.391833 L17.3529945,18.3252663 L16.7392264,17.7114982 C16.470741,17.4430128 16.470741,17.0077119 16.7392264,16.7392264 C16.9833041,16.4951487 17.3652458,16.4729598 17.6343897,16.6726598 Z M5.26077359,16.7392264 C5.50485128,16.9833041 5.52704016,17.3652458 5.32734023,17.6343897 L5.26077359,17.7114982 L4.64700548,18.3252663 C4.37852003,18.5937518 3.9432191,18.5937518 3.67473365,18.3252663 C3.43065597,18.0811887 3.40846709,17.699247 3.60816701,17.4301031 L3.67473365,17.3529945 L4.28850177,16.7392264 C4.55698722,16.470741 4.99228814,16.470741 5.26077359,16.7392264 Z M11,5.05163043 C14.2851938,5.05163043 16.9483696,7.7148062 16.9483696,11 C16.9483696,14.2851938 14.2851938,16.9483696 11,16.9483696 C7.7148062,16.9483696 5.05163043,14.2851938 5.05163043,11 C5.05163043,7.7148062 7.7148062,5.05163043 11,5.05163043 Z M11,6.42663043 C8.47419773,6.42663043 6.42663043,8.47419773 6.42663043,11 C6.42663043,13.5258023 8.47419773,15.5733696 11,15.5733696 C13.5258023,15.5733696 15.5733696,13.5258023 15.5733696,11 C15.5733696,8.47419773 13.5258023,6.42663043 11,6.42663043 Z M2.23188406,10.3125 C2.61157982,10.3125 2.91938406,10.6203042 2.91938406,11 C2.91938406,11.3480545 2.660743,11.6357 2.32517374,11.6812239 L2.23188406,11.6875 L1.35507246,11.6875 C0.975376698,11.6875 0.667572464,11.3796958 0.667572464,11 C0.667572464,10.6519455 0.926213522,10.3643 1.26178279,10.3187761 L1.35507246,10.3125 L2.23188406,10.3125 Z M20.6449275,10.3125 C21.0246233,10.3125 21.3324275,10.6203042 21.3324275,11 C21.3324275,11.3480545 21.0737865,11.6357 20.7382172,11.6812239 L20.6449275,11.6875 L19.7681159,11.6875 C19.3884202,11.6875 19.0806159,11.3796958 19.0806159,11 C19.0806159,10.6519455 19.339257,10.3643 19.6748263,10.3187761 L19.7681159,10.3125 L20.6449275,10.3125 Z M4.56989691,3.60816701 L4.64700548,3.67473365 L5.26077359,4.28850177 C5.52925904,4.55698722 5.52925904,4.99228814 5.26077359,5.26077359 C5.01669591,5.50485128 4.6347542,5.52704016 4.36561033,5.32734023 L4.28850177,5.26077359 L3.67473365,4.64700548 C3.4062482,4.37852003 3.4062482,3.9432191 3.67473365,3.67473365 C3.91881134,3.43065597 4.30075304,3.40846709 4.56989691,3.60816701 Z M18.3252663,3.67473365 C18.569344,3.91881134 18.5915329,4.30075304 18.391833,4.56989691 L18.3252663,4.64700548 L17.7114982,5.26077359 C17.4430128,5.52925904 17.0077119,5.52925904 16.7392264,5.26077359 C16.4951487,5.01669591 16.4729598,4.6347542 16.6726598,4.36561033 L16.7392264,4.28850177 L17.3529945,3.67473365 C17.62148,3.4062482 18.0567809,3.4062482 18.3252663,3.67473365 Z M11,0.667572464 C11.3480545,0.667572464 11.6357,0.926213522 11.6812239,1.26178279 L11.6875,1.35507246 L11.6875,2.23188406 C11.6875,2.61157982 11.3796958,2.91938406 11,2.91938406 C10.6519455,2.91938406 10.3643,2.660743 10.3187761,2.32517374 L10.3125,2.23188406 L10.3125,1.35507246 C10.3125,0.975376698 10.6203042,0.667572464 11,0.667572464 Z" transform="translate(1 1)"/>
</svg>
