<svg xmlns="http://www.w3.org/2000/svg" width="24" height="24" viewBox="0 0 24 24">
  <path fill="#050607" fill-rule="evenodd" d="M1.635,-3.73034936e-14 C2.53798557,-3.74693694e-14 3.27,0.732014434 3.27,1.635 L3.27,15.8195455 C3.27,16.722531 2.53798557,17.4545455 1.635,17.4545455 C0.732014434,17.4545455 1.53013379e-12,16.722531 1.52922119e-12,15.8195455 L1.52922119e-12,1.635 C1.52911061e-12,0.732014434 0.732014434,-3.75817071e-14 1.635,-3.73034936e-14 Z M10.905,-3.73034936e-14 C11.8079856,-3.74693694e-14 12.54,0.732014434 12.54,1.635 L12.54,15.8195455 C12.54,16.722531 11.8079856,17.4545455 10.905,17.4545455 C10.0020144,17.4545455 9.27,16.722531 9.27,15.8195455 L9.27,1.635 C9.27,0.732014434 10.0020144,-3.75817071e-14 10.905,-3.73034936e-14 Z M20.175,-3.73034936e-14 C21.0779856,-3.74693694e-14 21.81,0.732014434 21.81,1.635 L21.81,15.8195455 C21.81,16.722531 21.0779856,17.4545455 20.175,17.4545455 C19.2720144,17.4545455 18.54,16.722531 18.54,15.8195455 L18.54,1.635 C18.54,0.732014434 19.2720144,-3.75817071e-14 20.175,-3.73034936e-14 Z" transform="translate(1 3)"/>
</svg>
