<svg xmlns="http://www.w3.org/2000/svg" width="24" height="24" viewBox="0 0 24 24">
  <path fill="#111" d="M7.33415618,6.48902015 L0.615023835,7.46557129 L0.514914488,7.48708565 C0.00123495613,7.63507735 -0.183315712,8.29861743 0.217443318,8.68923726 L5.07867792,13.4285854 L3.93187018,20.1213737 L3.92160419,20.2176578 C3.89941498,20.7548324 4.47567937,21.1389566 4.9727436,20.8776571 L10.9832866,17.7166723 L16.9938296,20.8776571 L17.0822311,20.9171691 C17.5862681,21.1042401 18.1296434,20.6748505 18.034703,20.1213737 L16.8869388,13.4285854 L21.7491299,8.68923726 L21.8174757,8.61299025 C22.1460717,8.19133535 21.9053693,7.54603948 21.3515494,7.46557129 L14.6314605,6.48902015 L11.6266069,0.399917926 C11.3634651,-0.133305975 10.6031081,-0.133305975 10.3399664,0.399917926 L7.33415618,6.48902015 Z M10.9832866,2.3377158 L13.5118858,7.46236415 L13.5624472,7.54899459 C13.6747418,7.71374083 13.8517639,7.82572586 14.0520546,7.85482744 L19.7067649,8.67562884 L15.6151103,12.6644807 L15.5483436,12.7393384 C15.4263606,12.8970479 15.3745598,13.1000136 15.4087779,13.2994959 L16.3742431,18.9304984 L11.3170957,16.2725274 L11.2252792,16.2321713 C11.0376143,16.164911 10.8286043,16.1783631 10.6494776,16.2725274 L5.59137357,18.9304984 L6.55779531,13.2994959 L6.56780943,13.1996901 C6.57379446,13.0004005 6.49640006,12.8057509 6.35146289,12.6644807 L2.25885183,8.67562884 L7.91451864,7.85482744 C8.14819116,7.8208756 8.35019249,7.67411017 8.45468746,7.46236415 L10.9832866,2.3377158 Z" transform="translate(1 1)"/>
</svg>
