<svg xmlns="http://www.w3.org/2000/svg" width="24" height="24" viewBox="0 0 24 24">
  <path fill="#111" d="M11.4883721,1.01744186 L11.6954737,1.02674706 C12.8683666,1.13255529 13.7732558,2.1176233 13.7732558,3.30232558 L13.7732558,3.30232558 L13.773,8.315 L18.8558668,9.3321065 C20.3052447,9.62157816 21.268763,10.9834523 21.0815503,12.4299724 L21.0815503,12.4299724 L21.0548042,12.597198 L19.3879205,21.3496166 C19.3205496,21.7033656 19.0112699,21.9593023 18.6511628,21.9593023 L18.6511628,21.9593023 L9.44186047,21.9593023 C9.0276469,21.9593023 8.69186047,21.6235159 8.69186047,21.2093023 C8.69186047,20.5943522 8.40610174,20.0769956 7.57601062,19.0342351 L7.57601062,19.0342351 L7.38986353,18.8003143 L7.04876601,18.3577436 C6.429024,17.519435 6.13372093,16.8720434 6.13372093,16.0930233 L6.13372093,16.0930233 L6.13372093,12 C6.13372093,11.0204376 6.92741434,10.2267442 7.90697674,10.2267442 L7.90697674,10.2267442 L9.203,10.226 L9.20348837,3.30232558 C9.20348837,2.09292712 10.1429251,1.10309882 11.3319264,1.02271278 L11.3319264,1.02271278 L11.4883721,1.01744186 Z M10.7034884,14.0465116 C10.7034884,14.4607252 10.3677019,14.7965116 9.95348837,14.7965116 C9.57379261,14.7965116 9.25999741,14.5143577 9.21033499,14.1482822 L9.20348837,14.0465116 L9.20281395,11.725814 L7.90697674,11.7267442 C7.77743222,11.7267442 7.66920465,11.8164654 7.64092625,11.9372756 L7.63372093,12 L7.63372093,16.0930233 C7.63372093,16.5116366 7.85564248,16.9531207 8.39746096,17.6543859 L8.39746096,17.6543859 L9.08391331,18.5299328 C9.65176672,19.2813716 9.97507925,19.8449225 10.113,20.459 L10.113,20.459 L18.03,20.459 L19.5813135,12.3164397 C19.7062006,11.6613145 19.3143823,11.0269085 18.6898,10.8353037 L18.6898,10.8353037 L18.5618642,10.8030118 L12.8761433,9.66566297 C12.5255871,9.59553913 12.2732558,9.28773356 12.2732558,8.93023256 L12.2732558,8.93023256 L12.2732558,3.30232558 C12.2732558,2.8955137 11.9622036,2.55690031 11.5944551,2.52295924 L11.5944551,2.52295924 L11.484,2.517 L11.3818524,2.5246055 C10.998703,2.57656783 10.7034884,2.90490119 10.7034884,3.30232558 L10.7034884,3.30232558 L10.7034884,14.0465116 Z M4.85591148,0.725483868 C5.12217804,0.99175043 5.14638409,1.40841411 4.92852963,1.70202561 L4.85591148,1.78614404 L3.06581395,3.57481395 L7.39534884,3.5755814 C7.8095624,3.5755814 8.14534884,3.91136783 8.14534884,4.3255814 C8.14534884,4.70527716 7.86319496,5.01907236 7.49711939,5.06873478 L7.39534884,5.0755814 L3.06581395,5.07481395 L4.85591148,6.86501875 C5.12217804,7.13128531 5.14638409,7.547949 4.92852963,7.84156049 L4.85591148,7.92567892 C4.58964492,8.19194549 4.17298124,8.21615154 3.87936974,7.99829708 L3.79525131,7.92567892 L0.725483868,4.85591148 L0.662085875,4.78388404 C0.659636483,4.78071553 0.657211891,4.77752687 0.65481239,4.77431836 L0.725483868,4.85591148 C0.688430592,4.81885821 0.656064844,4.77889247 0.628386625,4.73675118 C0.614410887,4.71536215 0.601339978,4.69305474 0.589425142,4.67005186 C0.58529867,4.66215507 0.58167082,4.65482976 0.578170004,4.64745914 C0.531902395,4.55040027 0.505813953,4.44103747 0.505813953,4.3255814 C0.505813953,4.28679336 0.508758444,4.24869304 0.514436096,4.21149177 C0.516137911,4.20079336 0.517896615,4.19073179 0.519861434,4.18070261 C0.524865306,4.15474646 0.531357751,4.12899856 0.539140836,4.10381743 C0.542428051,4.09331492 0.545992502,4.08261064 0.549804728,4.07197525 C0.558839949,4.04676425 0.569129761,4.02235729 0.580631675,3.99864748 C0.585640174,3.98821442 0.591127366,3.97753176 0.596887821,3.96695843 C0.611942349,3.93950601 0.628366282,3.91342086 0.646283078,3.88848035 C0.648148153,3.88578111 0.650492572,3.88256812 0.652865714,3.87936974 C0.677985115,3.84615195 0.700884019,3.81985116 0.725483868,3.79525131 L3.79525131,0.725483868 C4.08814453,0.432590649 4.56301826,0.432590649 4.85591148,0.725483868 Z M20.1206303,0.652865714 L20.2047487,0.725483868 L23.2745161,3.79525131 C23.3010953,3.82183046 23.3256888,3.85039528 23.348055,3.88070416 L23.2745161,3.79525131 C23.3109949,3.83173012 23.3429304,3.87103177 23.3703226,3.91245312 C23.3823836,3.93079941 23.3938521,3.94992122 23.404469,3.9695707 C23.4116205,3.98270644 23.418353,3.99614051 23.4246568,4.00972442 C23.4343629,4.03066777 23.4431043,4.05198701 23.450867,4.07377071 C23.4557517,4.0876033 23.4602082,4.10141227 23.4642545,4.11531534 C23.4709037,4.13788968 23.4765312,4.1612599 23.4810373,4.18502701 C23.4832121,4.19683305 23.4851525,4.20858228 23.4868125,4.22036342 C23.4917077,4.25498952 23.494186,4.28999604 23.494186,4.3255814 C23.494186,4.36397364 23.4913013,4.40169212 23.4857369,4.43853192 C23.4839322,4.45009951 23.4818766,4.46180918 23.4795417,4.47347407 C23.4745981,4.49847721 23.4684249,4.52277352 23.4610999,4.54656506 C23.4576652,4.55759905 23.4538568,4.56903034 23.4497657,4.58038267 C23.4405206,4.60599357 23.43016,4.63040963 23.4185853,4.65412456 C23.4140825,4.66345002 23.4092614,4.67284007 23.4042293,4.68214619 C23.3849277,4.71772428 23.3626896,4.75183472 23.3379141,4.78388404 L23.2745161,4.85591148 L20.2047487,7.92567892 C19.9118555,8.21857214 19.4369817,8.21857214 19.1440885,7.92567892 C18.877822,7.65941236 18.8536159,7.24274868 19.0714704,6.94913718 L19.1440885,6.86501875 L20.932814,5.07481395 L15.5813953,5.0755814 C15.1671818,5.0755814 14.8313953,4.73979496 14.8313953,4.3255814 C14.8313953,3.94588563 15.1135492,3.63209043 15.4796248,3.58242801 L15.5813953,3.5755814 L20.932814,3.57481395 L19.1440885,1.78614404 C18.877822,1.51987748 18.8536159,1.10321379 19.0714704,0.809602301 L19.1440885,0.725483868 C19.4103551,0.459217305 19.8270188,0.435011254 20.1206303,0.652865714 Z" transform="translate(0 1)"/>
</svg>
