<svg xmlns="http://www.w3.org/2000/svg" width="24" height="24" viewBox="0 0 24 24">
  <path fill="#111" d="M9.64614263,-3.37507799e-14 C14.9735601,-3.37507799e-14 19.2922853,4.31872516 19.2922853,9.64614263 C19.2922853,12.0620423 18.4041484,14.2705064 16.9365621,15.9628478 L21.4588957,20.4866239 C21.7273812,20.7551093 21.7273812,21.1904103 21.4588957,21.4588957 C21.214818,21.7029734 20.8328763,21.7251623 20.5637325,21.5254624 L20.4866239,21.4588957 L15.9628478,16.9365621 C14.2705064,18.4041484 12.0620423,19.2922853 9.64614263,19.2922853 C4.31872516,19.2922853 2.30926389e-14,14.9735601 2.30926389e-14,9.64614263 C2.30926389e-14,4.31872516 4.31872516,-3.37507799e-14 9.64614263,-3.37507799e-14 Z M9.64614263,1.375 C5.07811669,1.375 1.375,5.07811669 1.375,9.64614263 C1.375,14.2141686 5.07811669,17.9172853 9.64614263,17.9172853 C14.2141686,17.9172853 17.9172853,14.2141686 17.9172853,9.64614263 C17.9172853,5.07811669 14.2141686,1.375 9.64614263,1.375 Z" transform="translate(1 1)"/>
</svg>
