<svg xmlns="http://www.w3.org/2000/svg" width="24" height="24" viewBox="0 0 24 24">
  <path fill="#111" d="M15.069607,0.0437712379 C15.8962143,-0.0718487873 16.738697,0.0426453238 17.5044688,0.374671006 C17.9493432,0.567560998 18.0592587,1.14847345 17.7156085,1.49056161 L17.7156085,1.49056161 L15.3860766,3.8094278 L17.7017741,6.1132312 L20.0346664,3.79071631 C20.3643023,3.46247262 20.90761,3.55407636 21.1208958,3.94717303 L21.1208958,3.94717303 L21.1613504,4.03597959 C21.5744326,5.13733196 21.6120813,6.34430379 21.2712701,7.45976235 C20.6635735,9.55709815 18.9451728,11.1459511 16.7679964,11.5945793 C16.007482,11.7067167 15.2350931,11.6896615 14.4831251,11.5456602 L14.4831251,11.5456602 L14.2726021,11.4994467 L6.58653855,20.1406783 C5.96275046,20.9092063 5.05872855,21.3928726 4.07942927,21.4889107 L4.07942927,21.4889107 L3.86850191,21.5035197 C2.80885103,21.5465251 1.78183865,21.1319727 1.03269357,20.3477904 L1.03269357,20.3477904 L0.889201157,20.1862955 C0.280055333,19.4584759 -0.0363665523,18.5288009 0.00332975253,17.5789942 C0.0464260274,16.547837 0.505531129,15.5781531 1.27888379,14.8886042 L1.27888379,14.8886042 L7.849,9.098 L5.531,6.78 L4.01269033,7.28664526 C3.8013398,7.35709544 3.57142011,7.32001066 3.3943047,7.1922399 L3.31047778,7.12087536 L0.748663036,4.55906062 C0.480685119,4.2910827 0.480685119,3.85660465 0.748663036,3.58862674 L0.748663036,3.58862674 L3.31047778,1.02681199 C3.5784557,0.758834076 4.01293374,0.758834076 4.28091166,1.02681199 L4.28091166,1.02681199 L6.84272641,3.58862674 C7.02651303,3.77241336 7.09068818,4.04426367 7.0084963,4.29083929 L7.0084963,4.29083929 L6.502,5.809 L8.881,8.189 L9.95228451,7.24591929 L9.88512462,6.97799835 C9.83048615,6.72788625 9.79731063,6.47524224 9.78612414,6.22478787 L9.78612414,6.22478787 L9.78118749,5.7664328 C9.81820478,2.78472489 12.1124375,0.296797662 15.1059381,0.0396730019 L15.1059381,0.0396730019 Z M18.4769167,12.9460045 L18.5538795,13.0124453 L20.3330238,14.7916401 C21.0794834,15.5230181 21.5001313,16.5240744 21.5001313,17.5691178 C21.5001313,18.6141612 21.0794834,19.6152175 20.3429267,20.3366926 C19.6115487,21.0831522 18.6104924,21.5038001 17.565449,21.5038001 C16.5900751,21.5038001 15.653019,21.137369 14.9417809,20.4856585 L14.7928974,20.3416693 L12.0938426,17.6426145 C11.8258647,17.3746366 11.8258647,16.9401585 12.0938426,16.6721806 C12.3374589,16.4285643 12.7186786,16.4064174 12.9873137,16.6057398 L13.0642765,16.6721806 L15.7682575,19.3762121 C16.2415021,19.8592154 16.8892444,20.1313994 17.565449,20.1313994 C18.2416535,20.1313994 18.8893958,19.8592154 19.3725433,19.3663092 C19.8555466,18.8930646 20.1277306,18.2453223 20.1277306,17.5691178 C20.1277306,16.9543864 19.9027851,16.3631775 19.4952594,15.9015086 L19.3675666,15.7670001 L17.5834456,13.9828791 C17.3154677,13.7149012 17.3154677,13.2804232 17.5834456,13.0124453 C17.8270619,12.768829 18.2082816,12.746682 18.4769167,12.9460045 Z M15.6933301,1.37240559 C15.5487734,1.37264095 15.4038996,1.3827736 15.2597181,1.40294069 L15.2597181,1.40294069 L15.0241087,1.42861568 C12.781827,1.72196487 11.1020499,3.66238468 11.1544457,5.96873782 C11.1487723,6.39114919 11.2273128,6.81045803 11.385481,7.20218034 C11.4944845,7.47214037 11.4212702,7.78149909 11.202827,7.97396404 L11.202827,7.97396404 L2.18919697,15.9156374 C1.69604353,16.355361 1.40212376,16.976154 1.37453346,17.6363024 C1.34912017,18.2443617 1.55170084,18.8395613 1.92768261,19.2893091 L1.92768261,19.2893091 L2.04094903,19.4170223 C2.50151333,19.898754 3.14692586,20.159274 3.81284964,20.1322478 C4.47877342,20.1052217 5.10095201,19.7932573 5.54103462,19.2521712 L5.54103462,19.2521712 L13.5247473,10.2766703 C13.701105,10.0784042 13.9759675,9.99958782 14.2305928,10.0742701 C14.9887733,10.2966465 15.7861333,10.352115 16.5290695,10.243709 C18.1691195,9.90489374 19.4870228,8.68634523 19.9559137,7.06832502 C20.0951511,6.61250751 20.1501201,6.13856372 20.1215262,5.66911327 L20.1215262,5.66911327 L20.1190293,5.64295521 L18.1868781,7.56747388 C17.9435691,7.80975526 17.5638494,7.83187619 17.2956318,7.63377059 L17.2956318,7.63377059 L17.2187594,7.56773205 L13.9295723,4.29592864 C13.6599486,4.02772999 13.6598675,3.59140568 13.9293915,3.32310684 L13.9293915,3.32310684 L15.8819707,1.37844859 Z M3.79569472,2.48277374 L2.20462478,4.07384368 L3.98051136,5.84973026 L5.17358508,5.45264897 L5.5715813,4.25866031 L3.79569472,2.48277374 Z" transform="translate(1 1)"/>
</svg>
