<svg xmlns="http://www.w3.org/2000/svg" width="24" height="24" viewBox="0 0 24 24">
  <path fill="#111" d="M15.778281,0.000616756434 L15.7484472,3.47548077e-14 C15.8623559,3.47548077e-14 15.970064,0.0265481152 16.0657216,0.0737944479 C16.0802472,0.0809228093 16.0943915,0.0885023033 16.1083218,0.0965896568 C16.1249109,0.106303613 16.1408769,0.116456186 16.1563983,0.127205293 C16.1624611,0.131326804 16.16889,0.135932978 16.1752584,0.140658206 L16.1974295,0.15783622 C16.2142528,0.171352406 16.2304537,0.185611651 16.2459823,0.200564147 L16.2557195,0.210119048 L21.2660714,5.22047102 C21.5462302,5.50062975 21.5462302,5.9548568 21.2660714,6.23501553 C21.0113817,6.48970528 20.6128338,6.5128589 20.331988,6.30447637 L20.2515269,6.23501553 L16.465,2.449 L16.4658385,18.7546584 C16.4658385,19.1178456 16.1959522,19.4179976 15.845793,19.4655008 L15.7484472,19.4720497 L0.717391304,19.4720497 C0.321187027,19.4720497 -3.49865064e-14,19.1508627 -3.49865064e-14,18.7546584 C-3.49865064e-14,18.3914711 0.269886322,18.0913192 0.620045554,18.043816 L0.717391304,18.0372671 L15.0309648,18.0363561 L15.031,2.449 L11.2453675,6.23501553 C10.9906777,6.48970528 10.5921299,6.5128589 10.3112841,6.30447637 L10.230823,6.23501553 C9.97613323,5.98032577 9.95297961,5.5817779 10.1613621,5.30093213 L10.230823,5.22047102 L15.2411749,0.210119048 L15.2514635,0.200033813 C15.2711282,0.181138762 15.2918679,0.163354117 15.3135815,0.146780717 L15.2411749,0.210119048 C15.2735165,0.177777492 15.3081778,0.149169449 15.3446232,0.124294918 C15.3635659,0.111461393 15.3827623,0.0996566953 15.4025279,0.0887570921 C15.4149579,0.0818517888 15.4274691,0.0754407714 15.4401201,0.0694212224 C15.4602218,0.0598575131 15.4811763,0.0510472549 15.5026083,0.0432298699 C15.5156852,0.0384977327 15.5288005,0.0341544409 15.5420074,0.0301995867 C15.5605688,0.0245923044 15.5790049,0.0198630157 15.5977112,0.0158629733 C15.614389,0.0123599389 15.6311696,0.00939170159 15.6480183,0.00702277819 C15.6490624,0.00682779795 15.6500816,0.00668729584 15.6511015,0.00654893704 L15.7484472,3.47548077e-14 C15.7621029,8.3805169e-05 15.7701943,0.00028224447 15.778281,0.000616756434 Z" transform="matrix(-1 0 0 1 22.476 2)"/>
</svg>
