<svg xmlns="http://www.w3.org/2000/svg" width="24" height="24" viewBox="0 0 24 24">
  <path fill="#111" d="M11,0.437179487 C16.8336847,0.437179487 21.5628205,5.16631532 21.5628205,11 C21.5628205,16.8336847 16.8336847,21.5628205 11,21.5628205 C5.16631532,21.5628205 0.437179487,16.8336847 0.437179487,11 C0.437179487,5.16631532 5.16631532,0.437179487 11,0.437179487 Z M11,1.70641026 C5.86729211,1.70641026 1.70641026,5.86729211 1.70641026,11 C1.70641026,16.1327079 5.86729211,20.2935897 11,20.2935897 C16.1327079,20.2935897 20.2935897,16.1327079 20.2935897,11 C20.2935897,5.86729211 16.1327079,1.70641026 11,1.70641026 Z M16.8641255,6.94100275 C17.0894279,7.16630522 17.10991,7.5188668 16.9255716,7.7673073 L16.8641255,7.83848443 L9.64361264,15.0589973 C9.41831016,15.2842997 9.06574858,15.3047818 8.81730809,15.1204434 L8.74613095,15.0589973 L5.13587454,11.4487408 C4.88804182,11.2009081 4.88804182,10.7990919 5.13587454,10.5512592 C5.36117702,10.3259567 5.7137386,10.3054746 5.96217909,10.489813 L6.03335623,10.5512592 L9.19430769,13.7127692 L15.9666438,6.94100275 C16.2144765,6.69317002 16.6162927,6.69317002 16.8641255,6.94100275 Z" transform="translate(1 1)"/>
</svg>
