<svg width="12" height="10" viewBox="0 0 12 10" fill="none" xmlns="http://www.w3.org/2000/svg">
<path fill-rule="evenodd" clip-rule="evenodd" d="M0.5 2C0.5 1.17157 1.17157 0.5 2 0.5H7.94575C8.46294 0.5 8.94364 0.766429 9.21775 1.205L11.0927 4.205C11.3968 4.69141 11.3968 5.30859 11.0927 5.795L9.21775 8.795C8.94364 9.23357 8.46294 9.5 7.94575 9.5H2C1.17157 9.5 0.5 8.82843 0.5 8V2ZM2 1.5C1.72386 1.5 1.5 1.72386 1.5 2V8C1.5 8.27614 1.72386 8.5 2 8.5H7.94575C8.11815 8.5 8.27838 8.41119 8.36975 8.265L10.2448 5.265C10.3461 5.10286 10.3461 4.89714 10.2448 4.735L8.36975 1.735C8.27838 1.58881 8.11815 1.5 7.94575 1.5H2Z" fill="#646E78"/>
</svg>
