<svg xmlns="http://www.w3.org/2000/svg" width="24" height="24" viewBox="0 0 24 24">
  <g fill="#111" transform="translate(1 2)">
    <path d="M21.8166667,4.99583333 C22.1963624,4.99583333 22.5041667,5.30363757 22.5041667,5.68333333 C22.5041667,6.03138779 22.2455256,6.31903338 21.9099563,6.36455727 L21.8166667,6.37083333 L0.870833333,6.36991667 L0.870833333,19.25 C0.870833333,19.5980545 0.612192275,19.8857 0.276623011,19.9312239 L0.183333333,19.9375 C-0.164721118,19.9375 -0.452366714,19.6788589 -0.497890602,19.3432897 L-0.504166667,19.25 L-0.504166667,5.68333333 C-0.504166667,5.33527888 -0.245525609,5.04763329 0.0900436557,5.0021094 L0.183333333,4.99583333 L21.8166667,4.99583333 Z"/>
    <path d="M15.8305308,-0.302802579 C16.0746084,-0.546880261 16.4565501,-0.569069141 16.725694,-0.369369219 L16.8028026,-0.302802579 L22.3028026,5.19719742 C22.5468803,5.4412751 22.5690691,5.82321681 22.3693692,6.09236068 L22.3028026,6.16946925 L16.8028026,11.6694692 C16.5343171,11.9379547 16.0990162,11.9379547 15.8305308,11.6694692 C15.5864531,11.4253916 15.5642642,11.0434499 15.7639641,10.774306 L15.8305308,10.6971974 L20.8440833,5.68333333 L15.8305308,0.669469245 C15.5864531,0.425391563 15.5642642,0.0434498539 15.7639641,-0.225694015 L15.8305308,-0.302802579 Z"/>
  </g>
</svg>
