<svg xmlns="http://www.w3.org/2000/svg" width="24" height="24" viewBox="0 0 24 24">
  <path fill="#111" d="M9.88633041,-1.0658141e-14 C10.0686667,-1.0658141e-14 10.2435351,0.0724328278 10.3724663,0.201364088 L10.3724663,0.201364088 L20.4685412,10.2974389 C21.4278442,11.2567603 21.4278442,12.8121081 20.4685365,13.7714342 L20.4685365,13.7714342 L13.7714295,20.4685412 C12.8121081,21.4278442 11.2567603,21.4278442 10.2974343,20.4685365 L10.2974343,20.4685365 L0.201364088,10.3724663 C0.0724328278,10.2435351 4.26325641e-14,10.0686667 4.26325641e-14,9.88633041 L4.26325641e-14,9.88633041 L4.26325641e-14,0.6875 C4.26325641e-14,0.307804234 0.307804234,-1.0658141e-14 0.6875,-1.0658141e-14 L0.6875,-1.0658141e-14 Z M9.60026608,1.37409942 L1.37409942,1.37409942 L1.37409942,9.60026608 L11.2697014,19.49626 C11.661886,19.8884371 12.2803303,19.9164497 12.7048339,19.5803017 L12.7048339,19.5803017 L12.7991623,19.4962647 L19.49626,12.799167 C19.9186045,12.3768144 19.9186045,11.6920541 19.4962647,11.2697061 L19.4962647,11.2697061 L9.60026608,1.37409942 Z M5.99451754,3.5380117 C7.35120826,3.5380117 8.45102339,4.63782683 8.45102339,5.99451754 C8.45102339,7.35120826 7.35120826,8.45102339 5.99451754,8.45102339 C4.63782683,8.45102339 3.5380117,7.35120826 3.5380117,5.99451754 C3.5380117,4.63782683 4.63782683,3.5380117 5.99451754,3.5380117 Z M5.99451754,4.9130117 C5.39721836,4.9130117 4.9130117,5.39721836 4.9130117,5.99451754 C4.9130117,6.59181673 5.39721836,7.07602339 5.99451754,7.07602339 C6.59181673,7.07602339 7.07602339,6.59181673 7.07602339,5.99451754 C7.07602339,5.39721836 6.59181673,4.9130117 5.99451754,4.9130117 Z" transform="translate(1 1)"/>
</svg>
