<?xml version="1.0" encoding="UTF-8"?>
<svg width="24px" height="24px" viewBox="0 0 24 24" version="1.1" xmlns="http://www.w3.org/2000/svg" xmlns:xlink="http://www.w3.org/1999/xlink">
    <title>uranus-icon/ln-table</title>
    <g id="uranus-icon/ln-table" stroke="none" stroke-width="1" fill="none" fill-rule="evenodd">
        <g id="Combined-Shape-2" transform="translate(1.000000, 1.000000)" fill="#111111" fill-rule="nonzero">
            <path d="M8.73395445,20.0414079 C9.13015873,20.0414079 9.45134576,20.3625949 9.45134576,20.7587992 C9.45134576,21.1219864 9.18145943,21.4221384 8.8313002,21.4696415 L8.73395445,21.4761905 L0.717391304,21.4761905 C0.321187027,21.4761905 -8.8817842e-16,21.1550034 -8.8817842e-16,20.7587992 C-8.8817842e-16,20.3956119 0.269886322,20.09546 0.620045554,20.0479568 L0.717391304,20.0414079 L8.73395445,20.0414079 Z M20.7587992,20.0414079 C21.1550034,20.0414079 21.4761905,20.3625949 21.4761905,20.7587992 C21.4761905,21.1219864 21.2063042,21.4221384 20.8561449,21.4696415 L20.7587992,21.4761905 L12.742236,21.4761905 C12.3460317,21.4761905 12.0248447,21.1550034 12.0248447,20.7587992 C12.0248447,20.3956119 12.294731,20.09546 12.6448903,20.0479568 L12.742236,20.0414079 L20.7587992,20.0414079 Z M8.73395445,16.0331263 C9.13015873,16.0331263 9.45134576,16.3543133 9.45134576,16.7505176 C9.45134576,17.1137049 9.18145943,17.4138568 8.8313002,17.46136 L8.73395445,17.4679089 L0.717391304,17.4679089 C0.321187027,17.4679089 -8.8817842e-16,17.1467219 -8.8817842e-16,16.7505176 C-8.8817842e-16,16.3873303 0.269886322,16.0871784 0.620045554,16.0396752 L0.717391304,16.0331263 L8.73395445,16.0331263 Z M20.7587992,16.0331263 C21.1550034,16.0331263 21.4761905,16.3543133 21.4761905,16.7505176 C21.4761905,17.1137049 21.2063042,17.4138568 20.8561449,17.46136 L20.7587992,17.4679089 L12.742236,17.4679089 C12.3460317,17.4679089 12.0248447,17.1467219 12.0248447,16.7505176 C12.0248447,16.3873303 12.294731,16.0871784 12.6448903,16.0396752 L12.742236,16.0331263 L20.7587992,16.0331263 Z M8.73395445,12.0248447 C9.13015873,12.0248447 9.45134576,12.3460317 9.45134576,12.742236 C9.45134576,13.1054233 9.18145943,13.4055752 8.8313002,13.4530784 L8.73395445,13.4596273 L0.717391304,13.4596273 C0.321187027,13.4596273 -8.8817842e-16,13.1384403 -8.8817842e-16,12.742236 C-8.8817842e-16,12.3790488 0.269886322,12.0788968 0.620045554,12.0313937 L0.717391304,12.0248447 L8.73395445,12.0248447 Z M20.7587992,12.0248447 C21.1550034,12.0248447 21.4761905,12.3460317 21.4761905,12.742236 C21.4761905,13.1054233 21.2063042,13.4055752 20.8561449,13.4530784 L20.7587992,13.4596273 L12.742236,13.4596273 C12.3460317,13.4596273 12.0248447,13.1384403 12.0248447,12.742236 C12.0248447,12.3790488 12.294731,12.0788968 12.6448903,12.0313937 L12.742236,12.0248447 L20.7587992,12.0248447 Z M20.7587992,2.70701336e-14 C21.1550034,2.70701336e-14 21.4761905,0.321187027 21.4761905,0.717391304 L21.4761905,0.717391304 L21.4761905,8.73395445 C21.4761905,9.13015873 21.1550034,9.45134576 20.7587992,9.45134576 L20.7587992,9.45134576 L0.717391304,9.45134576 C0.321187027,9.45134576 0,9.13015873 0,8.73395445 L0,8.73395445 L0,0.717391304 C0,0.321187027 0.321187027,2.70701336e-14 0.717391304,2.70701336e-14 L0.717391304,2.70701336e-14 Z M20.0412257,1.43400828 L1.43400828,1.43400828 L1.43400828,8.01583437 L20.0412257,8.01583437 L20.0412257,1.43400828 Z M8.73395445,4.00828157 C9.13015873,4.00828157 9.45134576,4.3294686 9.45134576,4.72567288 C9.45134576,5.08886013 9.18145943,5.38901206 8.8313002,5.43651525 L8.73395445,5.44306418 L4.72567288,5.44306418 C4.3294686,5.44306418 4.00828157,5.12187715 4.00828157,4.72567288 C4.00828157,4.36248562 4.2781679,4.0623337 4.62832713,4.01483051 L4.72567288,4.00828157 L8.73395445,4.00828157 Z M16.7505176,4.00828157 C17.1467219,4.00828157 17.4679089,4.3294686 17.4679089,4.72567288 C17.4679089,5.08886013 17.1980226,5.38901206 16.8478633,5.43651525 L16.7505176,5.44306418 L12.742236,5.44306418 C12.3460317,5.44306418 12.0248447,5.12187715 12.0248447,4.72567288 C12.0248447,4.36248562 12.294731,4.0623337 12.6448903,4.01483051 L12.742236,4.00828157 L16.7505176,4.00828157 Z" id="Combined-Shape"></path>
        </g>
    </g>
</svg>