<?xml version="1.0" encoding="UTF-8"?>
<svg width="24px" height="24px" viewBox="0 0 24 24" version="1.1" xmlns="http://www.w3.org/2000/svg" xmlns:xlink="http://www.w3.org/1999/xlink">
    <title>uranus-icon/ln-teams@1x</title>
    <g id="uranus-icon/ln-teams" stroke="none" stroke-width="1" fill="none" fill-rule="evenodd">
        <g id="Group-3" transform="translate(1.000000, 1.000000)" fill="#212121" fill-rule="nonzero">
            <path d="M3.5106383,1.87234043 L3.34508703,1.87794656 C1.9789717,1.97817715 0.936170213,3.09598706 0.936170213,4.44680851 L0.941776347,4.61235977 C1.04200694,5.97847511 2.15981685,7.0212766 3.5106383,7.0212766 L3.67618956,7.01567046 C5.0423049,6.91543987 6.08510638,5.79762996 6.08510638,4.44680851 L6.07950025,4.28125725 C5.97926966,2.91514191 4.86145975,1.87234043 3.5106383,1.87234043 Z M3.42247369,3.27982881 L3.5106383,3.27659574 C4.12468087,3.27659574 4.63279428,3.75061321 4.677618,4.3586439 L4.681324,4.47257474 C4.68085106,5.06085108 4.2068336,5.56896449 3.59880291,5.61378822 L3.48487207,5.61749421 C2.89659573,5.61702128 2.38848231,5.14300381 2.34365859,4.53497312 L2.3399526,4.42104228 C2.34042553,3.83276594 2.814443,3.32465253 3.42247369,3.27982881 Z" id="Path"></path>
            <path d="M3.5106383,8.42553191 C3.8984127,8.42553191 4.21276596,8.73988518 4.21276596,9.12765957 C4.21276596,9.48311944 3.9486219,9.77688515 3.60591286,9.82337764 L3.5106383,9.82978723 L2.57446809,9.82978723 C1.96819275,9.82978723 1.47017635,10.2899114 1.41029257,10.8802861 L1.40425532,11 L1.40425532,14.9787234 L2.57446809,14.9787234 C2.92992795,14.9787234 3.22369367,15.2428675 3.27018615,15.5855765 L3.27659574,15.6808511 L3.27659574,18.7234043 L5.38297872,18.7234043 C5.73843859,18.7234043 6.0322043,18.9875483 6.07869679,19.3302574 L6.08510638,19.4255319 C6.08510638,19.7809918 5.82096232,20.0747575 5.47825329,20.12125 L5.38297872,20.1276596 L2.57446809,20.1276596 C2.21900822,20.1276596 1.9252425,19.8635155 1.87875002,19.5208065 L1.87234043,19.4255319 L1.87234043,16.3829787 L0.70212766,16.3829787 C0.346667794,16.3829787 0.0529020791,16.1188347 0.00640959795,15.7761256 L0,15.6808511 L0,11 C0,9.63043316 1.06845611,8.51125235 2.41759714,8.43022876 L2.57446809,8.42553191 L3.5106383,8.42553191 Z" id="Path"></path>
            <path d="M18.6807672,1.87937376 L18.4893617,1.87234043 C17.1385403,1.87234043 16.0207303,2.91514191 15.921927,4.25540305 L15.9153664,4.42104228 C15.9148936,5.79762996 16.9576951,6.91543987 18.2979562,7.01424326 L18.4635955,7.02080382 C19.8401831,7.0212766 20.9579931,5.97847511 21.0567965,4.63821397 L21.063357,4.47257474 C21.0638298,3.09598706 20.0210283,1.97817715 18.6807672,1.87937376 Z M18.4893617,3.27659574 L18.6033805,3.28125601 C19.185557,3.32465253 19.6595745,3.83276594 19.6595745,4.44680851 L19.6549142,4.56082732 C19.6115177,5.14300381 19.1034043,5.61702128 18.4893617,5.61702128 L18.3753429,5.61236101 C17.7931664,5.56896449 17.3191489,5.06085108 17.3191489,4.44680851 L17.3238092,4.3327897 C17.3672057,3.75061321 17.8753191,3.27659574 18.4893617,3.27659574 Z" id="Path"></path>
            <path d="M19.4255319,8.42553191 C20.7950988,8.42553191 21.9142796,9.49398803 21.9953032,10.8431291 L22,11 L22,15.6808511 C22,16.0363109 21.7358559,16.3300766 21.3931469,16.3765691 L21.2978723,16.3829787 L20.1276596,16.3829787 L20.1276596,19.4255319 C20.1276596,19.7809918 19.8635155,20.0747575 19.5208065,20.12125 L19.4255319,20.1276596 L16.6170213,20.1276596 C16.2292469,20.1276596 15.9148936,19.8133063 15.9148936,19.4255319 C15.9148936,19.070072 16.1790377,18.7763063 16.5217467,18.7298139 L16.6170213,18.7234043 L18.7234043,18.7234043 L18.7234043,15.6808511 C18.7234043,15.3253912 18.9875483,15.0316255 19.3302574,14.985133 L19.4255319,14.9787234 L20.5957447,14.9787234 L20.5957447,11 C20.5957447,10.3937247 20.1356205,9.89570827 19.5452458,9.83582448 L19.4255319,9.82978723 L18.4893617,9.82978723 C18.1015873,9.82978723 17.787234,9.51543397 17.787234,9.12765957 C17.787234,8.77219971 18.0513781,8.47843399 18.3940871,8.43194151 L18.4893617,8.42553191 L19.4255319,8.42553191 Z" id="Path"></path>
            <path d="M11,0 L10.8146922,0.00505986008 C8.94303129,0.113191272 7.4893617,1.64833787 7.4893617,3.5106383 L7.49442156,3.69594611 C7.60255297,5.56760701 9.13769958,7.0212766 11,7.0212766 L11.1853078,7.01621674 C13.0569687,6.90808532 14.5106383,5.37293872 14.5106383,3.5106383 L14.5055784,3.32533048 C14.397447,1.45366959 12.8623004,0 11,0 Z M10.8755718,1.40784724 L11,1.40425532 C12.1172621,1.40425532 13.038511,2.2766094 13.1027911,3.38621014 L13.1066757,3.53091118 C13.106383,4.62790042 12.2340289,5.54914925 11.1244282,5.61342936 L10.9797271,5.61731401 C9.88273788,5.61702128 8.96148905,4.7446672 8.89720894,3.63506646 L8.89332429,3.49036541 C8.89361702,2.39337617 9.7659711,1.47212735 10.8755718,1.40784724 Z" id="Path"></path>
            <path d="M13.8085106,8.42553191 L8.19148936,8.42553191 C6.76924688,8.42553191 5.61702128,9.57775752 5.61702128,11 L5.61702128,15.6808511 L5.62343087,15.7761256 C5.66992336,16.1188347 5.96368907,16.3829787 6.31914894,16.3829787 L7.4893617,16.3829787 L7.4893617,21.2978723 C7.4893617,21.6856467 7.80371496,22 8.19148936,22 L13.8085106,22 L13.9037852,21.9935904 C14.2464942,21.9470979 14.5106383,21.6533322 14.5106383,21.2978723 L14.5106383,17.3191489 L15.6808511,17.3191489 C16.0686255,17.3191489 16.3829787,17.0047957 16.3829787,16.6170213 L16.3829787,11 C16.3829787,9.57775752 15.2307531,8.42553191 13.8085106,8.42553191 Z M13.8085106,9.82978723 L13.9282245,9.83582448 C14.5185992,9.89570827 14.9787234,10.3937247 14.9787234,11 L14.9787234,15.9148936 L13.8085106,15.9148936 L13.7132361,15.9213032 C13.370527,15.9677957 13.106383,16.2615614 13.106383,16.6170213 L13.106383,20.5957447 L8.89361702,20.5957447 L8.89361702,15.6808511 L8.88720742,15.5855765 C8.84071494,15.2428675 8.54694923,14.9787234 8.19148936,14.9787234 L7.0212766,14.9787234 L7.0212766,11 C7.0212766,10.3533063 7.54479568,9.82978723 8.19148936,9.82978723 L13.8085106,9.82978723 Z" id="Path"></path>
        </g>
    </g>
</svg>