<svg xmlns="http://www.w3.org/2000/svg" width="24" height="24" viewBox="0 0 24 24">
  <path fill="#111" d="M13.4766082,0.406067251 C14.396506,0.406067251 15.1505245,1.1162811 15.2202499,2.01829498 L15.2255117,2.15497076 L15.2250673,3.94406725 L20.9064327,3.94407895 C21.2861285,3.94407895 21.5939327,4.25188318 21.5939327,4.63157895 C21.5939327,4.9796334 21.3352917,5.26727899 20.9997224,5.31280288 L20.9064327,5.31907895 L19.0690673,5.31906725 L18.1716382,17.8971254 C18.0835395,19.1313267 17.0940783,20.0985865 15.8746947,20.1739926 L15.7211228,20.1787281 L6.27887719,20.1787281 C5.04149907,20.1787281 4.00606671,19.2608363 3.84402187,18.0499891 L3.82836373,17.8971526 L2.93006725,5.31906725 L1.09356725,5.31907895 C0.713871486,5.31907895 0.406067251,5.01127471 0.406067251,4.63157895 C0.406067251,4.2835245 0.66470831,3.9958789 1.00027757,3.95035501 L1.09356725,3.94407895 L6.77406725,3.94406725 L6.7744883,2.15497076 C6.7744883,1.23507292 7.48470216,0.481054404 8.38671603,0.411329054 L8.52339181,0.406067251 L13.4766082,0.406067251 Z M4.30806725,5.31906725 L5.19987213,17.7992254 C5.23758018,18.3274889 5.65039918,18.744694 6.16674585,18.7979735 L6.27887719,18.8037281 L15.7211228,18.8037281 C16.2508735,18.8037281 16.6964954,18.4217406 16.7864066,17.9106107 L16.8001298,17.7991983 L17.6910673,5.31906725 L4.30806725,5.31906725 Z M13.4766082,1.78106725 L8.52339181,1.78106725 C8.34270326,1.78106725 8.1919498,1.90923464 8.15708469,2.07961616 L8.1494883,2.15497076 L8.14906725,3.94406725 L13.8500673,3.94406725 L13.8505117,2.15497076 C13.8505117,1.97428221 13.7223443,1.82352875 13.5519628,1.78866364 L13.4766082,1.78106725 Z" transform="translate(1 1)"/>
</svg>
