<svg width="12" height="12" viewBox="0 0 12 12" fill="none" xmlns="http://www.w3.org/2000/svg">
<path fill-rule="evenodd" clip-rule="evenodd" d="M10.5 3.5C10.5 5.15685 9.15685 6.5 7.5 6.5C5.84315 6.5 4.5 5.15685 4.5 3.5C4.5 1.84315 5.84315 0.5 7.5 0.5C9.15685 0.5 10.5 1.84315 10.5 3.5ZM9.5 3.5C9.5 4.60457 8.60457 5.5 7.5 5.5C6.39543 5.5 5.5 4.60457 5.5 3.5C5.5 2.39543 6.39543 1.5 7.5 1.5C8.60457 1.5 9.5 2.39543 9.5 3.5Z" fill="#646E78"/>
<path d="M4.09947 1.53991C4.37009 1.48498 4.54494 1.22106 4.49001 0.950437C4.43507 0.679813 4.17116 0.504962 3.90053 0.559896C2.53098 0.837901 1.5 2.04794 1.5 3.49989C1.5 4.95185 2.53098 6.16189 3.90053 6.43989C4.17116 6.49482 4.43507 6.31997 4.49001 6.04935C4.54494 5.77873 4.37009 5.51481 4.09947 5.45988C3.18678 5.27461 2.5 4.4669 2.5 3.49989C2.5 2.53289 3.18678 1.72517 4.09947 1.53991Z" fill="#646E78"/>
<path fill-rule="evenodd" clip-rule="evenodd" d="M4.84895 7.78677C5.46538 7.3136 6.32453 7 7.50002 7C8.67552 7 9.53467 7.3136 10.1511 7.78678C10.7629 8.25642 11.0958 8.8525 11.2763 9.35432C11.4351 9.79599 11.3238 10.2283 11.0574 10.5347C10.8001 10.8306 10.4106 11 10 11H5.00002C4.58945 11 4.1999 10.8306 3.9426 10.5347C3.67618 10.2283 3.56488 9.79597 3.72377 9.35429C3.90428 8.85248 4.23713 8.2564 4.84895 7.78677ZM5.45785 8.58002C5.03678 8.90323 4.79922 9.31892 4.66474 9.69278C4.63667 9.77079 4.65211 9.82668 4.69724 9.87858C4.75149 9.94098 4.85829 10 5.00002 10H10C10.1417 10 10.2485 9.94098 10.3028 9.87858C10.3479 9.82668 10.3633 9.7708 10.3353 9.69279C10.2008 9.31893 9.96325 8.90323 9.54219 8.58002C9.12573 8.26034 8.48949 8 7.50002 8C6.51056 8 5.87432 8.26033 5.45785 8.58002Z" fill="#646E78"/>
<path d="M1.62546 9.63843C1.72782 9.24432 1.90349 8.82992 2.1934 8.52022C2.46894 8.22586 2.87026 8 3.5 8C3.77614 8 4 7.77614 4 7.5C4 7.22386 3.77614 7 3.5 7C2.58966 7 1.92527 7.34337 1.46335 7.83682C1.01581 8.31492 0.782277 8.90689 0.657571 9.38706C0.415972 10.3173 1.20725 11 1.99999 11H2.3846C2.66074 11 2.8846 10.7761 2.8846 10.5C2.8846 10.2239 2.66074 10 2.3846 10H1.99999C1.85872 10 1.74623 9.94193 1.68227 9.87128C1.62434 9.80729 1.6013 9.73147 1.62546 9.63843Z" fill="#646E78"/>
</svg>
