<svg xmlns="http://www.w3.org/2000/svg" width="24" height="24" viewBox="0 0 24 24">
  <path fill="#111" d="M9,12.8333333 C14.1759865,12.8333333 18,15.9761824 18,19.0833333 L18,19.0833333 L18,20.9166667 C18,21.3308802 17.6642136,21.6666667 17.25,21.6666667 L17.25,21.6666667 L0.75,21.6666667 C0.335786438,21.6666667 -2.27373675e-13,21.3308802 -2.27373675e-13,20.9166667 L-2.27373675e-13,20.9166667 L-2.27373675e-13,19.0833333 C-2.27373675e-13,15.9702736 3.82072279,12.8333333 9,12.8333333 Z M9,14.3333333 C4.59106747,14.3333333 1.5,16.8712024 1.5,19.0833333 L1.5,19.0833333 L1.49933333,20.1663333 L16.4993333,20.1663333 L16.5,19.0833333 C16.5,16.9257443 13.5413977,14.4462059 9.29173104,14.3370697 L9.29173104,14.3370697 Z M9,9.68114477e-14 C11.9455187,9.68114477e-14 14.3333333,2.38781467 14.3333333,5.33333333 C14.3333333,8.278852 11.9455187,10.6666667 9,10.6666667 C6.05448133,10.6666667 3.66666667,8.278852 3.66666667,5.33333333 C3.66666667,2.38781467 6.05448133,9.68114477e-14 9,9.68114477e-14 Z M9,1.5 C6.88290846,1.5 5.16666667,3.21624179 5.16666667,5.33333333 C5.16666667,7.45042487 6.88290846,9.16666667 9,9.16666667 C11.1170915,9.16666667 12.8333333,7.45042487 12.8333333,5.33333333 C12.8333333,3.21624179 11.1170915,1.5 9,1.5 Z" transform="translate(3 1)"/>
</svg>
