<svg xmlns="http://www.w3.org/2000/svg" width="24" height="24" viewBox="0 0 24 24">
  <path fill="#111" d="M11.6098519,3.05718519 C12.0240654,3.05718519 12.3598519,3.39297162 12.3598519,3.80718519 C12.3598519,4.18688095 12.077698,4.50067615 11.7116224,4.55033857 L11.6098519,4.55718519 L1.49959259,4.55644444 L1.499,15.194 L16.608,15.194 L16.6091852,9.55651852 C16.6091852,9.17682275 16.8913391,8.86302756 17.2574146,8.81336513 L17.3591852,8.80651852 C17.738881,8.80651852 18.0526761,9.0886724 18.1023386,9.45474796 L18.1091852,9.55651852 L18.1091852,20.4163704 C18.1091852,20.7960661 17.8270313,21.1098613 17.4609557,21.1595238 L17.3591852,21.1663704 L0.75,21.1663704 C0.370304234,21.1663704 0.0565090391,20.8842165 0.006846616,20.5181409 L2.66453526e-14,20.4163704 L2.66453526e-14,3.80718519 C2.66453526e-14,3.42748942 0.282153882,3.11369422 0.648229443,3.0640318 L0.75,3.05718519 L11.6098519,3.05718519 Z M16.608,16.694 L1.499,16.694 L1.49959259,19.6654444 L16.6085926,19.6654444 L16.608,16.694 Z M17.8053968,0.147051761 L17.8895153,0.219669914 L20.627293,2.95744769 C20.9201863,3.25034091 20.9201863,3.72521464 20.627293,4.01810786 C20.3610265,4.28437443 19.9443628,4.30858048 19.6507513,4.09072602 L19.5666329,4.01810786 L18.207,2.658 L18.2076459,6.34536966 C18.2076459,6.75958323 17.8718595,7.09536966 17.4576459,7.09536966 C17.0779501,7.09536966 16.7641549,6.81321578 16.7144925,6.44714022 L16.7076459,6.34536966 L16.707,2.461 L15.1517375,4.01810786 C14.8854709,4.28437443 14.4688072,4.30858048 14.1751958,4.09072602 L14.0910773,4.01810786 C13.8248108,3.7518413 13.8006047,3.33517762 14.0184592,3.04156612 L14.0910773,2.95744769 L16.8288551,0.219669914 C17.0951217,-0.0465966484 17.5117853,-0.0708026996 17.8053968,0.147051761 Z" transform="translate(2 1)"/>
</svg>
