<svg xmlns="http://www.w3.org/2000/svg" width="24" height="24" viewBox="0 0 24 24">
  <path d="M4.35416667,21.5416667 C1.94942682,21.5416667 0,19.5922398 0,17.1875 L0,17.1875 L0,4.35416667 C0,1.94942682 1.94942682,0 4.35416667,0 L4.35416667,0 L19.0208333,0 C20.4130511,0 21.5416667,1.12861553 21.5416667,2.52083333 L21.5416667,2.52083333 L21.5416667,17.1875 C21.5416667,19.5922398 19.5922398,21.5416667 17.1875,21.5416667 L17.1875,21.5416667 Z M19.0208333,1.375 L4.35416667,1.375 C2.70881835,1.375 1.375,2.70881835 1.375,4.35416667 L1.375,4.35416667 L1.37486258,4.85827048 C1.71867729,4.68248747 2.10817597,4.58333333 2.52083333,4.58333333 L2.52083333,4.58333333 L14.4375,4.58333333 C15.8297178,4.58333333 16.9583333,5.71194886 16.9583333,7.10416667 L16.9583333,7.10416667 L16.9583333,19.0208333 C16.9583333,19.4334907 16.8591792,19.8229894 16.6833962,20.1668041 L17.1875,20.1666667 C18.8328483,20.1666667 20.1666667,18.8328483 20.1666667,17.1875 L20.1666667,17.1875 L20.1666667,2.52083333 C20.1666667,1.88800706 19.6536596,1.375 19.0208333,1.375 L19.0208333,1.375 Z M8.9375,11.4583333 L2.52083333,11.4583333 C1.88800706,11.4583333 1.375,11.9713404 1.375,12.6041667 L1.375,12.6041667 L1.375,17.1875 C1.375,18.8328483 2.70881835,20.1666667 4.35416667,20.1666667 L4.35416667,20.1666667 L8.9375,20.1666667 C9.57032628,20.1666667 10.0833333,19.6536596 10.0833333,19.0208333 L10.0833333,19.0208333 L10.0833333,12.6041667 C10.0833333,11.9713404 9.57032628,11.4583333 8.9375,11.4583333 L8.9375,11.4583333 Z M14.4375,5.95833333 L2.52083333,5.95833333 C1.88800706,5.95833333 1.375,6.47134039 1.375,7.10416667 L1.375,7.10416667 L1.37486258,10.3582705 C1.71867729,10.1824875 2.10817597,10.0833333 2.52083333,10.0833333 L2.52083333,10.0833333 L8.9375,10.0833333 C10.3297178,10.0833333 11.4583333,11.2119489 11.4583333,12.6041667 L11.4583333,12.6041667 L11.4583333,19.0208333 C11.4583333,19.4334907 11.3591792,19.8229894 11.1833962,20.1668041 L14.4375,20.1666667 C15.0703263,20.1666667 15.5833333,19.6536596 15.5833333,19.0208333 L15.5833333,19.0208333 L15.5833333,7.10416667 C15.5833333,6.47134039 15.0703263,5.95833333 14.4375,5.95833333 L14.4375,5.95833333 Z" transform="translate(1 1)"/>
</svg>
