<svg xmlns="http://www.w3.org/2000/svg" width="24" height="24" viewBox="0 0 24 24">
  <path fill="#111" d="M10.9429724,3.90798505e-14 C16.9866091,3.90798505e-14 21.8859447,4.8993356 21.8859447,10.9429724 C21.8859447,16.9866091 16.9866091,21.8859447 10.9429724,21.8859447 C4.8993356,21.8859447 -3.55271368e-15,16.9866091 -3.55271368e-15,10.9429724 C-3.55271368e-15,4.8993356 4.8993356,3.90798505e-14 10.9429724,3.90798505e-14 Z M10.9429724,1.44047619 C5.69488864,1.44047619 1.44047619,5.69488864 1.44047619,10.9429724 C1.44047619,16.1910561 5.69488864,20.4454685 10.9429724,20.4454685 C16.1910561,20.4454685 20.4454685,16.1910561 20.4454685,10.9429724 C20.4454685,5.69488864 16.1910561,1.44047619 10.9429724,1.44047619 Z M11,15.5537634 C11.538923,15.5537634 11.9758065,15.9906469 11.9758065,16.5295699 C11.9758065,17.0684929 11.538923,17.5053763 11,17.5053763 C10.461077,17.5053763 10.0241935,17.0684929 10.0241935,16.5295699 C10.0241935,15.9906469 10.461077,15.5537634 11,15.5537634 Z M10.9429724,4.0890937 C11.3076008,4.0890937 11.6089438,4.360051 11.6566355,4.71159975 L11.6632104,4.8093318 L11.6632104,12.9875192 C11.6632104,13.3852957 11.3407489,13.7077573 10.9429724,13.7077573 C10.5783439,13.7077573 10.2770009,13.4368 10.2293092,13.0852512 L10.2227343,12.9875192 L10.2227343,4.8093318 C10.2227343,4.41155528 10.5451958,4.0890937 10.9429724,4.0890937 Z" transform="translate(1 1)"/>
</svg>
